<?xml version="1.0" encoding="UTF-8"?>
<svg id="Layer_1" data-name="Layer 1" xmlns="http://www.w3.org/2000/svg" viewBox="0 0 37.18 74.12">
    <defs>
        <style>
            .cls-12 {
            fill: #fdacac;
            }

            .cls-22 {
            fill: #ffcdc9;
            }

            .cls-32 {
            fill: #feeac9;
            }

            .cls-42 {
            fill: #fd7979;
            }

            .cls-52 {
            fill: #9a3f3f;
            }

            svg {
            overflow: visible;
            }

            .body-part {
            cursor: pointer;
            transform-box: fill-box;
            transform-origin: center;
            transition: transform 0.2s ease;
            }

            .body-part:hover {
            transform: scale(1.08);
            filter: drop-shadow(0 0 0 rgba(0,0,0,0));
            }

            .body-part path {
            pointer-events: all;
            }
        </style>
    </defs>
    <g class="body-part" data-part="Gjoksi">
        <path class="cls-52"
              d="M24.32,19.57c-2.65.84-5.1,1.14-5.45-2.27-.14-1.32-.08-3.9,1.54-4.15,4.62-.73,5.51,2.81,3.9,6.42Z"/>
        <path class="cls-52"
              d="M14.46,13.18c1.43-.29,3.17-.31,3.56,1.37.19.81.23,3.35,0,4.11-.38,1.23-2.02,1.48-3.13,1.42-1.59-.08-2.3-.52-2.66-2.14-.46-2.06-.1-4.29,2.23-4.76Z"/>
    </g>
    <g class="body-part" data-part="Shpatullat">
        <path class="cls-42"
              d="M10.61,17.62c-.98.85-2.14-1.07-2.19-2.05-.13-2.14,3.62-4.82,4.91-2.32-2.53.75-1.02,2.91-2.71,4.37Z"/>
        <path class="cls-42"
              d="M23.65,13.37c-.07-.33.02-.39.25-.59,2.03-1.81,6.08,1.44,4.31,4.07-.96,1.44-1.88,1.1-2.53-.37-.57-1.29.45-2.76-2.03-3.12Z"/>
    </g>
    <g class="body-part" data-part="Duart">
        <path class="cls-32"
              d="M3.9,35.49c2.16-.4,2.19,1.57,1.63,3.09-.59,1.59-2.75.31-3.45-.65-.4-1.04.94-2.27,1.82-2.43Z"/>
        <path class="cls-32" d="M31.84,39.25c-1.01-1.65-.66-4.7,1.82-3.62,2.89,1.25.63,4.24-1.82,3.62Z"/>
    </g>
    <path class="body-part" d="M15.82,26.5c.84.15,1.69.25,2.55.29"/>
    <g class="body-part" data-part="Barku">
        <path class="cls-42" d="M18.37,29.21v7.32l-.49.26c-1.79-.43-2.6-6.18-2.39-7.82l2.88.24Z"/>
        <path class="cls-42"
              d="M18.85,29.81c0-.07-.28-.2-.03-.49.57-.66,2.09-.25,2.91-.35.31.32-.75,8.2-2.88,7.92.05-2.35-.07-4.72,0-7.08Z"/>
        <path class="cls-42" d="M15.82,26.5l-.55.09c-.47,2.6,1.17,2.16,3.09,2.14-.08-.63.12-1.36,0-1.93"/>
        <path class="cls-42" d="M18.71,26.8c-.03.59.29,1.34.14,1.93l2.78-.23.07-1.82c-1.05-.26-2.41-.09-2.99.11Z"/>
        <path class="cls-42"
              d="M13.31,27.66c0,.1-.42.08-.46.26-.1.42-.08,2.86,0,3.32.11.56,1.98,2.44,2.39,2.04-.56-1.57.34-3.5-.96-4.68-.09-.2.46.06.51-.46.04-.39.05-1.14-.02-1.84-.57-.14-1.12-.31-1.67-.51.1.65.17,1.3.21,1.88Z"/>
        <path class="cls-42"
              d="M22.45,28.49l.72-.12c-1.71.81-.64,3.35-1.44,4.92.57.42,2.47-1.69,2.59-2.09.22-.75.29-3.31-.67-3.55.39-.33.5-.83.5-1.38-.56.13-1.14.23-1.73.31.11.66.26,1.39.04,1.9Z"/>
        <path class="cls-42"
              d="M18.01,25.84c.19,0,.34-.14.34-.33.03-.82.17-2.43-.35-2.54-.24-.05-1.96.96-2.16,1.19-.47.54-.64,1.07-.59,1.69h2.76Z"/>
        <path class="cls-42"
              d="M21.75,25.52c.12-1.43-1.22-1.96-2.45-2.39-.22-.08-.45.08-.45.32v1.85c0,.23.17.42.4.43l2.15.1c.17,0,.34-.12.35-.29Z"/>
    </g>
    <g class="body-part" data-part="Krahërori">
        <path class="cls-32"
              d="M14.29,23.01c.91-.23.34-1.32.48-2.06-.72.21-2.05-.08-2.16-.86-.39-.02-.54-.1-.47.32.14.86,1.12,2.03,1.17,3.05,0,.09-.59.07-.48.41.11.42.2.89.28,1.36.54.18,1.1.33,1.67.46-.07-.6-.21-1.17-.48-1.38.83-.2.56-.86,0-1.3Z"/>
        <path class="cls-32"
              d="M23.96,23.42c.03-.21.52-.25.66-.46.24-.35.25-1.05.48-1.46l-.44-.16.42-1.26-1.92.87c.01.47,1.11.8,1.18.89.04.05-.19,1.1-.45,1.06l-.72-.22.46-.73-1.18-1v1.81s.48.25.48.25c-.66.16-.53.46-.49,1.05l.48.35c-.74.13-.66.8-.52,1.54.59-.08,1.17-.17,1.73-.28,0-.78-.27-1.67-.19-2.24Z"/>
        <path class="cls-32" d="M18.12,19.86c1.04,2.63-.84,3.17-2.87,4.07-.59-2.78.07-3.72,2.87-4.07Z"/>
        <path class="cls-32" d="M21.72,23.93l-2.84-1.48.19-2.5c.37-.28,2.56.65,2.77,1.1l-.12,2.88Z"/>
    </g>
    <g class="body-part" data-part="Krahët">
        <g>
            <path class="cls-12"
                  d="M9.24,22.97l-1.18.62c-.95.15-.21-2.87-.03-3.4.24-.72.8-1.54,1.57-1.79l.57.9.04,1.98,1.08-4.08c1.74,1.06-1.26,7.65-2.16,7.67-.8.02.27-1.72.12-1.92Z"/>
            <path class="cls-12"
                  d="M6.85,29.69c.39-.11.59-.96.72-1.32.32-.91.53-1.83.72-2.76.53-.13.45.22.63.45.7.89.71,1.25.15,2.37-.15.29-.46.32-.54.48-.93,1.86-1.73,3.84-2.41,5.82l-.36-.72-.6.72-.12-.72-.84.72c1.21-3.48.4-8.2,3.24-10.79,1.06-.02-.33,5.1-.6,5.75Z"/>
        </g>
        <g>
            <path class="cls-12"
                  d="M32.76,34.97l-.96-1.92c-.62.2.17,1.33.24,1.68-.24.25-.86-.55-.93-.67-.39-.68-.64-1.79-1.01-2.53-1.07-2.11-2.11-2.53-1.89-5.31.03-.36-.19-.69.36-.59l1.8,4.32c-.64-2.03-1.22-3.81-.96-6,.46-.53,2.02,2.43,2.11,2.81.12.53-.02,1.1.08,1.6.45,2.19,1.03,4.39,1.17,6.63Z"/>
            <path class="cls-12"
                  d="M27.01,21.53v-2.03s.24-1.08.24-1.08c2.16.31,2.27,3.33,2.16,5.04-.81.17-1.11-.32-1.68-.72l.48,2.16c-.72.8-2.67-4.26-2.77-4.79-.19-.99-.19-1.93.13-2.89l1.44,4.32Z"/>
        </g>
    </g>
    <g class="body-part" data-part="Këmbët">
        <path class="cls-52"
              d="M20.77,46.73c1.05-1.94,1.12-3.97,1.6-6.2.2-.94,1.49-5.48,1.87-6.05.48-.72,1.08,1.61,1.17,1.96.99,4.02-.93,7.55-1.52,11.48l.89-2.35.79-3.89.25,2.29c-.03,2.28-1.08,4.22-1.69,6.35-.89.19-.33-1.17-.48-1.68l-.84,1.44c-.27-.13-.84-1.56-.84-1.8v-3.48c-.35-.05-.44.61-.44.83.02,1.45,1.21,4.68-.52,5.17-.02-1.4-.3-2.65-.24-4.08l-.48.72c-.56-3.18.52-6.37,1.56-9.35l1.79-3.84c-.71,4-2.73,8.43-2.88,12.48Z"/>
        <path class="cls-52"
              d="M15.25,51.05v2.4s.48-1.68.48-1.68c.46-.02.49-.11.49.37,0,1.44-1.27,3.91-2.05,5.15-.65-.6,1.05-3.1.84-3.36l-1.05.71-1.1-1.91,1.68,12.96c-.69.13-.39-.19-.54-.52-1.21-2.59-1.55-6.12-1.62-8.96,0-.21.1-.86-.24-.47-.49,3.89,1.35,7.46,1.43,11.25,1.64.43,2.39,2.92,1.34,4.22-.43-.72-1.75-.88-1.93-1.65-.11-.47.51-1.18.38-1.79-.07-.32-.13-.3-.26-1.2-.77-5.3-2.37-8.97-.25-14.25.1-.26-.07-.74.12-1.04l2.3-.23Z"/>
        <path class="cls-52"
              d="M12.84,34.25c1.49,5.09,3.77,10.62,1.56,15.83-.45,0-1.06-2.18-1.2-2.64-1.18-3.86-3.12-9.83-.36-13.2Z"/>
        <path class="cls-52"
              d="M23.65,67.37c-.38-2.5.74-4.88,1.13-7.39.16-1.04.33-2.11.31-3.17-.29-.39-.44,0-.48.35-.16,1.28-.06,2.64-.3,4.02-.07.37-1.26,4.99-1.61,4.5-.08-4.04.75-8.09,1.52-12.04.06-.31.03-1.16.4-1.16.07.55-.11,1.23.01,1.75.04.17.4.17.45.36.41,1.49.38,4.34.26,5.93-.19,2.4-1.29,4.67-1.2,7.08-.05.07-.33-.18-.48-.24.35,2.28,1.05,2.59-1.68,3.84-.41-1.11-.3-1.99.2-3.04.45-.97.4-1.21,1.48-.8Z"/>
        <path class="cls-52" d="M15,64.73l-.73-6.11c.21-1.02.61-2.33,1.45-3.01.87,3.3.25,5.96-.72,9.12Z"/>
        <path class="cls-52"
              d="M21.72,55.61c1.64,2.79.79,5.83.48,8.88l-1.2-3.96c-.05-1.52.03-3.06.25-4.56.05-.33.1-.73.47-.36Z"/>
        <path class="cls-52"
              d="M16.21,46.01c-.79-3.86-1.61-7.7-2.64-11.52l1.86,4.02c.34.98,1.5,4.43,1.5,5.22v3.48h-.48c.26-.53-.22-1.1-.24-1.2-.19,1.5.43,3.48-.36,4.8-1.24,0-.02-5.36-.36-6.23l.72,1.44Z"/>
        <path class="cls-52"
              d="M17.17,40.49c.18-.09.66-.56.72-.48l-.48,4.32-.65-2.81c.01-.34.33-.63.41-1.03-.3.15-.34.37-.59,0l-3.01-7.43c.48-.09.68.32.95.61,1.56,1.64,3.09,4.61,2.65,6.83Z"/>
        <path class="cls-52" d="M20.52,40.73c-1.46-.71-.64-2.29-.18-3.42.63-1.55,1.71-3.26,3.06-4.26l-2.88,7.68Z"/>
        <path class="cls-52"
              d="M14.29,71.93l.72-.25c.19.87.36,1.71-.36,2.4l-.36-1.44-.62,1.21c-.81.02-1.68.07-2.24-.61l1.69-2.51c.72,0,1.26.44,1.18,1.19Z"/>
        <path class="cls-52"
              d="M23.59,54.35c-.62.67-1.32-.25-1.38-.18l.96,3.12c-.42.55-2.69-4.9-2.16-5.52l.72,1.2.23-1.81,2.31.12c.23.31-.43,2.81-.68,3.08Z"/>
        <path class="cls-52"
              d="M23.18,73.83l-.26-1.66c-.43-.05-.23.54-.21.81.05.65.68,1.52-.51.95-.25-.81-.3-1.44,0-2.24l.72.24-.13-.73.94-.45,1.83,2.49c-.59.71-1.56.66-2.39.59Z"/>
        <path class="cls-52"
              d="M13.57,50.33c-.62.12-.42-.13-.6-.47-1.43-2.65-1.6-5.21-1.8-8.17.46.08.4.5.49.83.32,1.1.47,2.38.78,3.54.38,1.42,1.16,2.79,1.13,4.27Z"/>
        <path class="cls-52" d="M19.57,44.33l-.24-4.32c1.21.89,1.06,2.15.72,3.48-.09.33,0,.75-.48.84Z"/>
    </g>
    <g class="body-part" data-part="Qafa">
        <path class="cls-22" d="M19.81,8.81c-.45.69-.58,1.58-.94,2.3-.13.25.12.45-.5.34l-.96-2.64h2.4Z"/>
        <path class="cls-22"
              d="M18.13,12.89c-.62.12-.42-.13-.6-.47-.59-1.09-1.16-2.6-1.08-3.85,1.13.88,1.71,2.9,1.68,4.32Z"/>
        <path class="cls-22"
              d="M23.17,12.17c.7.69-1.99.46-2.16.48l-.24-.96c-.04.68-.31,1.02-.96,1.2l.87-1.91,2.49,1.19Z"/>
        <path class="cls-22" d="M18.85,12.89c-.28-.32,1-4,1.68-4.32.02.5.03,1-.06,1.5-.05.28-1.07,3.45-1.62,2.82Z"/>
        <path class="cls-22" d="M16.21,10.97l-.22,1.57-1.93.1c-.14-.55.1-.39.3-.55.21-.16,1.74-1.26,1.86-1.13Z"/>
    </g>
    <g class="body-part" data-part="Gishtat">
        <g>
            <path class="cls-42" d="M3.25,39.29c.14.15-.77,2.44-.95,2.77s-.2.69-.73.59c-.13-.15,1.11-3.99,1.68-3.36Z"/>
            <path class="cls-42"
                  d="M.61,41.45c.17-.75.62-1.58,1.01-2.24.15-.26.1-.81.55-.64.53.2.31.5.14.85-.28.59-1.17,1.59-1.69,2.02Z"/>
            <path class="cls-42"
                  d="M3.48,42.89c-.43,0-.26-1.04-.23-1.31.03-.35.28-2.03.6-2.04.49-.02.17.69.15.86-.11.84-.32,1.67-.51,2.5Z"/>
            <path class="cls-42" d="M.15,38.23c-.51.87.41.78,1.03.2.47-.45.75-1.29.83-1.92-.24.43-1.8,1.62-1.86,1.73Z"/>
            <path class="cls-42"
                  d="M4.83,42.67c-.2-.74-.34-1.31-.31-2.07.01-.3-.3-.76.18-.82.56-.07.35.56.37.95.03.65.02,1.31-.24,1.95Z"/>
        </g>
        <g>
            <path class="cls-42"
                  d="M34.42,39.31c.14.1,1,2.86.98,3.34-.64-.61-1.42-2.17-1.67-3.01-.15-.49.5-.45.69-.33Z"/>
            <path class="cls-42" d="M36.61,41.45c-.38.38-1.98-2.32-2.16-2.64h.83s1.33,2.64,1.33,2.64Z"/>
            <path class="cls-42"
                  d="M37.03,38.14c.51.87-.41.78-1.03.2-.47-.45-.75-1.29-.83-1.92.24.43,1.8,1.62,1.86,1.73Z"/>
            <path class="cls-42"
                  d="M32.14,42.54c-.16-.75-.27-1.33-.2-2.09.03-.3-.26-.78.23-.81.56-.04.32.58.32.97,0,.65-.05,1.31-.34,1.93Z"/>
            <path class="cls-42"
                  d="M34.06,42.84c-.4.18-.66-.84-.75-1.1-.12-.33-.58-1.96-.29-2.1.44-.22.44.56.48.72.24.81.39,1.66.56,2.49Z"/>
        </g>
    </g>
    <g class="body-part" data-part="Koka">
        <path class="cls-32"
              d="M21.7,4.99l-1.19-3.25h-3.85s-.35.38-.35.38l-.82,3.39C15.08,3.01,14.76.2,18.04.01c3.46-.2,4.32,1.95,3.66,4.98Z"/>
        <polygon class="cls-32"
                 points="15.5 5.59 16.45 8.57 17.41 8.81 19.81 8.81 20.52 8.57 21.69 5.06 20.54 1.72 16.68 1.73 16.34 2.1 15.5 5.59"/>
    </g>
    <g class="body-part" data-part="Sytë">
        <polygon class="cls-22" points="18.07 4.5 16.59 4.5 16.46 4.17 16.59 3.84 18.07 3.84 18.2 4.17 18.07 4.5"/>
        <polygon class="cls-22" points="20.6 4.5 19.11 4.5 18.99 4.17 19.11 3.84 20.6 3.84 20.73 4.17 20.6 4.5"/>
    </g>
    <g class="body-part" data-part="Veshët">
        <polygon class="cls-42" points="15.57 6.29 15.07 6.4 14.64 5.29 14.67 4.61 15.18 4.5 15.57 6.29"/>
        <polygon class="cls-42" points="21.35 6.38 21.84 6.54 22.38 5.48 22.42 4.8 21.93 4.64 21.35 6.38"/>
    </g>
    <g class="body-part" data-part="Hunda">
        <path class="cls-52" d="M18.34,5.01h.54v1.26c0,.15-.12.27-.27.27h0c-.15,0-.27-.12-.27-.27v-1.26h0Z"/>
        <circle class="cls-52" cx="18.88" cy="6.09" r=".26"/>
        <circle class="cls-52" cx="18.34" cy="6.09" r=".26"/>
    </g>
    <g class="body-part" data-part="Goja">
        <!-- Clickable area -->
        <rect x="16.5" y="6.8" width="4.2" height="2.0" fill="transparent" pointer-events="all"/>

        <!-- Actual mouth -->
        <rect class="cls-42" x="17.63" y="7.6" width="1.9" height=".35"/>
    </g>
</svg>