<?xml version="1.0" encoding="UTF-8"?>
<svg id="Layer_1" xmlns="http://www.w3.org/2000/svg" version="1.1" viewBox="0 0 190.3 415.4">
  <defs>
    <style>
      .st0 {
        fill: #fff;
      }

      .st1 {
        font-size: 8.3px;
      }

      .st1, .st2, .st3, .st4, .st5, .st6 {
        fill: #9b3f3f;
        font-family: "Patrick Hand", cursive;
      }

      .st2 {
        font-size: 10.3px;
      }

      .st3 {
        font-size: 6.3px;
      }

      .st4 {
        font-size: 9.3px;
      }

      .st7 {
        fill: #f37879;
      }

      .st5 {
        font-size: 7.3px;
      }

      .st6 {
        font-size: 11.3px;
      }

      .district path {
        stroke-width: 0.6;
        cursor: pointer;
        transform-box: fill-box;
        transform-origin: center;
        transition: fill 0.15s ease;
      }

      .district:hover path {
        fill: #9A3F3F;
        animation: inflatePop 0.22s cubic-bezier(0.2, 0.8, 0.2, 1) forwards;
      }

      .district.active path {
        fill: #1e40af;
        transform: scale(1.05);
      }

      .district:hover .st1,
      .district.active .st1 {
        fill: #ffffff;
      }

      .district:hover .st2,
      .district.active .st2 {
        fill: #ffffff;
      }

      .district:hover .st3,
      .district.active .st3 {
        fill: #ffffff;
      }

      .district:hover .st4,
      .district.active .st4 {
        fill: #ffffff;
      }

      .district:hover .st5,
      .district.active .st5 {
        fill: #ffffff;
      }

      .district:hover .st6,
      .district.active .st6 {
        fill: #ffffff;
      }

      @keyframes inflatePop {
        0%   { transform: scale(1); }
        70%  { transform: scale(1.18); } /* stronger pop */
        100% { transform: scale(1.10); } /* larger settle */
      }

      .city {
        cursor: pointer;
        pointer-events: all; /* ensure it’s clickable */
      }
    </style>
  </defs>
  <path id="path3001" class="st7" d="M94,403.6c-2.9-.5-2.4-.2-6.3-3.1-.9-.6-5.8-2.5-6.7-2.5-.3,0-1,.2-1.5.4-1.2.5-2,.4-2.7-.5-1-1.1-1-2.6,0-4.4.2-.4.5-1,.5-1.3,0-.4-.1-.6-.9-.9-1.5-.7-1.8-2.2-.5-3.2,1.4-1.1,1.5-1.2,1.6-2.7.2-1.7.4-2.6,1-3.9.3-.7.5-1.4.6-3.2v-2.2c.1,0-.4-.2-.4-.2-.3-.1-1-.2-1.5-.2-1.5,0-2.2-.4-2.8-1.5-.8-1.7-1.7-2.3-3.8-2.8-1.6-.4-2.1-.9-2.1-2.2,0-.9,0-1,1.3-2.1.7-.6,1.3-1.3,1.3-1.4,0-.4-6.6-12.4-7.1-12.8-.7-.6-1.6-.8-3.4-.8-1.9,0-2.4-.2-3.1-1.5-.4-.7-.5-.7-1.2-.8-.7,0-.9-.1-2-1.2-1.1-1.1-1.2-1.3-1.5-2.4l-.3-1.1-1.6-.5c-1.4-.4-2-.8-3.6-2-.2-.1-1-.4-1.8-.5-1.3-.3-1.8-.5-3.6-1.7-1.2-.8-2.5-1.6-3.1-1.9-.5-.3-1.4-.9-1.9-1.4-1.3-1.2-1.6-1.4-4.7-2.7-2-.9-3.2-1.5-4.9-2.7-2.9-2.1-3.1-2.3-5.3-5.3-1-1.4-2.1-3-2.5-3.5s-1.1-1.2-1.6-1.6c-2.2-1.6-2.5-2.2-3-5.8-.3-2.2-.9-3.4-3.2-6.4-3.3-4.4-4.4-5.9-4.4-6.2,0-.4,1.1-1.3,2.5-2.3,1.4-.9,1.6-.9,3.6,0,1.8.8,4.6,3.7,5.6,5.6.4.8.7,1.8.8,2.3.2,1.6,1.2,4.5,1.7,5.1.4.5.6.6,1.2.6.8,0,1.3-.3,2.1-1.5.6-.8.6-.9.6-3.2s.1-3,.4-4.2c.2-1,.4-2.6.5-3.4v-1.5c.1,0-2.3-2.5-2.3-2.5-1.3-1.4-2.8-2.9-3.2-3.4-.4-.5-1.4-1.4-2.1-2-1.1-1-1.4-1.3-1.4-1.7,0-.7.9-1.4,2.1-1.8,1.1-.3,1.9-.2,2.9.6.3.3.7.5.8.5s.2-1.2.3-2.6c.1-2.4.1-2.6-.2-2.9-.5-.5-2.4-1.2-3.3-1.2h-.8s-.1,1.1-.1,1.1c-.3,2.1-1.2,2.7-2.1,1.3-.2-.4-.8-1.2-1.3-1.9-.5-.7-1.1-1.8-1.4-2.7-.8-2.1-1-2.5-2.3-4-1.4-1.6-1.8-2.4-2.2-3.9-.3-1-.3-1.1.1-1.8.2-.4.9-1.2,1.4-1.7,1.6-1.4,2.5-2.3,2.9-3.1.4-.8.4-1,.5-6.6,0-4.8.2-5.9.4-6.5.3-.7,1.3-1.4,2.8-2.1.9-.4,1.1-.8.7-1.3-.4-.6-.7-2-.4-2.7.1-.3.5-1,.9-1.6.4-.6.7-1.2.7-1.5,0-.5-.7-1.1-1.6-1.4-1.1-.3-1.9-1.1-2-2-.2-1.7.6-2.7,2.2-2.7s.8,0,1.2-.8c.3-.4.7-.9,1-1.1.5-.3.5-.3,1.7.3,1.9,1,2.1,1.3,2.1,3.1v1.6s1.1.1,1.1.1c1.1.1,1.1.1,1.9-.6.6-.5,1.2-.8,2-1.1l1.1-.3v-2c.3-2.8-.2-6-.8-6s-.4.1-1.7,2.5c-1,1.8-1.4,2.2-2,1.8-.6-.3-.6-.9-.5-4.3,0-1.7,0-3.2,0-3.4,0-.2-.6-.5-1.2-.8-.6-.3-1.2-.6-1.4-.8-.5-.5-.4-1.4.4-2.8l.7-1.3v-3.7c.2-4.1,0-5.9-.8-8.1-.7-2-.3-3.2,1-3.8.8-.3,1-.7,1.9-3,.7-2,1.5-3.6,3.2-6.3.7-1.2,1-1.9,1.1-2.9.2-1.2.2-1.4-.3-2.7-.7-2-1.4-2.8-2.8-3.5-.9-.5-1.6-.6-3-.7-2-.2-2.5-.4-3.3-1.5l-.5-.7v-3.5c0,0-.1-3.5-.1-3.5l-.7-1c-1.6-2.1-1-3.8,1.1-3.2,1.3.4,2.2.3,2.8-.3.5-.5.5-.6.5-2.2,0-1.9,0-2,1.8-2.9,1.6-.9,2.8-1.9,3.2-3.1.2-.5.5-1.4.8-2.1.3-.7.5-1.8.6-2.6.2-1.9,0-2.3-2.4-3.5-1-.5-1.9-1.1-2.1-1.3-.3-.4-1.5-4.2-1.5-4.9s.7-1,1-.9c.1,0,1.4.5,2.9,1,3.1,1.1,3.6,1.1,5.5.3,2-.9,5-3.6,5-4.6s-.6-1.6-1.6-2.3c-1.1-.7-1.7-1.4-1.9-1.9,0-.3.3-1.5.9-3.3.6-1.6,1-3.1,1-3.3s-.1-.9-.3-1.6c-1.2-5.2-1.2-5.2-.8-5.7.2-.3.7-.6,1.1-.7,1.1-.3,1.4-.8,1.5-2.9v-1.8c0,0-.4-.1-.4-.1-.3,0-1.2-.6-2-1.1-.8-.5-2.5-1.5-3.7-2.2-3.5-1.9-4.3-2.3-4.5-2.5-.5-.4-2.5-1-3.5-1.1-1-.1-1.4,0-2.6.4-3.2,1.1-4.5,1.2-5.2.5-.3-.3-.3-.5,0-2.5.2-1.2.3-2.3.3-2.5,0-.3-.4-.7-1.5-1.5-1.9-1.4-1.9-1.6-.5-3.1l1.1-1.1-.8-.9-.8-.9v-1.6c.1-.9.2-1.7.4-1.8.1-.1.7-.3,1.4-.3,1.2,0,1.3-.2.9-1.2-.2-.5-.2-.8.2-1.7l.4-1.1-.6-1.2-.6-1.2.5-3.4c.7-4.4.8-4.9,1.4-5,.5,0,2.1.3,5.8,1.3,2.1.5,3.1.7,3.1.5s.2-1.2.4-2.6c.4-2.3.4-2.6,0-3.8-.4-1.7-.9-2.5-2.1-3-1.3-.6-1.6-1.1-2.3-2.8-.7-1.9-.9-2.1-2.3-2.8-1.6-.8-2.6-1.9-3.3-3.9-.7-1.7-.8-3.5-.4-5,.2-.8,3.1-5.4,4.3-6.8.8-.9,1-1.8.6-2.3-.9-1-1.3-3.1-.7-3.7.1-.1.2-.5.2-.9,0-1.6,1.5-3.4,3.5-4.3,1.2-.5,1.2-.6,3.1-4.1,1.2-2.1,1.6-2.7,2.3-3.2,2.2-1.6,3.5-3.5,4.4-6.6.8-2.8.8-2.8,2.6-3.7.8-.4,1.7-1,2-1.4.4-.5.5-.7.5-2.1s0-1.8.2-2.2c.1-.4,1.2-2.2,2.5-4.1l2.3-3.5,1.2-.6c1-.5,1.4-.8,2.3-2,1.8-2.4,2.8-2.6,4.6-.8.6.6,1.4,1.4,1.8,1.7.6.6.7.7.7,1.9s0,1.4.8,2.6c1.3,2.2,1.1,3.7-.5,4-.6.1-.7.2-.6.8,0,.4,0,1.4-.1,2.2-.1,1.4,0,1.6.4,2.6.3.6.6,1.7.7,2.4s.3,1.5.4,1.7.7.5,1.3.8c.6.3,1.7,1,2.5,1.5s1.5,1,1.6,1c.1,0,.4-.2.6-.5.3-.3.7-.5,1.3-.6.6,0,1.1-.3,1.6-.8.6-.5.9-.7,1.4-.6.5,0,.7,0,.8-.4.2-.5.6-.8,2.2-1.8,1.8-1,2.3-1.2,2.9-1,.3.1,1.4.2,2.5.2h2.1l.4-1.3c.6-1.7.8-2.1,1.7-2.5.4-.2,1.2-.7,1.7-1.1,1.6-1.3,2.5-1.5,4.1-.7,1.1.6,1.5,1,2.2,2.6l.6,1.2,2.9,1.4c1.6.8,3.1,1.5,3.3,1.7.2.2,1,1.9,1.8,4,1.3,3.2,1.6,3.8,2.5,4.9.7.8,1.1,1.5,1.3,2.1.4,1.3.4,1.4-.2,2.5-.3.5-.5,1-.5,1.1s.6.8,1.3,1.5l1.3,1.3v2.3c0,1.2,0,2.6.1,3l.2.8h1.9c1.1.1,2.4.3,3,.4,1,.2,1.1.2,1.9-.3,1.7-1.1,3.6-.5,4.3,1.3.3.8.4.9,1.2,1.1.7.2,1.1.5,2,1.4,1.1,1.1,1.2,1.2,3,1.6,1.2.3,2.1.6,2.3.8.6.5,6.9,8.4,7.4,9.2.3.5.4,1,.4,2,0,1.3,0,1.4,1.4,3.9,2.6,4.8,2.6,4.9,2.4,6-.2.7-.1,1.1,0,1.8.2.8.2,1,0,1.7-.6,1.4-.4,1.9,1.1,3.6,1.3,1.4,1.5,2.2,2.4,6.4.5,2.2,1,4.6,1.3,5.2.6,1.6.7,2.8.2,4-.3.8-.5,1-1.4,1.5-1.7.9-1.9,1.2-1.9,2.5,0,.6.1,1.7.3,2.5.3,1.7.3,1.7-1.3,2.7-.6.4-1,.8-1.1,1.1-.2.9,0,5.9.4,6.9.2.6.3,1.4.4,1.8,0,1-.5,1.6-2,2.2-.9.3-1.2.5-1.4,1.1-.5,1.1-1.2,4-1.3,5.4-.1,1.2,0,1.4.5,2.4.8,1.5.9,2.7.4,4.6-.6,2.3-.6,2.6.9,5.8,2.1,4.6,2.1,4.6,1.9,5.7-.2,1-.5,1.3-1.7,1.8-.5.2-1.1.6-1.4.9-.4.4-1.3.8-3,1.4l-2.4.8v.7c0,.4-.2,1.1-.4,1.7-.5,1.8-.2,2.5,1.9,4.2.7.6,1,1,1.6,2.6.4,1,.9,2.4,1.1,3.1.3,1.4.4,1.5,1.8,2.2.9.4,1.2.8,2.2,2.2.7,1,1.2,1.9,1.2,2.2,0,.9-.8,3.7-1.3,4.6-1,1.8-2.1,3.6-2.5,3.9-.3.3-.5.3-1.2.1-.7-.2-.9-.2-1,0-.3.5-.2,2,.6,5.1.4,1.7,1,4.4,1.3,6,.5,2.5.7,3.2,1.8,5.3,1,2.1,1.4,2.7,2.8,4.2,1.4,1.6,1.7,2,2.3,3.5.8,2.2.8,2.6,0,3.3-.4.3-.7.7-.7.7,0,0,.3.6.6,1.2l.6,1h1.9c1.7.2,2,.2,2.3.6.3.3.3.6.2,1.5v1c-.1,0,.7.5.7.5.7.4.8.6.9,1.3.2,1.4-.1,2.3-1,2.6-.4.1-.4.3-.4,1.3,0,1.6.4,4,.8,4.8.5,1,.8,2.7.7,3.8,0,.6-.2,2-.2,3.3-.1,2,0,2.3.3,2.8.6.8,1.5,1.2,3.5,1.3,1.4,0,2.1,0,2.9-.2,1.1-.3,1.2-.3,4.4.2,2.3.4,3.3.5,3.5.3.2-.1,1-1.1,1.7-2.3,1.1-1.6,1.5-2.1,1.9-2.1.3,0,1.4.4,2.9,1.1,2.5,1.2,3.1,1.3,4.6.9.9-.2,1.8,0,3.5.7,2.6,1.1,3.6,2.6,2.5,3.9-.9,1.1-1.7,1.3-3,.7-.2-.1-.4-.2-.5,0-.2.2.2.7,1.3,2,1.7,1.9,1.8,3,.4,3.8l-.7.4v1.5c0,1.9-.3,2.5-1.6,3.7-1.4,1.2-1.4,1.2-1.4,2.1,0,.9.2,1,.6.3.1-.3,1-1,2-1.6,2.3-1.5,2.5-1.5,3.1-1.1.4.3.4.5.4,1.7,0,1.2,0,1.4-.5,1.9l-.5.6.7.8c.5.6.7,1,.8,1.7.2,1.7.2,1.7,1.4,2.5,1.8,1.2,4,3.5,5,5.3.9,1.8,1.2,4.6.7,6.2-.2.6-.3,1.2-.2,1.9,0,.7,0,1.4-.2,2.1-.2.6-.4,2.4-.6,3.9-.3,3.2-.4,3.3-1.8,3.9-1.2.4-1.6.9-2,2-.4,1-1.2,1.9-1.8,1.9s-.6.2-.9.4c-.4.3-.5.5-.5,1.3,0,1.5,0,1.6-.7,2.5-.4.5-.9,1.3-1.2,1.9-.5,1.4-1,1.7-2.4,2.2-1.4.5-2.1.4-3.3-.5-.7-.5-1.5-.6-4.7-.9-.4,0-.6.1-.9.7-.2.4-.5,1.1-.5,1.5-.2,1.1-.9,1.7-2.4,2.3-.7.3-1.4.6-1.5.8-.1.2-.2,1.1,0,3,.2,5.2.3,4.7-.8,6.5-.6.8-1.2,1.7-1.5,1.9-.5.3-.5.5-.5,1.8,0,1.9-.3,2.6-1.3,2.8-1.1.2-1.3.4-1.6,1.2-.1.4-.6,1.1-1.1,1.6-.8.8-.8.8-.8,2,0,.6.1,1.6.3,2,.4,1.1.4,3.5,0,4.9-.2.9-.4,1.2-1.7,2.4l-1.5,1.4v1.2c0,.6.1,1.5.3,2,.2.7.2,1-.1,2.1-.2.7-.4,2.3-.5,3.6v2.4c-.1,0-1,.7-1,.7-1.1,1-1.8,1.3-3.1,1.3s-1.2.1-2.5.9c-2.6,1.5-2.9,1.6-4.6,1.9-2.5.4-2.8.4-4.5-.5l-1.5-.8-1.3.9c-1.2.8-1.4.9-2.1.8-.4,0-1-.3-1.2-.4-.8-.4-1.1-.3-2.8.8l-1.6,1v.9c0,1.3-.3,2.1-1,2.9-.6.7-.7.8-.7,2s0,1.4-.4,1.8c-.4.4-.4.4-4,.5-2.4,0-3.6.1-3.6.3s.5.9,1.1,1.8l1.1,1.6v4.7l1.1,1c.8.7,1.1,1.2,1.3,1.7.1.4.4,1,.7,1.4.3.3.8,1,1,1.6s1,1.5,1.6,2.2c.8,1,1.1,1.6,1.5,2.7.5,1.7.6,2.1.3,3.6-.3,1.4-.8,2.3-1.9,3.2-1.5,1.3-2.8,1.4-4.3,0-.8-.6-4.5-1.9-5.1-1.8-.6.1-.6.6-.2,1.2.2.2.3.8.3,1.2s-.1,1-.3,1.2-.3.6-.3.7.6,1.2,1.4,2.3c.8,1.1,1.4,2.2,1.5,2.3,0,.2,0,.6-.2,1.1-.3.7-.6.9-2,1.7-2,1.1-2.3,1.4-3,2.8-.4.8-.5,1.3-.5,2.2s0,1.2-.4,1.5c-.5.3-.9.2-1.7-.3-1.2-.8-2.4-.1-2.4,1.4s-.1,1-.2,1.2c-.6.8-3,.9-6.8.2h0ZM98.9,402.2c.1,0,.3-.5.3-.8,0-.5.4-.9.9-1.4,1.3-1.2,1.8-1.4,3.1-1.1.6.1.6.1.8-.7.1-.5.5-1.4.9-2,.6-.9,1-1.3,1.8-1.8,2.2-1.3,2.7-1.7,2.8-2,0-.2-.6-1.2-1.4-2.3-1.6-2.2-1.7-2.5-1-3.8l.4-.8-.4-.7c-.5-.8-.6-2-.2-2.5.1-.2.5-.4.8-.6.6-.3.8-1,1-2.7v-1.2c.1,0-1-1.2-1-1.2-.9-1.1-1.2-1.2-1.7-1.2s-.8.1-1.2.6c-.4.5-.9.7-2.5,1.1-2,.5-2,.5-2.9.2-1-.4-1.5-1-2.2-2.6-.6-1.4-1-1.7-2.2-1.7s-2.1.4-2.4.9c-.1.2-.2.7-.2,1.2,0,.4,0,.9-.2,1.1-.3.4-2.2.4-3.1,0l-.7-.4-1.1.7c-1.6,1-2.1.9-4.1-1-1.2-1.2-1.7-1.8-2.6-3.4-.6-1.1-1.5-2.5-2.1-3.2l-1-1.3v-1.8c.3-3.1.2-3.7-1.3-5.7-.7-.9-2.1-2.6-3.1-3.7-2.6-2.8-3.5-4.8-3.8-8.9-.1-1.1,0-1.5.4-2.8.8-2.3.5-3.2-1.3-4.5-1.3-1-2.1-1.3-3.2-1.1-.9.1-.9.2-1.3,1.1-.5,1.1-.5,2.2-.1,4,.6,2.9.5,5-.2,6.1-.4.6-.3.7.4,1.1,1.1.6,1.5,1.2,3.7,5.1,1.1,2.1,2.7,5,3.5,6.4s1.4,2.8,1.4,3.1c0,.7-.3,1.2-1.5,2.3-1.3,1.3-1.4,1.6-.3,1.9,2.4.6,3.5,1.3,4.5,2.9l.7,1.1h1.3c2.4.4,3.3.9,3.5,2.3,0,.4,0,1.7,0,2.9-.1,1.7-.3,2.3-.7,3.1-.4.7-.6,1.5-.8,3-.3,2.6-.5,2.9-1.4,3.5-.4.3-.8.6-.9.8,0,.1.3.4.8.5.6.2.9.5,1.1.8.3.8,0,2.2-.6,3.4-.7,1.3-.7,2.2-.2,2.5.2.1.6,0,1.5-.3,1.4-.6,1.4-.6,5.4.9,2.4.8,2.8,1.1,5.6,3.1.8.6,1.7,1.1,2,1.1.3,0,1.3.2,2.2.4,1.8.3,3.8.4,4.1.2h0ZM117.1,383.7c.3-.2.7-.7,1-1.2.4-.7.5-1.1.5-2.3,0-1.9-.4-3.1-1.6-4.4-.5-.6-1.3-1.6-1.6-2.3-.4-.6-.8-1.3-1-1.4s-.5-.6-.6-1.1c-.2-.6-.7-1.2-1.4-2-1.3-1.3-1.6-2-1.3-3.2,0-.4.2-1.2.2-1.8,0-1,0-1.2-1.1-2.7-1.2-1.7-1.5-2.5-1.1-3.3.4-.9.9-1,4.5-1h3.3s0-1.1,0-1.1c0-.9.2-1.3.8-1.9.6-.7.7-1,.8-2.2,0-1,.2-1.5.5-1.8.5-.6,3.8-2.8,4.4-3,.7-.2.7-.4,0-1.4-.3-.4-.9-1.5-1.4-2.4l-.9-1.7-1.7-.9c-5.5-2.9-6-3.2-6.4-4.2-.1-.3-.2-1.3-.3-2.4-.1-2.1,0-1.9-1.7-1.7-.6,0-.8,0-2-1-1.6-1.3-5-3.9-6.6-4.9-1.2-.8-1.2-.8-2.5,0-.4.2-1.1.4-1.8.5-1,0-1.3.2-1.9.8-.8.7-.7.7-2.8.3-.5,0-1,0-2,.5-1.5.7-2.9.9-7.8,1.1-3.3.2-3.2.1-4.2,2.9-.9,2.6-1,2.6-3.7,2.1-1.1-.2-2.6-.5-3.5-.6-1.4-.1-2.7-.4-4.2-.7-.8-.2-.8,0,0,1.6.3.7.7,1.7.8,2.3.2.9.4,1.2,1.3,2.1,1.1,1.1,1.5,1.9,2.7,5.4.7,2.2,1.4,3.7,1.8,4.2.6.6,1.4.6,2.3-.1.9-.7,1.5-.8,3.1-.5.7.2,1.9.4,2.7.5.8.1,1.6.3,1.7.4.2.1,1.4,1.5,2.7,3.1s2.7,3.4,3.2,4,1.4,1.7,1.9,2.4c1.1,1.4,1.2,1.5,6.1,4.3,1.8,1.1,3.4,2.1,3.5,2.3s.2.8.2,1.4c0,1.5.4,2.2,2,3.6,1.5,1.3,1.8,1.9,1.6,2.8,0,.6,0,.6.8.7.8.1,1,.3,2.2,1.5.7.7,1.3,1.6,1.4,1.9s0,1.2,0,2.1-.1,1.6,0,1.7c0,0,1.1.5,2.3.9,1.3.4,2.4,1,2.8,1.3.8.7,1.4.7,2.1.3h0ZM102.7,375.6c1.2-.4,1.4-.6,1.5-1.9v-1.1c.1,0-1.3-1.4-1.3-1.4-1.7-1.6-2.2-2.6-2.3-4.2,0-1.3.3-1-4.6-3.8-3.5-2-3.6-2.2-4.7-3.6-.6-.8-1.4-1.8-1.8-2.3s-1.7-2-2.9-3.6c-2.6-3.2-2.7-3.4-3.3-3.5-.2,0-1.5-.3-2.7-.5l-2.3-.4-.5.4c-.3.2-.9.6-1.3.8-.8.4-.9.4-1.7,0-1.1-.4-1.9-1.5-2.7-3.9-1-3.1-1.6-2.2-1.1,1.7.4,2.9,1.1,4.6,2.8,6.4,1.7,1.8,3.4,3.8,4.3,5,1,1.5,1.3,2.5,1.1,5.1v2c-.1,0,.9,1.3.9,1.3.6.7,1.4,2,1.8,2.9.7,1.3,1.1,1.9,2.3,2.9.8.7,1.6,1.3,1.8,1.3s.6-.2.9-.4.8-.6,1.2-.7c.6-.2.7-.2,1.5.2,1.1.5,1.5.4,1.6-.4.2-1.2.7-1.8,1.9-2.2,1.8-.7,3.8-.4,4.4.5.2.3.6,1,.8,1.6.7,1.7.9,1.8,2.2,1.8s1.5-.1,2.1-.3h0ZM62.5,349.6c.5-.7.5-.9.5-2.7,0-1.1-.2-2.4-.3-3.1-.4-1.7-.4-2.7.2-4.4.6-1.8.8-1.9,2.9-2,1.2,0,1.4,0,1.5-.4,0-.4-.9-2.3-1.7-3.3-.3-.4-.8-1.2-1.2-1.9s-.9-1.7-1.3-2.2c-.6-.9-.9-2.1-1.3-4.6,0-.6-.3-1.1-.9-1.6-.4-.4-.7-.9-.7-1.1s.2-.5.5-.8l.5-.5-.6-.5c-.3-.3-.9-1-1.3-1.7-.8-1.3-1.7-2.2-3.3-3.2-1.9-1.2-2.9-2.8-2.5-3.9.2-.5,1.4-1.4,2.9-2.2,1.9-1,2.1-1.9,1-4.1-1.1-1.9-1.3-2.3-2.1-2.5-1.3-.4-2.1-1.1-2.5-2-.4-.9-.3-1.3.6-4.3.2-.7.4-1.6.3-2.1,0-.8-.1-.9-.6-.9-.3,0-.7,0-.9.1-.5.3-1.7,0-2.2-.6-.5-.6-.4-1.1.3-2.2.6-.9.6-.9.3-1.3-.2-.2-.9-.5-1.7-.7-1.5-.4-5.3-2.3-5.9-2.9-.3-.3-.8-.4-2.3-.5-2.3-.2-4.8-1-5.8-1.9-.4-.4-.4-1,0-1.5.5-.6.3-.7-.9-.6-1.3.1-1.5,0-2.1-1.1-.5-1.2-1.7-2-2.7-2s-2-.7-2.1-1.7c-.2-1-.4-1.1-1.6-1.5-1.2-.4-1.7-.7-2-1.5-.4-.9-.5-.9-1.7.7-.3.4-.5.5-1.2.5-.7,0-.9-.2-2.1-1.2-1.7-1.6-2.7-2-4.2-1.7-1.1.2-2.7,1-2.8,1.5-.1.3.6,1.5,1.9,2.9,1,1.1,1.4,1.9,2.3,4.3.3.7.7,1.5,1,1.8l.5.4.3-.6c.7-1.4,2-1.5,4.8-.4,2.9,1.2,3,1.3,2.8,5.7,0,1.8-.2,3.4-.3,3.6s-.4.5-.6.7c-.6.4-1.3.1-2.2-.9-.7-.7-.9-.8-1.7-.8s-.9,0-.9.2c0,.2,1.8,2.1,6.1,6.4,2,2.1,2.6,3,2.6,3.9,0,.3-.2,1.6-.4,2.8s-.5,3.6-.5,5.3c-.1,2.8-.2,3.1-.6,3.9-.7,1.2-2.2,2.6-3.1,2.8-2.4.4-3.8-1.1-4.9-5.4-.2-.8-.4-1.7-.5-2.1-.3-2.2-4-6-6.5-6.7-.4-.1-2.2,1.1-2.2,1.5s1.3,2,3.3,4.6c2.4,3.1,3.4,4.9,3.8,7.2.2.9.3,1.9.3,2.2,0,1,.6,1.8,1.9,2.8,1.5,1.1,1.7,1.3,4.4,5.4,1.7,2.5,2.2,3.1,3.2,3.8.6.5,1.8,1.3,2.5,1.8.9.7,2.2,1.4,4.3,2.2,2.6,1.1,3.1,1.4,4.1,2.3.9.8,4.9,3.5,7.2,4.8.1,0,1,.3,2,.5,1.6.4,1.9.5,2.6,1.2.6.7,1,.9,2.5,1.3,2,.6,2.6,1.2,2.8,2.6,0,.6.3,1.1.7,1.6.6.7.7.7,1.6.8,1.1,0,1.4.3,2.1,1.6.3.6.4.6,1.7.6h1.3l.5-.8h0ZM127.5,346.9c.7-.5,1.4-.9,1.6-.9s1,.4,1.9.8l1.5.8,1.9-.2c2.6-.3,3.9-1,3.9-2s-.2-.5-.5-.6c-.4-.2-.6-.4-1-1.5-.9-2.3-1.8-3.2-5.5-5.7-.3-.2-1.2-.7-1.9-1.1-1.6-.8-1.9-1.2-1.9-2.2s.2-.9.9-1.8c.5-.6.9-1.1.9-1.2s-.2-.6-.4-1.2c-.2-.6-.5-2.2-.7-3.8-.3-2.6-.4-2.9-.9-3.4-.3-.3-.6-.8-.7-1s-.3-2.1-.6-4.3l-.5-3.9.5-1.3c.3-.7.4-1.4.4-1.5,0-.1-.5-.5-1-.7-1-.5-1.1-.6-2.2-3.9-.4-1.1-.4-1.3-.2-2.1.4-1.2.3-1.9-.2-2.7l-.4-.8h-2.3c-1.8.1-2.5,0-3.3-.2-1.4-.5-2.1-.3-4,1-2.3,1.5-2.2,1.3-1.5,2.6.4.8.6,1.3.5,1.6-.2.7-1.2,1.6-2.4,2-.6.2-1.5.7-2.2,1.2-.6.5-1.4.8-1.6.8s-1.1-.5-1.8-1.1c-1.2-.9-1.5-1.2-1.9-2.2-.8-1.8-1.1-2.1-2.6-2.6-1.6-.5-1.8-.8-2.6-2.8-.5-1.4-1.4-2.6-3.6-5.1-.7-.8-2-1.4-3.6-1.6h-.9c0-.1-.4,1-.4,1-.3,1-.3,1.1,0,1.7.4.8.2,1.1-1.3,2.4-.6.5-1.1,1-1.2,1.3,0,.2.2,1.8.7,3.6.4,1.7.9,3.8,1,4.5.2,1.3.2,1.4,1,1.9.4.3.9.7,1,1,.1.3.4.8.7,1.1s.4.7.4.8.5.7,1,1.3c.6.7,1.1,1.4,1.2,1.8,0,.4.2.7.3.9,0,.1.5.9.9,1.9.5,1.2.7,1.8.6,2,0,.2-.9.6-1.8,1-.9.4-1.6.8-1.7.9-.1.3,2.5,3.2,3.2,3.6.8.4.9.4,1.6-.3.5-.5.8-.6,1.7-.7,1.6-.1,1.9-.2,2.6-.8.4-.3.9-.6,1.1-.6.7,0,4.7,2.7,8,5.4.9.7,1.7,1.3,1.8,1.3s.5,0,.9-.2c.6-.2.8-.2,1.2,0,.9.4,1.2,1.3,1.2,3.3s0,1.8.4,2.1c.2.2,2,1.3,3.9,2.3l3.5,1.9.9,1.9c.5,1,1.1,2.2,1.4,2.5s.7,1.1,1,1.7c.3.6.7,1.2.8,1.2s.8-.4,1.5-.9h0ZM140.8,344.8c.5-.2,1.1-.4,1.8-.4,1.6,0,1.9-.4,1.9-2.2s.1-1.9.5-3c.5-1.6.5-1.7,0-4.3-.3-1.9,0-2.8,1.9-4.3.5-.4,1.1-.9,1.2-1.2.3-.6.3-4.1,0-5-.4-1-.4-3.3,0-3.9.1-.3.6-.8,1-1.1.5-.4.8-.9,1-1.4.3-1.1.7-1.5,1.7-1.7l.8-.2v-3.1l.9-.8c.5-.5,1.2-1.3,1.6-1.8.7-1.1.8-1.9.5-3.3-.1-.4-.2-2.1-.2-3.6,0-2.3,0-3.2-.4-4.5-.3-1.1-.3-1.9-.3-2.6.1-1,0-1.1-.4-1.4-.4-.3-.9-.3-4.2-.2h-3.8c0,.1-2.7,2.7-2.7,2.7-1.5,1.4-2.8,2.5-2.9,2.5s-1.4-.3-2.7-.7c-2.8-.8-2.6-.8-4.2.6-.6.6-.9,1.1-1.1,1.6-.3,1.2-.3,1.2-.7,1.4-.3.1-.7,0-1.7-.2-.7-.2-1.9-.5-2.5-.7s-1.7-.4-2.4-.6c-.7-.2-1.3-.3-1.3-.3s0,.4.1.7c.1.3.2.9.1,1.3-.4,2.2-.3,2.4.2,3.7.7,1.8.9,2.1,2.1,2.8,1.3.8,1.3.9.6,2.9l-.5,1.2.5,3.8c.3,2.1.5,4,.6,4.2,0,.2.3.5.6.6.6.4.8,1.1,1.1,4,.1,1.4.4,2.8.7,3.5.6,1.8.6,2-.5,3.1-1.4,1.3-1.3,1.7.8,2.8,3.6,1.9,6.6,4.6,7.4,6.8.3.9.4,1,1.4,1.3.3.1.5.4.6.8,0,.3.2.6.2.6s.4-.2.8-.4h0ZM78.2,331.8c.5-1.4.7-1.8,1.4-2.4,1-.9,2-1.1,6.4-1.2,2.8,0,3.6-.2,4.4-.5q1.8-.7-.1-2.7c-.7-.7-1.3-1.5-1.3-1.6-.2-.5.4-1,2-1.7.8-.3,1.6-.7,1.7-.9.1-.2,0-.6-.5-1.5-.4-.7-.7-1.5-.8-1.8,0-.3-.5-.9-.9-1.4s-1.2-1.6-1.7-2.4c-.7-1.2-1.2-1.7-1.7-2-.8-.4-.7-.2-1.3-3.8-.3-1.9-1.1-5.1-1.6-7.1,0-.3.3-.7,1.4-1.7,1.3-1.2,1.4-1.4,1.3-1.8-.1-.2-.5-.4-.9-.5-1.2-.2-1.6-.6-1.7-1.9-.1-1.2,0-1.2-1.7-.6-1,.4-1.4.3-2.9-.6-1-.6-1.2-.6-2.5-.6-1.2,0-1.5,0-2.4-.5-1.6-.8-1.8-.9-2.3-1.4-.3-.2-.6-.4-.7-.4s-.6.3-1.3.7-1.6.9-2.1,1.2c-.7.3-1.2.8-1.6,1.5-.4.7-1.1,1.3-1.8,1.7-.6.4-1.9,1.4-2.7,2.3-1.3,1.3-1.7,1.8-2.1,3-.3.9-.8,1.7-1.2,2l-.6.6.8,1.5c1.4,2.7,1,4-1.8,5.5-.8.5-1.7,1-1.9,1.2-.7.6-.3,1,3.2,3.8.7.5,1.5,1.4,2,2.2.5.8,1.2,1.6,1.7,1.9,1.1.8,1.2,1,.5,1.8l-.6.7.4.4c.5.6.7,1.1,1.1,3.3.3,1.5.5,2.2,1.1,3.2.4.7.9,1.5,1.1,1.7.6.7,1.8,1.1,4.3,1.5,1.4.2,3.4.5,4.3.7.9.2,2.1.3,2.6.3h.9s.6-1.7.6-1.7h0ZM107.1,307.4c.6-.4,1.5-.9,2.1-1.1,1.5-.5,1.6-.7.8-2.1-.7-1.3-.7-1.9,0-2.5,1.2-.9,3.1-2,3.9-2.5,1.1-.6,1.7-.6,2.9-.2.6.2,1.2.3,2.7.2,1,0,1.9-.2,2-.2,0,0-.2-.7-.5-1.4-.3-.7-.6-1.4-.6-1.5,0,0,.3-.7.7-1.3.6-1,.7-1.2.7-2.8s0-1.9-.4-2.4c-.6-1.2-.6-1.7,0-3.9.9-3.2,1-3-1.8-3.7-1.7-.5-2.5-.7-2.9-1.1-.7-.7-1.1-1.4-1.1-2.2,0-.7-.2-.9-3.2-5.2-.9-1.2-1.7-2.4-1.7-2.6s-.6-1.4-1.1-2.7l-1-2.3h-3.7c-4.3.2-4.4.2-4.9-1.5l-.3-1h-1.5c-1.1,0-1.7-.1-2.5-.4l-1-.4-.3.4c-.4.4-.7,1.9-.7,2.9s.2,1.2.5,2.1c.3.8.6,2.4.8,3.5.4,2.4.2,3.1-.8,4.2-.7.9-1.3,1.1-3,1.3-2.9.3-4.5.6-4.5.7s.5.7,1,1.3c1.2,1.2,1.4,1.7,1.6,4.6.1,1.7.3,2.5.9,4,.8,2.2.8,2.4-.2,3-.6.4-1.1,1.1-1.1,1.6s.4.5,2.1.9c.8.2,1.6.4,1.8.6.2.1,1.3,1.3,2.4,2.6,1.6,1.9,2.1,2.6,2.5,3.6.6,1.8.8,1.9,2.5,2.5l1.5.5,1,1.8c.8,1.5,1.1,2,1.9,2.5.5.4,1.1.7,1.2.6.1,0,.7-.4,1.3-.8ZM58.3,301.5c.8-1.8,1.2-2.5,2.9-4.2,1-1,2.2-2.1,2.7-2.4.5-.3,1.3-1,1.7-1.6.8-1,1-1.2,3.4-2.6.8-.5,1.5-.9,1.5-1.1,0-.1,0-.4-.2-.6-.2-.3-.6-.4-1.5-.5-2.2-.2-4.3-1.6-4.8-3.3-.1-.4-.3-1.7-.4-3-.1-1.8-.2-2.3-.5-2.5-.2-.1-.4-.2-.6-.2-.4,0-1.2-.9-1.2-1.4s.3-.7.8-1.2c.6-.6.8-.9.8-1.5,0-1-.7-1.8-2-2.1-1.4-.4-6.3-.5-8.1-.2-1.4.2-1.7.2-2.5,0-1.2-.4-3.7-.4-3.7,0s1.5,2.1,2.1,2.5c.5.4.5.9,0,1.3-.8.7-.8.9,0,1.9.4.5.8,1.1.9,1.3.2.6-.1,1.7-1.1,3.1-.5.7-.8,1.4-.7,1.5s.6.6,1.1.9c.8.5,1,.8,1.3,1.6.2.7.5,1,1.1,1.4.5.3.9.6,1.1.8.4.5.3,1.3-.3,2-.9,1.1-.8,1.3.5,1.1,1.3-.1,2.3.3,2.5,1,.2.8.2,2-.1,3-.9,2.8-1,4-.5,4.5.6.5,2,1.1,2.8,1.1.7,0,.8,0,1.1-.6h0ZM131.8,300.7c.2-.6.5-1.1,1.4-1.9,2-1.9,1.9-1.9,4.8-1,2.3.6,2.5.7,2.9.4.2-.2,1.4-1.2,2.6-2.4,1.2-1.1,2.4-2.2,2.6-2.3.3-.1,1.8-.3,3.9-.3,2.9,0,3.6,0,4.6.2l1.1.3.8-.5c1.7-1.1,7.1-4.8,7.4-5.1.5-.5.4-.6-.6-.7-.5,0-1-.2-1.2-.4-.5-.5-.5-2,0-3.3.7-1.8.7-2,0-3-.3-.5-.6-1.1-.7-1.3,0-.2.2-1.7.6-3.4l.8-3.1,1.3-1.7c1.1-1.5,1.4-2,2.1-4,.4-1.3.9-2.5,1-2.6.1-.2,1.7-.7,3.5-1.2,1.8-.5,3.4-1,3.5-1.1,0,0,0-.8,0-1.5-.2-1.2-.4-1.5-1-2.2-.9-1-1-1.6-.1-2.4.7-.6.6-.8,0-.6-.7.2-1.6,1.1-2,1.9-.5,1.2-.9,1.3-2,.8-1.2-.6-1.6-1.4-1.5-2.9,0-1.1,0-1.1,1.5-2.4l1.4-1.3v-2c.2-2,.2-2,.8-2.5.3-.3.7-.6.9-.7.3-.2.3-.3-.7-1.3-1.6-1.7-1.9-2.1-1.9-2.9,0-1.4,1.7-2.4,2.7-1.6.4.3,1,.4,1.1,0,.2-.4-.3-.9-1.6-1.5-1.4-.6-1.4-.6-3.4-.5h-2c0,.1-1.6-.6-1.6-.6-2-1-2.8-1.3-3.2-1.3s-1.2,1.3-1.2,1.8.6,1.6,1.4,3.1c1.8,3.4,2.2,5.3,1.5,6-.3.3-.8.4-2.3.5-1.6.1-2,.2-2.5.6-.3.2-1,.7-1.5,1-.5.3-1,.6-1.3.8-.3.2-.4.5-.5,1.6-.2,1.7-.4,2.3-1.1,2.5-.6.2-1,0-1.6-.8-.4-.6-4.5-3.3-5.1-3.3s-1,.5-1.9,1.2c-1.5,1.1-1.7,1.1-2.3,1-1.8-.3-1.8-.3-2.4,1.2-.8,1.9-1,2-3.9,2-2.7,0-3.2-.2-3.6-1.4-.2-.8-.3-.9-.9-1-.4,0-1.1-.4-1.7-.8-1.4-.8-3.5-1.4-3.9-1.1-.6.5-1.8,2.8-2.3,4.5-.3.9-.7,2-.9,2.4-.5,1.1-2.1,3-2.5,3.1-.2,0-1.3,0-2.3-.1-1.6-.2-2.3-.2-3.6,0-2.5.4-5.9,1.2-6.3,1.5-.4.3-.4.3.2,1.1.3.4,1.1,2.2,1.7,3.8,1.1,2.8,1.3,3.2,3.6,6.4,2.2,3,2.5,3.5,2.6,4.4,0,.6.3,1.2.5,1.4.2.2,1.4.6,2.9,1,1.4.4,2.6.8,2.7.9.3.3.2,1.6-.5,3.9-.5,2-.6,2.3-.4,2.8.7,1.6.8,2,.8,3.6,0,1.5,0,1.8-.6,2.7-.3.6-.6,1.2-.6,1.4,0,.6,1.1,2.7,1.6,2.8.9.4,4.3,1.3,5.3,1.5.6.1,1.4.3,1.7.5,1,.4,1.1.4,1.3-.5h0ZM158.5,299.3c.8-.3.9-.5,1.1-1.2.3-1,1.3-3,1.9-3.5.3-.3.5-.3.9-.2,1.3.3,2.3.5,3.4.5,1.2,0,1.5.1,2.6,1,.6.5.8.5,1.3.4.9-.2,1.7-.9,2-1.7.1-.4.5-1.1.8-1.5.5-.6.6-1,.7-2.2.1-1.2.2-1.5.8-2.1.3-.4,1-.8,1.4-1,.7-.3.9-.5,1.4-1.6.6-1.3.9-1.5,2.6-2.2.4-.2.5-.3.6-2.1,0-1,.3-2.7.5-3.6.3-1.2.4-2,.3-2.7,0-.6,0-1.3.2-1.9.4-1.3.3-3.7-.3-5-1-2.3-3.9-5.3-5.2-5.3s-1.7.3-3,.7c-1.4.4-2.8.8-3.3,1-1,.3-1.2.6-1.9,2.7-.7,1.9-1,2.5-2.4,4.4-.9,1.2-1.1,1.5-1.6,3.7-.3,1.3-.6,2.6-.6,3s.3,1.1.7,1.7l.7,1.1-.5,1.2c-.3.7-.5,1.6-.5,2.1v.9h.9c1.1.2,1.5.6,1.5,1.6s-.1.9-.5,1.2c-.3.3-2.3,1.7-4.5,3.3-3.9,2.7-4.1,2.8-4.3,3.7-.2.7-.2,1.1,0,2.3.1.8.3,1.5.3,1.7.1.3.7.2,2-.3h0ZM86.8,295c0-.1.3-.7.4-1.3.5-2.1,1-3.2,1.7-3.7.4-.3.6-.5.5-.7,0-.2-.4-1.2-.8-2.2-.5-1.3-.7-2.2-.7-2.9,0-.6,0-1.5-.2-2.1-.2-1-.3-1.2-1.5-2.6-1.3-1.4-1.7-2-1.4-2.6.2-.5.8-.6,4.1-.9,1.7-.2,3.4-.4,3.6-.5s.7-.5.9-.8c.3-.5.4-.8.3-1.6-.2-1.8-.6-3.8-1.1-5.5-.4-1.5-.4-1.7-.2-2.8.1-.7.5-1.7.9-2.3.5-.9.7-1.3.7-2.1v-1h-1.5c-2.8-.4-3-.5-3.1-1.9,0-.3-.3-.6-1-1-1.7-.9-1.7-1.1-1.7-3.1,0-1.7,0-1.8-.5-2.2-.5-.4-.8-.4-3.1-.4s-2.7,0-2.9-.3c-.4-.4-.4-.5.4-1.5.9-1.3.9-1.2.4-2.8l-.5-1.5h-2.2c-1.2,0-2.2,0-2.2,0s.3.3.6.6c.7.6.9,2,.6,3.7-.2,1.1-.3,1.2-1.5,2.3-.7.6-1.3,1.3-1.3,1.4s.4.4.9.6c1,.5,1.3,1,1,2.2-.2.7-.5,1.3-1.5,2.4-.7.8-1.4,1.5-1.6,1.6-.5.2-1.2,0-1.7-.7-.3-.4-.7-.7-1.2-.7-.4,0-1.2-.4-1.7-.8-1.2-.8-4.2-3.4-4.2-3.6,0,0-.5-.6-1-1.2-1.2-1.3-1.4-2-1.1-3.2.1-.5.2-.8,0-.9,0,0-.7-.3-1.3-.4-1.1-.2-1.2-.2-1.6.2-.3.3-.8.5-1.6.6h-1.1c0,.1-.2,1.6-.2,1.6-.1.8-.3,1.8-.4,2-.2.6-.9.9-1.8.8h-.6c0-.1-.1.8-.1.8-.3,2.1-.2,2.4.9,3.4l1,.9.5,2.4c.3,1.3.7,2.8,1,3.3.2.5.4,1,.4,1.3,0,.7.3,1.1,1.8,2.1,1.6,1.2,2.1,1.9,2.3,3.8.1,1.2.2,1.3.8,1.6.9.5,1.3,1.1,1.7,2.3.3,1.2.2,1.6-.7,2.6-.6.6-.6.7-.2.9.2.1.4.3.6.3.7,0,1.2,1.4,1.4,4.7.1,1.7.2,2.2.5,2.5.7.7,2.2,1.4,3.7,1.5,1.1.1,1.5.2,1.8.6,1.3,1.6,1.8,2.1,3.1,2.9,1.4.9,1.5.9,2.9.8,1.4,0,1.5,0,2.6.7,1.4.8,2.1.9,3.4.3.8-.4.9-.4,1.5-.1.6.3,1,1.1,1,2.3,0,.4,0,.5.5.5s.6-.1.7-.2h0ZM48.7,287.4c0-.2-.4-.5-.8-.8-1.9-1.3-2-2-.7-4q1.3-2,0-3.2c-1.2-1.2-1.3-1.7-.6-2.5.5-.6.6-.5-.9-2.4-1.3-1.7-1.5-2.1-.9-2.6.3-.3.6-.4,2.2-.4,1.1,0,2.3.1,3.1.3,1.1.3,1.4.3,2.6,0,1.6-.3,4.7-.4,6.2-.1l1.1.2v-1c0-.6-.1-1.2-.2-1.4-.1-.2-.9-.9-1.6-1.4-1.4-1-2.1-2-2.1-2.9,0-.2-.2-.6-.4-1s-.6-1.8-.9-3.1l-.5-2.3-1.1-1.1-1.1-1.1v-3.8h-.6c-.7,0-1.1.4-1.4,1.4-.3.8-.5,1-1.2,1.2-.7.2-.8.4-.9,1.2,0,.9-.5,1.4-1.6,1.6-1.2.2-1.5.1-2.9-1.2-.7-.7-1.9-1.4-3-2-1-.5-1.9-1.1-2.1-1.3s-.7-2-1.2-3.9c-.5-1.9-1.1-3.6-1.2-3.6s-2.1-.2-4.5-.3c-4.1-.1-4.4-.2-5.9-.7-2.8-1-3-1.2-2.8-4,.1-1.7,0-1.9-.2-2.2-.8-.9-1-.9-1.9.2-.8.9-1,1-1.7,1-.8,0-.9,0-.9.6s.1.6.7.8c2.8,1,3.6,3.1,1.8,5.1-.9,1.1-1,1.8-.4,3.2.6,1.5,0,2.4-2,3.4-1,.5-1.4.8-1.5,1.1,0,.2-.1,2.8-.2,5.6,0,4.8,0,5.3-.5,6.4-.6,1.7-1.3,2.7-2.9,3.9-1.4,1.1-1.9,1.8-1.5,1.8s.4-.1.6-.3c.6-.4,2.8-.9,3.5-.8,1.2.2,2.7,1.1,3.7,2.1.5.6,1.1,1,1.2,1s.5-.4.8-.8c.9-1.1,1.4-1.4,2.3-1,.4.2.8.6,1,1.1.3.6.5.8,1.3,1,1.3.3,2.1,1,2.4,2.1.2.9.3.9,1.8,1.1.9.1,2.9,1.8,3.1,2.6v.6c.1,0,1.5-.1,1.5-.1,1.3-.1,1.4-.1,1.7.4.3.4.3.6,0,1.4-.2.5-.2.9,0,1,.4.4,2.4.9,3.4.9,1.7,0,3,.3,4.2,1.1,1.3.8,4.1,2.3,4.3,2.3s.2-.1.2-.3h0ZM107.3,264.8c.2-.2.2-.3-.1-1-.2-.4-.4-.9-.3-1.1.2-.4,2.2-1.3,3.8-1.7.7-.2,2.4-.5,3.7-.7,2.2-.4,2.5-.4,4.1-.2.9.1,1.9.2,2.1.2.6-.1,2.1-2.2,2.2-3.1,0-.4.3-1.1.5-1.5.2-.5.4-1.3.4-2.1,0-1.5-.6-3.1-2-5.5-.5-.8-1.1-2-1.4-2.7-.4-1-.8-1.4-1.7-2.1-.7-.6-1.3-1.2-1.5-1.7-.2-.4-.6-1.2-1-1.7-.9-1.3-1.2-2.2-1.1-3.5v-1.1c.1,0-.5-.3-.5-.3-.5-.2-.7-.5-.9-1-.1-.4-.3-.8-.4-.9s-.9,0-1.8.2c-1.4.3-1.9.6-3.3,1.5-1.7,1.2-1.7,1.2-2.7,1-.6,0-1.8-.2-2.7-.3s-2.6-.4-3.6-.6c-2.5-.6-4.6-1.1-5.3-1.1-.3,0-1,.2-1.5.6-2.3,1.3-3.5,1.3-5.2.2-.9-.6-1.5-.7-1.9-.3-.4.4-.3.9.6,2.4,1,1.7,1,1.5-.3,5.1-.9,2.4-1.3,2.9-2.6,2.9s-.8,0-.8,0,.2.7.4,1.5l.4,1.4-.4.7c-.2.4-.4.7-.4.8s.8.2,1.8.2c1.6,0,2,0,2.8.5.5.3,1,.6,1.1.7.1,0,.2,1.1.3,2.2v2c0,0,1.2.7,1.2.7.9.5,1.2.8,1.3,1.3,0,.4.2.7.2.7,0,0,.9.2,2,.3,2.3.3,2.4.4,2.4,2.3s0,1.4.6,1.8c.5.3.8.4,2.2.3,2.1-.1,2.4,0,2.8,1.3.2.6.4,1.2.4,1.2.1.2,5.6.2,5.9,0h0ZM74.1,256.7c1.3-1.5,1.3-2.3,0-2.7-1.5-.5-1.3-1.7.6-3.5l1.3-1.2v-3.1l-.7-.4c-.4-.2-.8-.5-1-.7-.3-.4-.5-.4-2,.3-2.6,1.2-3.2,1.3-6,.5-2.5-.7-5.6-.9-5.8-.4-.2.4.2.7,1.5,1,1.5.4,1.8.8,1.7,2.6v1.4c-.1,0,.8,1,.8,1,.5.6,1.1,1.2,1.2,1.4,1.3,1.5,4.2,3.6,5.3,3.8.4,0,.9.3,1.3.7.6.6.7.6,1.8-.6h0ZM46.7,255.5c.3-1.2.3-1.3,1.3-1.6.6-.2.8-.4.9-.8.3-.9.8-1.4,1.9-1.7.9-.2,1.2-.3,2.4,0,1.7.3,1.7.3,1.9-1.8.2-1.9.5-2.3,2.1-2.5,1.2-.1,1.2-.1,1.6-1l.4-.9-.6-6.4c-.3-3.5-.5-6.5-.5-6.7,0-.2.5-.9.8-1.5.4-.6.7-1.3.7-1.5,0-.6-3.4-3-4.3-3-.3,0-.4.1-.5.7-.2,1-1.1,1.8-2,1.8-1,0-4.7-2-5.2-2.8-.2-.3-.6-1.4-.9-2.4-.9-2.9-1.5-3.4-2.9-2.7-.8.4-1,.4-2.3.2-.8-.1-1.7-.3-2-.4-.8-.3-1.1-.2-1.9.4-.4.3-1,.6-1.4.7-.4,0-.9.3-1,.4-.4.5-1.4.8-2.8.8-.8,0-1.7,0-2.1.2-.6.2-.8.1-1.3-.2-.3-.2-.6-.4-.7-.4,0,0-.5.7-.8,1.5s-.8,1.7-1,2c-.3.5-.3.5.2,1.2.5.7.6.9.6,2.5,0,2,.2,2.1,1,.8.4-.7.6-.8,1.1-.9.3,0,.8,0,1.1.2,1.2.8,2.1,4.5,1.9,8,0,1.1-.2,2.3-.3,2.5-.2.5-.9.9-2.2,1.2-.5.1-1.2.5-1.7,1-.7.7-1,.8-1.9.9h-1.1c0,0,.6.4.6.4.5.3,1.4.4,5.1.5,5.2.2,5.6.2,5.9.7.2.2.7,1.9,1.3,3.9.6,2,1.1,3.7,1.2,3.9.1.1.9.6,1.7,1,.8.4,2.1,1.2,2.7,1.8,1.1.9,1.3,1,1.9,1,.7,0,.7,0,.9-1.1h0ZM137.9,254.6h1.3c0-.1.6-1.6.6-1.6,1-2.3,1.1-2.4,2.8-1.8.9.3.9.3,1.5-.1,1.8-1.4,3.1-2.1,3.4-2,.5.2,4.9,2.8,5.6,3.3l.6.4v-.8c.5-2.2.5-2.1,1.6-2.7.6-.3,1.4-.9,1.9-1.2,1.1-.8,1.9-1.1,3.6-1.2h1.3v-1c0-.6-.3-1.4-1.2-3.3-.7-1.4-1.3-2.5-1.5-2.5s-.4.2-.6.4c-.6.7-.9.8-1.9.6-.5,0-2.1-.4-3.5-.6l-2.6-.4-1.5.4c-1.5.4-1.6.4-3.4.1-2.2-.3-3.2-.9-4.2-2.2-.8-1.2-1-2.2-.6-4.3.4-2.5.3-4.7-.2-5.6-.6-1.1-1.3-5.1-1.1-6.3,0-.6.3-1,.9-1.6.4-.4.7-.8.7-.9s-.3-.5-.8-.9c-.6-.6-.8-.9-.9-1.7-.1-.9-.1-1-.8-1s-.7,0-.5.7c.4,2.3.4,2.8-.4,5.9-.9,3.9-.9,3.9-1.6,4.1-.9.2-1.3-.1-2.5-1.8l-1.1-1.6h-1.3c-1.2-.1-1.3,0-1.8.5-1.4,1.7-1.9,2.1-3.6,3.2-1.9,1.2-2.2,1.3-4.4,1.7-1.7.3-1.9.6-1.9,2.9s-.1,2.5-1.9,4.7c-.7.9-1.3,1.7-1.3,1.9s.2.6.4,1c.2.4.6,1.1.9,1.6.3.6.8,1.2,1.5,1.7,1,.8,1.2,1,2.9,4.6,1,2.1,1.9,3.9,2,4.1.3.5.7.4,1-.2.2-.3.5-.7.6-.8.5-.3,3.6.6,4.9,1.4.7.4,1.3.6,1.8.6,1.1,0,1.3.1,1.5,1.2.3,1.3.6,1.4,3.4,1.1h0ZM72.2,244.2c1-.5,2.2-.9,2.7-1,.5,0,2.6-.1,4.8,0h3.9c0,0,.6-1.4.6-1.4.3-.8.7-1.9.9-2.4l.3-.9-.9-1.4c-1.1-1.8-1.2-2.4-.1-3.4,1-1,1.6-1,3.1,0,1.5.9,2.2.9,4.4-.2l1.7-.8,3.5.8c2.6.6,3.8.8,5,.9.8,0,1.9.1,2.3.3,1.2.4,1.7.4,3.3-.7,1-.7,1.9-1.1,2.7-1.3,2.8-.7,2.6-.7,2.6-1.1s-.1-.6-.3-.7c-.2-.1-.5-.6-.7-1-.4-.7-.4-.9-.1-2.4l.2-1.6-.6-.5c-.3-.3-.8-.6-1.1-.6-.3,0-1.2-.6-2.2-1.1-1.5-.8-2-1.3-3.9-3.4-2.6-2.9-2.6-2.9-3.3-2.9-1.1,0-1.8-.5-3-2.1-.6-.9-1.2-1.7-1.2-2,0-.6.5-1.2,1.2-1.5.4-.1.7-.3.7-.5s-.4-1.3-.9-2.5l-.9-2.2v-3.3c0-4.3-.5-6.9-1.3-8.2-.3-.5-.7-1.2-.8-1.5l-.2-.6h-1.3c-.7.2-1.9.3-2.6.3-1.6,0-3.6.4-3.8.9,0,.2-.2.6-.3,1-.2,1-.9,1.8-1.8,1.9-.9.2-2.2-.2-3.1-.8-1.4-1-2.7,0-2.9,2.2-.2,1.7-.3,2-1.3,2.5-.4.2-1.4,1-2.1,1.8-1.1,1.1-1.7,1.5-3.1,2.2-1.9.9-2.9,1.3-3.9,1.3-.4,0-.8.3-1.4.7-.5.4-1.1.8-1.5.9-.4,0-1,.3-1.3.5-.4.3-.8.4-1.7.4h-1.1s.1.9.1.9c.2,1.5.4,2,.8,2,1.1.2,2.4.7,2.9,1.1,1.4,1.2,2.3,4,2.3,7.3,0,2-.1,2.4-1,3.5-.4.5-.9,1.1-1,1.3s-.4,1-.6,1.8-.4,1.5-.5,1.6-.8.2-1.5.3h-1.3c0,0-1.1,1.9-1.1,1.9-1,1.7-1.1,1.8-1.1,2.9,0,1.4.9,10.3,1,10.5,0,0,.9.2,1.8.3.9,0,2.4.3,3.3.6,1,.3,2.1.5,3.1.5,1.4,0,1.6,0,3.3-.9h0ZM117.6,235l.9-1v-2.1c0-2.4.1-2.8,1.3-3.6.6-.5,1.2-.7,2.4-.9,2.3-.4,4.8-1.9,6.3-3.8.6-.7,1.2-1.4,1.4-1.5.5-.2,2.9-.3,3.5,0,.3.1.9.8,1.5,1.7.5.8,1.1,1.5,1.2,1.5.2,0,1.1-3.4,1.4-5.1,0-.6,0-1.7,0-2.6-.2-1.4-.3-1.6-.7-1.7-.3,0-.7-.6-1.3-1.5-1.5-2.4-1.6-3.1-.6-3.8.7-.5.7-.7.2-2.2-.4-1.1-.8-1.7-2.1-3.1-1.3-1.5-1.8-2.1-2.9-4.4-1.1-2.2-1.4-3.1-1.9-5.1-.3-1.4-.6-2.9-.7-3.4s-.5-2.3-.9-3.9c-.8-3-.8-3.3-.4-5.3.1-.6,0-.8-.5-1.4-.7-.8-1.1-.9-2.1-.4-.5.3-.8.3-2.2,0-1.5-.2-1.6-.2-2.5-1.1-.8-.9-.9-1-.9-2s-.1-1.1-.2-1.2c-.4-.4-1.3-.2-2.1.3-.4.3-1,.8-1.5,1.1s-1.1.8-1.4,1.1c-1,.8-2,1.2-3.2,1.2-.9,0-1.2,0-1.9-.6-1.6-1.1-2.7-.8-4.9,1.6-1.5,1.6-1.9,2.2-2.4,3.4-.5,1.2-.9,1.5-2.3,1.5s-3.6.6-5.9,2.1c-1.9,1.3-1.9,1.3-1.9,2.1v.8h2.3c2.8-.3,3.1-.2,3.6,1.2.2.5.6,1.2.9,1.6.7.8.7,1.1,1.1,4.6.2,1.6.3,3,.4,3.2,0,.1,0,1-.1,1.9l-.2,1.6.9,2.3c1.3,3.2,1.3,3.3.9,3.8-.2.2-.6.6-.9.7s-.6.4-.6.5c0,.5,1.7,2.3,2.2,2.5.3,0,.8.1,1.1.2.4,0,1.2.8,3,2.8,2,2.2,2.7,2.8,3.9,3.5.8.5,1.9,1,2.3,1.1,1.1.4,1.9,1,2.2,1.7.2.5.2.9,0,2.2l-.2,1.5.6.7c.8,1,.8,1.1,1.1,2.8.2,1.5.2,1.6.8,1.8.8.4,1,.7,1,1.5,0,.3,0,.6.2.6s.6-.4,1-1h0ZM62.8,227c.9,0,.8.1,1.2-1.6,0-.4.6-1.3,1.2-2.2l1.1-1.4v-1.4c0-.8,0-2.2-.2-3.1-.2-1.4-.3-1.9-.9-2.7-1.1-1.6-.9-1.6-6.1-1.5h-4.6c0,.1-.3.7-.3.7-.1.3-.5.8-.8.9-.3.2-.9.7-1.3,1-.4.4-1.1.8-1.5.9-.8.3-.9.5-.9,2.3,0,1.5-.3,2.2-1.1,2.6-.6.4-.7.4-.6,1.2,0,.4.3,1.2.6,1.7.4.7.7,1,2.2,1.8,2.3,1.3,2.7,1.2,2.9-.4.1-.8.8-1.3,1.6-1.3.7,0,2.4.9,4,2,1.2.8,1.2.8,1.8.6.4-.1,1-.3,1.5-.3h0ZM25.4,225.3c.5-.5,1-1.4,1.4-2.7.3-.9.5-1.1,1.1-1.4.7-.3.7-.3,1.6,0,.7.3,1,.4,1.6.3.4,0,1.2-.1,1.9,0,1,0,1.2,0,1.7-.4.3-.3.9-.6,1.4-.7.5-.1,1.1-.4,1.4-.8.7-.7,1-.7,2.7-.3,1.7.4,3.2.4,4.1,0,.7-.3.8-.3,1.4,0,.4.2.9.6,1.2.9,1,1.2,1.4.8,1.7-1.6.1-1,.3-1.9.4-2.2s.6-.5,1-.6c.8-.2,3.1-2,3.1-2.4s-.9-.9-2.3-1.5c-1.7-.7-2.4-1.3-2.7-2.3-.1-.5-.5-1.2-1.1-1.8-1-1.1-1.1-1.5-.5-2.7.2-.4.4-.9.3-1-.3-.8-2.6-3.5-3.3-3.8-.4-.2-1-.5-1.3-.7-.4-.2-1.2-.4-2.7-.6-1.2-.1-2.3-.3-2.4-.4-.1-.1-.4-.8-.7-1.5-.4-1.2-.6-1.4-2-2.5-.8-.7-1.6-1.2-1.7-1.2s-.3.2-.3.6c0,.7-.5,2.8-.8,3.1-.2.2-3.2,5.6-3.2,5.7,0,.3-1.8,4.8-2,5.1-.2.2-.6.5-1,.6-.6.3-.6.3-.5,1.2,0,.5.2,1.4.4,1.9.5,1.8.7,3.4.8,6.1,0,3.2-.3,5.4-1,6.7-.3.5-.6,1.1-.6,1.2,0,.3.5.2.9-.2ZM60.7,211.6s0-.9-.2-1.8-.3-1.9-.2-2.1c.1-.5.8-.7,2.1-.6,1,.1,1.2,0,1.6-.3.2-.2.8-.5,1.3-.5.6,0,1.1-.3,1.5-.8.8-.8,1.5-1,2.5-1s1.3-.2,2.4-.8c1.9-.9,2.8-1.6,3.5-2.7.3-.5.9-1,1.4-1.2l.9-.4.2-1.5c.2-1.5.7-2.4,1.8-3.2.8-.6,2.1-.5,3,.1.5.4.9.5,1.7.5s1.2-.1,1.4-1.4c.2-1,.6-1.4,2-1.9l1.2-.4v-.9c0-.5,0-1,.2-1.2s1.2-1,2.4-1.8c2.4-1.7,4-2.3,6.3-2.5h1.3c0-.1.2-.8.2-.8.2-.7.1-.8-.5-1.3-.4-.3-.7-.5-.8-.5s-.4-.1-.8-.3c-.5-.2-1-.3-2.7-.2-1.9,0-2.2,0-2.6-.2-.2-.2-.9-1.4-1.5-2.6-.6-1.3-1.1-2.3-1.2-2.4-.1,0-.6,0-1.1,0h-.8c0,.1-.3,1.4-.3,1.4-.5,2.3-1.7,3.2-2.9,2.2-.5-.4-.6-.7-1.1-3.4-.3-1.5-.8-2-2.6-2.6-3.5-1.2-3.6-1.3-3.9-3.8-.1-1.1-.2-1.5-.6-1.7-1.2-.9-1.7-1.5-2.5-3-.8-1.6-1.5-2.5-2.6-3-.7-.3-.9-.2-1.1.6,0,.3-.3.8-.6.9-.6.4-.9,1-1.1,2.1-.2,1-.8,1.6-2.8,2.7-1.6.9-2.1,1-2.4.4-.3-.5-.5-.5-.7,0-.3.7-.9,1-2.8,1.3-1,.2-1.9.4-2.1.5-.2.1-.7.8-1.1,1.4-.9,1.6-1.7,2.5-2.5,2.7-1,.3-3.1.1-4.2-.4-.8-.4-1-.6-1.6-1.9-.6-1.2-.8-1.5-1.2-1.5-.8,0-1.4-.3-2.3-1.2-1-1-1.6-1.1-3-.5-1,.4-1,.4-.6,2.8.2.9.3,2,.3,2.4,0,.8.2,1.3.4,1.3.4,0,1.5.6,1.7,1,.3.6.9,3.8,1,5.2,0,1,0,1.5-.4,2.1-.4.8-.6,1.5-1.1,4-.4,1.9-.6,2.3-1.9,2.7-1.1.3-1.2.4-2.6,2.4-1,1.4-1,1.5-.8,2.2.1.4.3.8.4.9s1,.3,2.1.4c1.5.2,2.2.4,2.9.9.5.3,1.1.7,1.5.8.4.2,1,.8,2.1,2.1,2,2.6,2,2.5,1.5,3.4-.5,1.1-.5,1.5.4,2.5.4.5.8,1.2.9,1.6.3.9.5,1.1,2.8,2.2l1.9.9h3.3c1.8-.2,3.4-.3,3.4-.3h0ZM37.4,193.3c.4-.5.9-1.3,1.1-1.7.4-.8,1-1.1,1.9-1.1s.6-.1.8-.3.4-1.1.5-2.1.5-2.3.7-2.9c.5-1.2.6-2.5.2-4.8-.3-1.6-.5-2-1.1-2s-1.5-.9-1.6-1.8c-.5-4.3-.8-5.6-1.5-7.6-.7-1.9-.9-2.4-1.6-3.1-.9-1-1.3-2-1-2.7.1-.3.8-1,1.6-1.5.8-.6,1.5-1.1,1.5-1.2,0,0-.4-1.5-1.1-3l-1.2-2.9-.9-.5-.9-.5-1.5.5c-1.7.6-2.3.5-4.8-.4-1-.4-1.9-.7-2-.7-.2,0,0,1.2.3,2.1.2.6.5.8,1.9,1.5,2.8,1.4,3.6,2.7,3.2,5.3-.3,1.8-1.3,4.7-2.3,6.2-.4.7-1.6,1.9-1.9,1.9s-.6.3-1.1.6l-1,.6v1.3c0,1.5-.3,2.4-1.3,3.3-.7.6-1.2.8-3,.9h-.6s.7.9.7.9l.7.8v3.4q0,4.3,2.3,4.5c2.7.2,5,1.4,6.1,3.1,1,1.6,1.6,2.2,2.9,3,.7.4,1.6,1.1,2,1.4.4.3.8.6.9.6s.5-.4.9-1h0ZM100.9,182c.3-.3,1.2-1.1,2.1-1.9,1.4-1.2,1.8-1.4,2.7-1.6,1-.2,1.1-.2,1.9.2.4.2,1,.6,1.3.8.2.2.7.3.9.3.7,0,2.5-1.1,3.9-2.4,1-.9,1.5-1.2,2.4-1.5,1.6-.4,1.9-.4,2.7.4.7.7.7.8.7,1.8,0,.6,0,1.2.2,1.4.2.3,2,1,2.7,1s.8-.1,1.2-.3c.8-.4,2-.2,2.7.5.6.6,2.4,1.4,2.8,1.2.2-.1,1.5-2.1,2-2.9.4-.8,1-3.1,1-3.8s-.3-.9-.9-1.6c-.5-.6-.9-1.1-.9-1.2s-.3-.3-.7-.5c-2-1-2.7-1.8-2.7-3.1s-.4-1.5-.8-2.6c-.7-1.8-.9-2-2.2-3.2-1.2-1.1-1.4-1.4-1.7-2.3-.3-1-.3-1.1,0-2.2.2-.6.3-1.6.2-2.3,0-1-.1-1.2-.7-1.8-.4-.4-.8-1-1-1.4-.3-.6-.3-.8,0-2,.2-.7.4-1.4.3-1.7,0-.4-.2-.4-1.5-.4s-1.5,0-1.9-.3c-.6-.4-.9-.4-2.2.2-1.1.5-1.1.5-3.9.4-3.2-.2-3.4,0-3.1,1.1.4,1.4.1,3.4-.5,3.7-.2,0-1.4.2-2.8.4-1.8.2-2.7.3-3.1.6-.3.2-1,.5-1.4.6-.4.1-.9.3-1,.4-.5.4-1,1.7-1,2.5,0,.8-.4,1.3-1.2,1.8-.5.3-.9,1.6-.9,3.3,0,1.4,0,1.7.4,2,.6.6.8,1.3.5,2-.4,1.1-1.4,1.8-4.1,3.1-1,.5-2,1-2.1,1.2-.4.3-.4,1-.1,1.3.1.1.2.6.3,1.2,0,.8,0,1.1-.3,1.6l-.4.7.8,1.8c1.1,2.4,1,2.4,2.4,2.1.9-.2,1.4-.2,2.2,0,1.2.3,2.3.7,3.2,1.3.7.5.9.5,1.4-.1h0ZM85.5,179.2c0-.2.3-.9.4-1.5.3-1.6.6-1.9,2.5-2.1,1.6-.2,1.7-.2,1.7-.7s-.1-.8-.3-1.1-.3-.8-.3-1c0-.3,1.9-2.3,2.2-2.3s3.6-1.7,4-2.1c.6-.5.5-1.4,0-2.1-.5-.6-.5-.7-.3-3.1.2-1.8.7-3.1,1.4-3.7.4-.3.4-.3,0-.9-.8-1.4-1-1.8-1-2.9,0-1.1,0-1.1.8-1.8.5-.5.8-.8.8-1.2,0-.7-.9-2-1.7-2.5-1.1-.7-1.8-1.8-1.8-2.9s.8-3.5,1.9-5.2c.6-.8,1-1.6,1-1.9s-.4-1.3-.8-2.3c-.9-2.1-1.1-3.2-1.3-7.8v-2.4c-.1,0-1,0-1,0-1,.1-1.7.6-3.4,2.2-1.4,1.3-3.5,2.4-5,2.6h-1c0,.1-.7,1.5-.7,1.5-1.3,2.7-2.8,3.5-4.3,2.1-.3-.3-.6-.4-.9-.3-3.8,1-3.7.9-3.8,1.8-.1.7-.2.8-.8,1.1-.8.4-1.7.2-2.9-.4-.7-.4-.9-.5-1.6-.3-.6.2-.9.1-1.5,0-.8-.3-2.1-.2-3.3.2-1.2.5-1.5.3-2.5-1.6-.5-1.1-1-1.7-1.2-1.7-.4,0-2.7,1.6-2.7,1.8,0,.1.3.4.6.6.8.6,1.5,1.7,1.7,3,.1.6.3,1.2.4,1.4.4.7.2,2.6-.3,3.9l-.5,1.2.5.4c.3.2.8.7,1.1,1l.6.6v4.1l1.1,1.9q1.3,2.3,3.3,4.1c1.3,1.1,2.1,1.7,3.8,2.5,2.5,1.2,2.8,1.5,4.2,4.1.8,1.5,1,1.7,1.8,2.1,1,.5,1.2.9,1.4,2.8,0,.8.3,1.5.5,1.7.2.2.8.5,1.4.7s1.8.7,2.6,1.1c1.4.7,1.5.7,1.7,1.7.1.5.4,1.6.5,2.3.1.7.3,1.4.3,1.5.2.3.4.1.6-.3ZM54,174.1c.3-.3.8-.9,1-1.4,1-2,1.7-2.5,3.8-2.8,1.8-.3,2.2-.4,2.3-1.1.3-1.3,1.4-1.6,2.4-.7l.6.5,1.1-.6c1.4-.8,1.7-1.1,1.8-2.2,0-.7.3-1.1.9-1.7.6-.6.8-.9.8-1.4s-.1-.8-.6-1.1c-1-.6-4.2-3.6-4.6-4.2-.2-.4-.8-1.4-1.3-2.3-.9-1.7-1.7-2.5-2.6-2.5s-2.5.9-2.9,1.4c-.2.3-1,.8-1.6,1.2-1.1.7-1.1.7-3,.6-1.9,0-4.1-.5-5.4-1.1-.9-.5-8.3-.6-8.3-.2s.3,1,.6,1.8c1.1,2.6,1.5,3.8,1.3,4.3,0,.2-.8.9-1.6,1.5-2,1.5-2,1.5-.8,2.8.7.7,1,1.2,1.5,2.5.3.9.6,1.7.7,1.8.1.2.4.1,1.3-.2,1.7-.6,2.5-.4,3.8.7.6.5,1.1.8,1.4.8,1,0,1.7.5,2.1,1.4.8,2.2,1.5,2.7,3.5,2.7,1.2,0,1.3,0,1.9-.6h0ZM98,156.5c.3-.9.9-1.4,1.7-1.7.4-.1,1.3-.5,2.1-.8,1.2-.5,1.7-.6,3.5-.8h2.1c0-.1,0-2,0-2,0-1.8,0-1.9.5-2.4.8-.8,2.1-1.1,3.7-.8,1.9.3,2.8.3,4.1-.3l1.1-.5,1.2.4c1,.3,1.3.4,1.9.2,1.1-.3,2.1.1,2.7,1.1.2.5.2.7-.1,1.7-.6,2-.4,2.8.9,3.6l.6.4,2.1-.7c1.3-.4,2.4-.9,2.8-1.2.4-.3,1.1-.7,1.6-1,.6-.3,1-.6,1-.9,0-.2-.7-2.1-1.7-4.2-1.9-4.1-2-4.5-1.4-6.2.2-.5.3-1.6.3-2.5,0-1.4,0-1.7-.5-2.4-.5-.7-.5-1-.5-2.2,0-1.6.9-5.3,1.6-6.8.4-.9.8-1.2,2.4-1.9.5-.2.7-1,.4-2.2l-.2-.8h-1.6c-1.3,0-1.8,0-2.6-.5-1-.5-1.6-1.2-1.6-1.8,0-.1-.2-.6-.4-1.1-.3-.6-.6-.9-1.1-1.1-.8-.3-3.9-.3-4.3,0-.2.1-.2.4-.1,1.2.1,1,0,1.1-.5,1.7-1.1,1.2-4.6,2.7-5.8,2.5-.8-.2-1.1-.5-1.1-1.5,0-.7-.1-1.1-1-2.6l-1.1-1.8.5-.8.5-.8-.4-.7c-.7-1.2-1.9-2-3.3-2.3-.6-.1-.7,0-2.2,1.5-1.7,1.8-2.3,2.1-4.4,2.6-1.4.3-1.4.3-2.3-.1l-.9-.4-.5.6c-.3.3-.6.9-.6,1.4-.2,1-.5,1.2-2.6,1.4-1.7.2-2.6.5-2.6,1s.9,1.1,2.3,1.8c.6.3,1.3.8,1.5,1.1.5.5.5.4.9,9.3l.2,3.6.9,1.9c1.2,2.8,1.2,2.5,0,4.3-1.3,1.9-2,3.6-2,5s0,1,1.2,2.1c1.5,1.3,1.9,1.9,2.2,3.4.2,1.1.2,1.1-.2,1.5-1.3,1-1.5,1.2-1.5,1.6s.3,1.4.5,1.4.3-.3.4-.6h0ZM54.4,154.3c.3-.1,1-.7,1.5-1.2,1.4-1.2,2.5-1.7,3.9-1.7h1.2v-1.1c0-1.2,0-1.3-1.4-2.2-.4-.3-.9-.7-.9-.9,0-.2.1-.8.5-1.5.7-1.4.7-2.6.2-4.7-.5-2-.8-2.5-2.2-3.3-.6-.3-.6-.3-1.9.3-.9.4-1.7.7-2.4.7-.9,0-1.3.2-1.9.6-.9.7-1.6.9-3.5.9s-1.6,0-1.8.3c-.4.5-1.3.8-2.6.9-.7,0-1.3.2-1.4.3-.4.3-2.6.6-3.5.5-.8-.1-.9,0-1,.2-.1.3,0,.5.5.8,1.4,1.1,2.6,2.4,2.8,3.2.4,1.4,0,2.1-2,4.1-1,1-1.8,1.8-1.8,1.9s1.2.2,4.1.2h4.1l2.2.7c2.5.8,2.7.9,5.1.9,1.2,0,1.9,0,2.3-.2ZM41.3,140.7c.4-.2,1.2-.3,1.9-.4,1,0,1.3-.2,1.6-.6.5-.6,1.4-.8,3.3-.8,1.5,0,1.6,0,2.3-.6.6-.5,1-.6,1.8-.7,1.1,0,2.5-.5,2.5-.8s-.2-.3-.5-.4c-.6-.2-1.9-1.4-2.2-2.1-.1-.3-.7-2.3-1.3-4.6q-1.2-4.7.4-5.4c.5-.2.9-.5.9-.6s-.4-.7-.9-1.3c-1-1.2-1.2-1.8-.6-2,.2,0,1-.2,1.8-.3,1.1-.1,1.6-.3,1.7-.5.4-.7,1.4-1.6,1.8-1.6s.7.3,1.1.6c.8.6,1.1.7,1.4.3.1-.2,1-.6,2-1,2.4-.9,2.6-1.1,2.6-2.4s0-1.5-.2-2.2l-.2-1.2,1.1-.8,1.1-.8v-1.7c0-1,.1-2,.3-2.6.2-.5.3-1,.2-1.1,0,0-.9.2-1.8.6-3.2,1.3-3.4,1.3-4.3,0-.4-.5-.6-.7-1.2-.7-1.1,0-1.5.3-1.8,1.1-.3.9-.5,1.1-1.7,1.4-1.4.3-1.4.4-2,1.8-.3.7-.7,1.5-1,1.7-1.1.9-2.3.3-3.2-1.5-.9-1.9-1.5-2.2-3.3-1.6-1.2.4-1.8.2-2.8-.9-.8-.8-1-.9-2-1.1-1.7-.3-1.9-.3-2.6.3l-.6.5v2.1c.2,1.3.4,2.2.6,2.5.2.2.3.9.4,1.5.1,1.4-.2,2-1.7,3.1-1,.7-1.1.9-1.4,2-.4,1.5-.7,1.1,2,2.9.9.6,1.9,1.2,2.4,1.3,1.2.4,1.5,1,1.5,2.7,0,3-.8,4.5-2.3,5-.4.1-.7.3-.7.4s.3,1.6.7,3.3l.7,3.2-.6,1.7c-.8,2.5-.9,2.4.7,2.4s1.6-.1,2-.3h0ZM73.4,136.9c.2-1,.8-1.4,2.2-1.6.7,0,1.6-.3,2.1-.6.9-.4,1.3-.4,2.3.4,1.1.8,1.4.5,2.5-1.8.4-.8.9-1.6,1.2-1.8.2-.2.9-.3,1.5-.4,1.5-.1,2.7-.8,4.6-2.4,1.7-1.5,2.5-2,3.9-2.4l.9-.2v-1.1c0-1.3-.1-1.4-2.4-2.7-1.5-.9-2-1.5-2-2.5s2-2.3,3.5-2.3c1.3,0,1.7-.2,1.9-.8.2-.9,1-1.8,1.9-2.1.8-.3.9-.4.9-1.1s0-.8-.6-1.1c-.7-.4-1.1-1.2-1.1-2s.9-1.5,2.4-2.1c1.2-.5,1.3-.6,1.5-1.2,0-.4.6-1.2,1.2-1.9l1-1.3v-1.4c-.2-1.3-.2-1.4.5-2.7.4-.7.7-1.4.7-1.6,0-.5-1.4-2.6-2-2.9-.3-.2-.8-.2-1.5-.1-1.1.1-1.8.5-2.8,1.3-.4.3-1.5.8-2.4,1.1-1.8.6-6.3,3.2-6.8,3.9-.1.2-.3.9-.4,1.6s-.2,1.5-.4,1.9-.3.9-.3,1.2-.1.8-.3,1.2c-.3.8-1.2,1-2.6.7-.7-.2-1-.2-1.2,0-.1.1-.7,1.2-1.3,2.4-.6,1.2-1.2,2.4-1.4,2.6s-.8.5-1.2.7c-.8.3-.9.4-1.1,1.1-.5,1.7-1,1.8-3.7.8-2.7-1.1-3-1.3-3.5-3.2-.5-1.9-.5-2.8.1-3.8.8-1.2.9-2,.1-3.1-.6-1-.8-2-.4-2.5.1-.1.2-.6.2-1,0-1.2-.7-1.1-1.9.2-1,1-1,1.1-2.1,1.1s-1.5.2-1,.7c.5.5.5,1.1.2,1.8-.2.5-.3,1.3-.3,2.6s0,2.1-.2,2.3c0,.3-.6.8-1.2,1.2-1,.7-1,.7-.8,1.4.3,1.2.2,3.1-.2,3.7-.4.7-1.8,1.5-3,1.9-.5.2-1.4.6-1.8.9-1.1.7-1.6.7-2.5,0-.8-.5-1-.5-1.2.2-.2.6-.9,1-2.1,1.2-1.1.1-1.2.4-.5,1,1,1,.8,2.3-.6,2.9-.6.3-.9.5-.9.7,0,.7,1.6,6.7,1.9,7.4.4.8,1.2,1.5,2.3,2.1,1.2.6,1,.7,4.3-1.4.8-.5,1.6-.9,1.7-.9.4,0,.8.5,1.6,2.2.4.9.9,1.6,1,1.6s.8-.1,1.4-.3c.7-.2,1.4-.3,1.9-.2.4,0,1.3.1,2.1.2,1.1,0,1.5.1,2,.4.3.2.8.4,1.2.4.6,0,.7,0,.8-.6h0ZM116.1,120.8c.9-.4,1.8-.9,2.1-1.1.5-.5.5-.7.2-2.3-.2-.7.5-1.2,2.2-1.5,1.4-.3,1.8-.3,2.7,0,2.5.5,2.9.9,3.6,3,.5,1.5,1.2,1.8,3.1,1.8h1.3c0,0,0-2,0-2,0-3.1.5-4.5,2.1-5.4.8-.4.8-.6.4-2.5-.6-2.5,0-3.7,2-5l1.3-.9v-1.4c0-1.1-.1-1.7-.4-2.2-.2-.4-.7-2.5-1.1-4.6s-.9-4.2-1.1-4.6-.8-1.3-1.4-2c-1.4-1.6-1.6-2.3-1.2-3.9.3-1,.3-1.3.1-1.8-.2-.5-.2-.9,0-1.6.2-.9.2-1-.4-2.1-.9-1.8-.9-1.8-2.4-.6-.7.6-1.5,1.4-1.8,1.8s-1.5,1.7-2.7,2.8c-2.2,2.1-2.2,2.1-1.9,2.6.2.3.3.7.2.9-.1.7-1.1.7-2.5-.1-1.3-.7-1.9-.8-3-.4-1,.4-2.5.4-3.5,0-.5-.2-1.6-.5-2.6-.7-2.3-.5-2.6-.7-3.5-1.9-.9-1.2-1.1-1.8-1.5-4.4-.2-1.4-.5-2.3-.7-2.6-.4-.5-2.5-1.6-3-1.6s-.5.5-.8,1c-.6,1.2-1.6,2.1-2.6,2.4-.6.2-.7.3-1.1,1.7-.2.8-.5,2.1-.7,3-.3,1.3-.4,1.6-1,2.2-.4.4-.9,1.2-1.2,1.9-.6,1.4-.6,1.6-.2,2.4.1.4.3,1.3.4,2.2.2,1.9.4,2.9.7,3,.1,0,.8-.3,1.5-.7.8-.5,1.8-.9,2.6-1.1,1.2-.3,1.4-.3,2,0,1.3.6,3.1,3.2,3.1,4.4s-.3.9-.6,1.5c-.6.9-.6,1.1-.6,2.8v1.8s-1.1,1.3-1.1,1.3c-.7.9-1.1,1.4-1.1,1.8,0,.9-.4,1.4-1.4,1.7-1.3.5-2,.8-2.3,1.2-.2.4,0,.6,1.3,1.5.4.3.4.5.5,1.7,0,.9.1,1.4.2,1.5.4.1,2.9-.7,3.6-1.2.3-.3.9-.9,1.3-1.4s1-1.1,1.4-1.3c.7-.3.9-.4,1.8-.2,1.4.3,3.1,1.4,3.9,2.6.8,1.1.9,1.5.3,2.5l-.4.7,1,1.6c.7,1.2,1,1.8,1,2.3,0,.9.1.9,2.1,0h0ZM33.6,117.7c.3-1,.9-1.8,2.5-3.1.6-.5.6-.6.5-1.5,0-.5-.3-1.2-.4-1.6-.4-.8-.6-4.6-.2-5.3.1-.2.7-.8,1.3-1.2l1-.7,1.8.4c1.9.4,2.5.7,3.1,1.6.4.5.5.6,1.3.5.5,0,1.2-.2,1.7-.3.5-.1,1-.1,1.4,0,.6.2,1.8,1.7,2,2.5.1.5.7,1.3,1,1.3s.7-.7,1.1-1.9c.5-1.4.9-1.7,2.1-1.9.5,0,1-.2,1.1-.3,0,0,0-.5-.3-.9-.4-.8-2.5-6.5-2.8-7.6-.2-.8.3-1.2,1.7-1.4,1-.1,1.2-.2,1.2-.5,0-2.1.3-3.8.6-4,.2-.1,1.3-.7,2.5-1.2,2-.8,2.3-1,3.6-2.3,1.7-1.7,2.1-2.5,1.6-3.5-.6-1.4-.2-2.1,2-3.2,1.8-.9,2.2-1.4,2.4-2.8,0-.9,0-1.1-.5-1.7-.5-.6-.5-.9-.5-1.8,0-1.5.4-2.5,1.3-3.6,1-1.2,1.3-2.1.7-2.5-.2-.1-.7-.5-1.1-.9-.6-.5-1-.7-2-.8-1.5-.2-2.4-.8-2.9-1.9-.2-.6-.3-.9,0-1.7.1-.6.3-2.6.3-4.4v-3.4c.1,0-.4-.8-.4-.8-.3-.4-.6-1.2-.7-1.7,0-.5-.3-1.1-.5-1.5-.4-.7-.4-3.1,0-4.2.2-.4.3-.9.3-1,0-.1-.5-.9-1.2-1.8-1.7-2.2-1.7-2.3-1.4-3.1.2-.3.8-1.3,1.5-2.1,1.8-2.1,1.7-2.7-.6-4.1-.7-.4-1-.5-1.2-.4-.1.1-.7,1-1.3,2-.9,1.4-1.4,2.1-3,3.5-1,1-2.2,2-2.5,2.3-.7.7-1.8,3.5-1.8,4.5,0,.7.4,2.9,1,6,.3,1.3,0,2.3-1,2.8-1.5.8-3,1.9-4.2,3.1-1.6,1.6-2.3,2.6-2.8,4-.7,1.9-3.3,10.1-3.3,10.3s-.2.5-.5,1c-.3.4-.8,1.4-1.1,2.2-1,2.7-1.6,3.2-4,3.2-1,0-1.2,0-2,.7-.7.5-1,.7-1.7.7h-.8v.9c.1.5,0,2.3-.3,4-.4,2.8-.5,3.2-.9,3.5l-.5.4-2.8-.8c-3.6-1-5.7-1.4-5.8-1.3,0,0-.3,1.5-.6,3.2l-.5,3,.7,1.3.7,1.3-.5,1c-.5,1-.5,1-.2,2.1.2.6.4,1.2.4,1.4,0,.2,0,.5-.3.7-.3.3-.6.4-1.6.4h-1.2v.9c0,.8,0,.9.9,1.5.5.4,1,.8,1,.9,0,.2-.3.8-1,1.6-1.3,1.5-1.3,1.4.3,2.6.6.4,1.1.9,1.2,1.1,0,.2,0,1-.1,1.9-.1.8-.3,1.8-.3,2.1,0,.6,0,.6.6.6.3,0,1.1-.2,1.8-.5.6-.3,1.7-.6,2.4-.7,1.9-.3,3.7.2,7,2,1.4.8,2.7,1.4,2.9,1.4.2,0,.4-.4.6-1.1h0ZM77,114.8c.3-1.3.4-1.4,1.7-2l1.3-.7,1-2.2c.5-1.2,1.2-2.4,1.4-2.6.4-.4,1.3-.5,2.6-.3l.8.2v-.8c.2-.4.4-1.1.5-1.4s.3-1.2.5-2.1c.1-.8.3-1.6.4-1.8.2-.4,5.7-3.9,6.7-4.2.4-.1.7-.3.7-.3s-.1-.6-.3-1.2c-.1-.6-.4-1.7-.5-2.6-.1-.8-.3-1.8-.5-2.1-.3-.7-.2-1.3.3-2.3.2-.3.3-.9.4-1.3,0-.5.3-.9.8-1.3.8-.6,1-1,1.7-4,.7-2.9.8-3.2,1.9-3.5.5-.1,1.1-.5,1.4-.8.5-.5,1-1.9.9-2.3,0-.1-1-.5-2.1-.8-1.1-.3-2.5-.9-3.2-1.4-.7-.4-1.4-.8-1.7-.8-.5,0-1.6-.6-2.5-1.3-.4-.3-1-.6-1.4-.7-.4,0-1.3-.6-2.1-1.1-.8-.6-2.3-1.5-3.2-2s-2.3-1.4-2.9-1.9l-1.1-1-1.4.3c-1.5.3-2.7.3-5.3-.3-2.2-.5-2.3-.5-4.1,1.3s-1.6,1.7-1.6,1.8.3.4.8.7c1.5,1,1.5,2.5,0,4.2-1.4,1.5-1.6,2.9-.8,4.4.8,1.2.8,1.7.5,2.9-.4,1.5-1.2,2.3-3.1,3.2-1.6.8-1.8,1.1-1.3,1.5.4.3.4,1,0,2.2-.2.7-.7,1.4-1.8,2.5-1.4,1.4-1.7,1.6-3.5,2.5-3,1.3-2.9,1.2-2.9,2.7,0,1.4-.2,2.8-.5,3.1s-.6.3-1.2.3c-.5,0-1.1.2-1.2.3,0,0,.3,1.5.9,3.2l1.1,3h.7c.4,0,1.2-.1,1.9-.2h1.2c0-.1.8.7.8.7l.8.8,1.6-.5c1.3-.5,1.7-.7,2.5-1.5.8-.9,1.1-1,1.9-1.1,1.6-.2,1.7-.3,2.2-1,1.1-1.6,3.5-1.4,3.8.3,0,.4,0,1.1-.1,1.7-.2,1-.2,1.1.2,1.9.9,1.6.9,2.7,0,4.1-.3.5-.4.7-.3,1.9.2,2.2.5,2.7,2.8,3.4,1.5.5,1.9.6,2,.2h0ZM121.3,85.9c.1-.2.5-.7.9-1,.9-.7,7.7-7.4,7.7-7.6s-.4-.9-.9-1.8c-.8-1.5-.9-1.8-.9-2.9v-1.3l-3.4-4.2c-1.9-2.3-3.5-4.3-3.7-4.5s-1.2-.5-2.3-.7c-2.1-.5-2.3-.6-3.3-2-.4-.5-.7-.7-1.6-.9-1.2-.3-1.3-.2-1.5,1-.2,1-.5,1.2-1.8,1.1-2.2-.2-3.7.9-4.8,3.6-.6,1.3-1,1.9-2,3-2,2.1-2.3,3.1-1.9,5.6.2,1.1.3,1.2,2.4,2.2,2.1,1,2.7,1.5,3,2.7.2.5.3,1.2.3,1.5,0,1.1.6,3.4,1.1,4.1.6.9,1.2,1.2,2.4,1.5.6.1,1.6.4,2.3.6,1.3.4,2.9.4,5.2,0,.5,0,1,0,1.4.2.9.4,1.2.4,1.5-.1h0ZM31.9,80.1c1-.8,1.6-1,2.7-.8.9.1,1,0,1.5-.3.3-.3.6-1,.9-1.7.2-.7.7-1.6,1-2.1.3-.5,1.1-2.7,1.9-5.1,2.5-7.8,2.4-7.6,3.8-9.3,1.3-1.6,3.5-3.5,5.1-4.5.8-.5.9-.6,1-1.3,0-.4-.2-2.2-.5-4l-.6-3.2.9-2.2.9-2.2,2.1-1.9c1.2-1,2.4-2.2,2.7-2.6.8-1,2.3-3.6,2.3-3.9s-.3-.4-.6-.5c-.5-.2-1.7-1.4-1.7-1.7,0-1-.7-3.5-1.1-4.1-.6-.9-.6-1.1-.3-4.3.2-2.5.4-3,1.4-3.2.3,0,.6-.2.7-.4,0-.1-.3-1-.8-1.8-.8-1.4-.9-1.7-.9-2.7,0-1,0-1.1-.4-1.3-.2-.1-.8-.6-1.3-1.2-.5-.6-1-.9-1.1-.8-.2,0-.6.5-.9,1.1-.8,1.2-1.8,2-3.1,2.7-.9.5-1.2.7-3,3.6l-2,3.1v2.1c0,0-.1,2.1-.1,2.1l-1.1,1.1c-.6.6-1.6,1.4-2.3,1.8l-1.1.6-.7,2.1c-.4,1.1-.9,2.5-1.2,3.1-.8,1.6-2.5,3.6-3.8,4.4-.6.4-1,1-2.2,3.1-.8,1.4-1.6,2.9-1.9,3.2s-1,.8-1.6,1.1c-2,1-2.5,1.7-2.9,4.8-.1.9,0,1,.5,1.6,1,1.1.8,2.3-.9,4.5-.6.8-1.3,1.8-1.6,2.4-.3.5-.9,1.4-1.3,2-.8,1.1-1.2,2.7-1.1,3.9.2,1.2,1,3.1,1.6,3.8.3.3,1.1.8,1.9,1.2,1.3.6,1.4.7,1.9,1.7.3.6.7,1.5.9,2.1.4,1.1.5,1.2,1.4,1.6.9.3,1.5.9,1.9,1.7.4.9.8,1.1,1.8,1.1.6,0,.9-.1,1.4-.6h0ZM100.3,71.8c.1-2,.6-3,2.3-4.8.9-1,1.4-1.8,1.8-2.6,1.3-3.1,3-4.7,5.5-4.9.7,0,1.2-.2,1.3-.4.8-1.5.9-2.3.4-2.7-.4-.4-.8-.4-1.5,0q-1.8,1-2.4.8c-.3-.1-1.8-.3-3.2-.3-2.3-.1-2.6-.2-3-.5-.7-.7-1.1-2.7-1.1-5.1v-2.1s-1.2-1.3-1.2-1.3c-1.4-1.4-1.5-1.9-.9-3,.6-1,.5-2.3-.2-3.2-.3-.4-.8-.9-1-1.2-.3-.3-1-1.6-1.9-3.9-.8-1.9-1.5-3.6-1.7-3.8s-1.5-.9-3-1.7c-3-1.4-3.5-1.8-3.8-2.8-.9-2.6-2.3-3.2-4.4-1.7-2.2,1.6-2.2,1.6-2.6,3-.7,2.2-.5,2.2-4.4,2.2h-3.3s-1.1.8-1.1.8c-.7.5-1.3,1-1.5,1.4-.5,1-1,1.3-1.6,1.1-.4-.1-.6,0-1.2.4-.4.3-1.1.6-1.6.7-1.1.2-1.6.7-1.9,2.1-.2.9-.5,1.4-1.5,2.5-.7.8-1.3,1.6-1.3,1.8,0,.3.2.9,1.2,2.2,1.2,1.6,1.3,1.8,1.2,2.4,0,.4-.2,1.5-.2,2.5,0,1.6,0,1.9.3,2.6.2.4.4,1.1.4,1.5s.2.9.5,1.4l.5.7v3.2c0,2-.2,3.6-.4,4.2-.4,1.4-.3,1.8.2,2.3.4.3.8.5,1.6.5.6,0,1.3,0,1.6,0s1.2-.8,2.1-1.7c1.9-1.9,2.2-2,4.7-1.5,2,.4,4.3.5,5.5.2,1.1-.3,1.8,0,3.1,1.2.7.6,1.4,1.2,1.6,1.2.5.2,4.5,2.6,5.2,3.1.3.2.7.4,1,.4.5,0,1,.3,2.1,1.2.3.3,1,.6,1.5.7.5.1,1.4.5,2,.9,1.1.7,3.6,1.6,4,1.5.1,0,.2-.8.3-1.6h0Z"/>
  <g class="district">
    <path id="malesi" class="st0 city" data-city="Malësi_e_Madhe" d="M28.6,79.2c-.4-.7-1.2-1.3-1.8-1.5-.5-.2-1.4-1.3-1.9-2.5-.6-1.4-1.6-2.5-2.6-3.2-.9-.5-2-1.6-2.4-2.4-1.3-2.6-.9-4.4,2-8.8,2.6-4,3.1-5.4,2.2-6-.6-.4-.6-3.4,0-4.6.3-.5,1.2-1.3,2.1-1.9.9-.6,2.3-2.1,3.1-3.6.8-1.4,2.2-3.3,3-4.1,2-1.9,3.6-4.5,4.4-7,.5-1.5,1.2-2.4,2.9-3.7,2.1-1.5,2.3-1.8,2.5-4.1.3-2.6,2.9-7.4,5-8.8.6-.4,1.8-1.4,2.8-2.3l1.7-1.6,1,1.1c.6.6,1,1.5,1,1.9s.4,1.6.8,2.5c.8,1.6.8,1.8,0,2.3-1.4,1-1.6,5.4-.3,9.1.6,1.7,1.4,3.4,1.8,3.8,1.2.9,0,3-3.3,6.3-3.9,3.8-4.6,5.7-3.9,10.9.5,3.8.5,4-.5,4.7-3.5,2.4-5.7,5.1-6.9,8.5-.7,1.9-2.2,5.9-3.4,8.8-2,5.2-2.1,5.4-3.7,5.6-.9.2-2.1.5-2.7.9-1.5.8-2,.7-2.9-.6h0Z"/>
    <text class="st3" data-city="Malësi_e_Madhe" transform="translate(30.8 48.4)"><tspan x="0" y="0">Malësi</tspan><tspan x="-2.4" y="6">e Madhe</tspan></text>
  </g>
  <g class="district">
    <path id="sarande" class="st0 city" data-city="Sarandë" d="M94.7,401.8c-1.6-.2-3.7-1.1-5.8-2.4-3.9-2.4-7.8-3.6-9.7-3.2-1.3.3-1.3.3-1-1.1.9-3.7.9-4.2,0-4.9-.8-.6-.8-.7,0-1.5.4-.5.8-1.2.8-1.6,0-.4.4-2.4,1-4.6.5-2.1,1-4.6,1-5.4,0-1.8-1.3-3.1-3.1-3.1s-1.8-.6-2.8-1.7c-.8-.9-2.3-2-3.2-2.3l-1.6-.6,1.2-1.6c.7-.9,1.2-1.9,1.2-2.3,0-1-6.1-12.3-7.7-14.1-.5-.6-.8-2.3-.9-5.8,0-2.7,0-5.4.1-5.8.4-1.2,2.3-1.1,4,.4,1.5,1.2,1.5,1.3,1.2,4.8-.5,5.7.2,7.3,5.9,14.1,1.7,2.1,1.9,2.6,2.1,5.5.2,2.8.5,3.6,2.5,6.7,2.9,4.4,4.6,5.8,6.3,5.3.7-.2,2.3-.3,3.5-.3,2.2,0,2.3,0,2.7-1.5.3-1.3.7-1.6,1.9-1.7,1.3-.1,1.7.1,2.6,1.6,1.8,2.9,3.6,3.2,7.7,1.3,1.6-.8,1.7-.7,2.6.4,1.2,1.4,1.2,3.5,0,5-1.4,1.8-1.1,5.9.5,8.7l1.3,2.2-1.9,1.2c-1,.7-2.4,2-2.9,3.1-.7,1.2-1.4,1.8-2,1.8s-1.8.9-2.9,1.9c-1.1,1.1-2,1.9-2,1.9,0,0-1.2-.2-2.6-.4h0Z"/>
    <text class="st1" data-city="Sarandë" transform="translate(81.5 389.8)"><tspan x="0" y="0">Sarandë</tspan></text>
  </g>
  <g class="district">
    <path id="path3038" class="st0" d="M47.6,153.6c-1.1-.4-3.9-.8-6.2-1l-4.3-.3,1.7-2c.9-1.1,1.7-2.3,1.7-2.7,0-1.1-1-2.7-2.3-3.8l-1.2-1,3.9-.8c5.5-1.1,9.1-2,9.7-2.3.3-.2,1.8-.7,3.4-1.1,2.8-.8,2.9-.8,3.8.2,1.2,1.2,1.7,5.7.9,7.3-.5.9-.4,1.2.7,2.2,1.6,1.5,1.6,2.6-.1,3-.7.2-2.3.9-3.6,1.7-2.5,1.6-4.8,1.8-8,.7h0Z"/>
    <text class="st3" transform="translate(42.6 148.5)"><tspan x="0" y="0"></tspan></text>
  </g>
  <g class="district">
    <path id="path3026" class="st0" d="M111.6,85.2c-2.2-.6-3.3-1.6-3.7-3.5-.9-4.6-1.2-5-3.6-6.5-2.3-1.4-2.4-1.6-2.4-3.5s.4-2.4,1.4-3.5c.8-.9,1.9-2.5,2.4-3.6,1.3-2.5,2.7-3.6,4.8-3.6s1.6-.3,1.9-1c.4-1.3,1.2-1.2,2.9.1.8.6,2.3,1.4,3.4,1.8,1.6.6,2.8,1.6,5.5,4.9,2.1,2.5,3.5,4.7,3.5,5.4,0,.6.4,2,.9,3.1l.9,2-4.5,4.2-4.5,4.2h-3.6c-2,0-4.3-.3-5.3-.6h0Z"/>
    <text class="st4" transform="translate(109.4 75.6)"><tspan x="0" y="0"></tspan></text>
  </g>
  <g class="district">
    <path id="lezhe" class="st0 city" data-city="Lezhë" d="M38.1,140.1c0-.4.2-1.3.5-2,.3-.9.3-2.2-.2-4.4-.6-2.9-.6-3.2.2-3.8,1.3-.9,2-2.5,2-4.6,0-2.4-.2-2.6-3.3-4.3-3-1.7-3.3-2.8-1.1-4.8,1.4-1.4,1.5-1.5,1.3-5.6v-4.2c-.1,0,1.3-.2,1.3-.2.9-.1,1.9.2,2.9.9,1,.7,2.1,1.1,3.3,1,1.5,0,2,.1,3.1,1.6,1.7,2.2,2.8,2.2,4.4-.2.7-1.1,1.6-1.9,2-1.9s1.1-.5,1.5-1.2c.9-1.4,1.8-1.5,2.7-.4.6.8,1.9.7,4.7,0,1-.3,1.1-.2,1.1,2s-.2,2.5-1.2,3.2c-1.1.8-1.2,1.2-.9,3.1l.3,2.1-2.5,1.3c-2.1,1.1-2.7,1.2-3.7.7-1.1-.5-1.4-.4-2.4.5-.6.6-1.5,1.1-2.1,1.1s-1.3.2-1.7.5c-.6.4-.6.6,0,1.9.8,1.3.8,1.4-.2,2.2-1.1.9-1,1.6.6,7.2.6,2.2,1.4,3.6,2.2,4.2l1.2,1-1.4.3c-.8.2-2.1.6-3,1-.9.4-2.2.7-3,.7s-2,.3-2.8.7-2.5.8-3.7,1c-1.9.3-2.3.2-2.3-.4h0Z"/>
    <text class="st5" data-city="Lezhë" transform="translate(38.8 116.4)"><tspan x="0" y="0">Lezhë</tspan></text>
  </g>
  <g class="district">
    <path id="diber" class="st0 city" data-city="Dibër" d="M97,156.1c0-.2.5-.9,1-1.5,1.3-1.4,1-2.9-1-5.2-1.8-2-1.8-3.2-.1-6.2,1.2-2.2,1.3-2.5.7-4.4-.9-2.9-1.4-6.9-1.5-10.6,0-4.2-.5-5.4-2.7-6.7-1-.6-1.6-1.3-1.5-1.5.1-.2,1.2-.6,2.4-.7,1.7-.3,2.2-.6,2.6-1.6.4-1.1.7-1.2,3.1-1.3,2.3,0,2.9-.3,4.9-1.9,2.5-2.1,3.1-2.2,4.8-.9.9.7,1.1,1.2.9,2-.2.6,0,1.8.5,2.6.4.8.9,2.2,1.1,3,.4,1.8,2.1,2.2,4.5.9,2.4-1.2,3.3-2.2,3.3-3.5s.2-1.2,2.3-1c2,.1,2.4.3,3,1.6,1,1.9,1.7,2.4,4.1,2.7,2.6.3,2.8,1.5.6,3.6-1.4,1.3-1.8,2.1-2.3,5.1-.5,2.9-.5,3.9,0,5.3.4,1.1.5,2.7.3,4.5-.3,2.5-.1,3.2,1.4,6.8l1.7,4-2,1.2c-5,2.9-7.3,2.4-6.8-1.4.4-3.1.2-3.2-10-3.2-4.1,0-5.4.8-5.4,3.4s0,1.9-1.8,1.9c-1.9,0-5.6,1.5-7,2.8-.5.4-.9.6-.9.4h0Z"/>
    <text class="st4" data-city="Dibër" transform="translate(103.4 137.1)"><tspan x="0" y="0">Dibër</tspan></text>
  </g>
  <g class="district">
    <path id="mirdite" class="st0 city" data-city="Mirditë" d="M71.2,136.9c-.4-.3-2.3-.5-4.2-.5-3.4,0-3.5,0-4.3-1.4-1.1-2.1-1.5-2.2-3.9-.8-1.2.7-2.5,1.3-2.8,1.3-1.5,0-3.1-2.4-3.9-5.9l-.8-3.5,1.1-.8c.9-.7,1-1.1.7-2.3-.3-1.3-.2-1.5.6-1.5s1.1-.3,1.2-.7c.2-.5.6-.6,1.5-.3.9.3,1.8.1,4.1-.9,1.6-.8,3.1-1.6,3.3-2s.3-1.5.3-2.7c0-1.6.2-2.2.9-2.6.9-.5,1.6-3.7,1.6-7.1s.3-1.3,1.1-1.5c.6-.2,1.4-.6,1.7-1,.9-1.1,1.4-.8,1.3.9,0,.9.2,2,.5,2.5.4.7.3,1.4-.2,2.6-.6,1.4-.6,2.1,0,3.9.6,2,.8,2.3,3.2,3.2l2.6,1,2.3-2.3c1.3-1.2,2.8-3.2,3.3-4.3.9-1.8,1.3-2.1,2.9-2.2l1.8-.2.7-3.2c.5-2.3,1-3.4,1.7-3.8,2.5-1.6,10.6-5.4,11.4-5.4s1.3.6,1.7,1.3c.7,1,.7,1.5.3,2.7-.3.8-.5,2.2-.5,3.1s-.3,1.9-.8,2.2c-.4.3-1.1,1.2-1.4,1.9-.4.7-1.3,1.6-2.2,1.9-1.7.7-2,2.5-.7,3.9.7.8.6,1-1.2,2.8-1.1,1.1-2.4,2-2.9,2s-1.6.5-2.3,1.1c-1.1,1-1.2,1.3-.8,2.1.3.6,1.3,1.5,2.3,2.1,2,1.3,2.4,3.1.6,3.6-.6.2-2.3,1.2-3.7,2.2s-3.4,2.1-4.3,2.3c-1.3.2-1.9.8-2.7,2.2-1,1.8-1.2,1.9-2.9,1.6-2.2-.4-5.7.6-6.3,1.8-.5,1-.9,1.1-1.9.4h0Z"/>
    <text class="st1" data-city="Mirditë" transform="translate(63.1 125.7)"><tspan x="0" y="0">Mirditë</tspan></text>
  </g>
  <g class="district">
    <path id="kukes" class="st0 city" data-city="Kukës" d="M113.3,119.2c-.5-1.1-.9-2.7-.8-3.6,0-1.2-.2-1.9-1.4-3-.8-.8-2.2-1.6-3-1.7-1.2-.3-1.7,0-3,1.2-.8.8-2.4,1.8-3.4,2.2l-1.8.8v-1.2c0-.7-.4-1.7-1-2.2l-1-1,1.7-.8c1-.5,1.8-1.3,2-1.9.1-.6.7-1.5,1.2-1.9.6-.5.9-1.5.9-2.5s.3-2.5.8-3.5c.7-1.7.7-2,0-3.4-.9-1.7-2.5-3-3.8-3s-1.8.5-2.9,1-2,.9-2.1.9c0,0-.4-1.4-.7-3-.6-3-.5-3.7,1-5.9.5-.7,1.2-2.4,1.6-3.7.5-1.7,1.2-2.9,2.7-4.4,2-1.9,2.2-2,3.3-1.4,1.2.7,1.5,1.3,2.4,5,.9,3.7,3.6,5.2,9.8,5.3,1.8,0,3.9.4,4.8.7,1.3.5,1.6.5,2,0,.2-.4.3-.8.2-1.1-.3-.4,4-5.2,6-6.9,1.2-1,1.3-1,1.9,0,.5.6.6,2,.6,4.4,0,3.1,0,3.7,1.2,5.5.9,1.3,1.8,3.7,2.5,7,.6,2.8,1.3,5.4,1.4,5.9.1.6-.4,1.5-1.6,2.6-1.7,1.5-1.8,1.8-1.7,4.2,0,2.2,0,2.7-1.1,3.6-1.1,1-1.5,2.9-1.2,6,.1,1.2-2.2,1.1-3.2,0-3.2-3.7-3.5-3.9-5.8-3.9s-4.1.7-4.1,2.4-.3,1.6-1.8,2.4l-1.8.9-.9-2h0Z"/>
    <text class="st4" data-city="Kukës" transform="translate(109.3 102.8)"><tspan x="0" y="0">Kukës</tspan></text>
  </g>
  <g class="district">
    <path id="puke" class="st0 city" data-city="Pukë" d="M74.2,114c-1.7-.7-2.3-2.5-1.6-4.9.5-1.5.5-2.4.1-3.6-.3-.9-.4-2.1-.3-2.6.7-2.5-2.2-3.9-4-2-.5.5-1.2,1-1.7,1s-1.7.7-2.9,1.5c-2.2,1.5-3.7,1.8-4.2,1-.2-.3-1.3-.5-2.4-.5-1.9,0-2.2-.1-2.7-1.6-1.5-4-1.5-4.2-.3-4.5,1.2-.3,1.7-1.4,1.7-3.6,0-1,.4-1.5,2.5-2.4,2.6-1.2,5.8-4.3,5.9-5.7,0-.5,0-1.2,0-1.6,0-.4.6-1.1,1.4-1.6,2.6-1.5,3.2-2.9,2.4-5.9-.6-2.5-.6-2.6.7-4.6l1.4-2.1-.9-1.7-.9-1.7,1.4-1.1c1.3-1,1.8-1.1,5.9-.9,4.3.2,4.6.3,7.8,2.3,3.9,2.5,9.4,5.4,13.7,7.3,2.8,1.2,3,1.4,2.5,2.3-.3.6-1.1,1.2-1.7,1.5-.8.4-1.4,1.2-1.7,2.5-.9,3.6-1,3.9-1.7,4.7-.4.4-1,1.5-1.4,2.4-.6,1.5-.6,2.1,0,5,.4,1.8.6,3.4.6,3.4,0,0-1.7,1-3.6,2.2l-3.5,2.1-.6,2.9c-.6,2.9-.7,2.9-2.4,3.1-1.6.1-1.9.4-2.9,2.6-.6,1.4-1.7,2.8-2.4,3.2s-1.4,1.1-1.6,1.4c-.4.7-1.1.7-2.7.1h0Z"/>
    <text class="st2" data-city="Pukë" transform="translate(68.6 91.5)"><tspan x="0" y="0">Pukë</tspan></text>
  </g>
  <g class="district">
    <path id="shkoder" class="st0 city" data-city="Shkodër" d="M29.6,116.8c-3.8-1.8-5.6-2.1-8.2-1.4-1.1.3-2.3.5-2.5.4-.3,0-.4-1-.3-2.1,0-1.5-.1-2.2-1.1-3.1l-1.2-1.1,1-1.4,1-1.4-1.1-1.1c-1.5-1.6-1.3-2.3.5-2.3s1.5,0,1.3-1.8c-.1-1,0-2.3.2-2.9.3-.7.3-1.4-.2-2.3-.5-1-.6-1.9-.2-4.2.3-1.6.7-2.9,1-2.9.3,0,2.2.4,4.3.9,3.1.7,3.9.8,4.3.3.4-.5,1.4-5.4,1.4-7.3,0-.6,3.1-2.2,4.4-2.2s1.4-.2,1.9-.5c1.2-.6,3.3-5.3,5.6-12.1,2-5.9,3.8-8.5,7.4-10.8l1.7-1.1-.3-4.7c-.4-5.6.2-7.4,2.9-9.5,1-.8,2.5-2.4,3.3-3.6.8-1.2,1.6-2.3,1.7-2.4.3-.4,2.6,1.1,2.6,1.7s-.7,1.6-1.4,2.6c-1.5,2.1-1.5,2.6.5,5.2.6.8.8,1.7.6,3.2-.2,1.4,0,3.1.7,4.8.7,1.9.9,4,.9,7.7s.2,5.1.7,5.4c.4.2,1.8.9,3,1.4,1.3.6,2.3,1.3,2.3,1.5s-.5,1.1-1,1.9c-1,1.5-1.2,3.3-.7,6.3.3,1.7.2,1.8-1.9,3.3-2,1.4-2.2,1.7-2.1,3.2.1,2.1-1.3,3.7-5,5.6-2.7,1.4-3.3,2.2-3.3,4.7,0,.8-.4,1.1-1.5,1.3-.8.2-1.5.6-1.5,1s.7,2.5,1.5,4.7c.8,2.2,1.5,4.1,1.5,4.2s-.4.2-1,.2-1.3.6-1.8,1.7c-.4.9-1,1.7-1.2,1.7s-.8-.8-1.4-1.7c-1-1.6-1.2-1.7-3.1-1.6-1.3.1-2.4-.1-3.3-.7-.7-.5-2.1-1-3.1-1.2-3.5-.6-5,2.4-3.6,7.3.5,1.8.4,2-1,3.4-.8.9-1.5,1.8-1.5,2.1,0,1.1-.7,1-3.6-.4h0Z"/>
    <text class="st1" data-city="Shkodër" transform="translate(31.2 89.5)"><tspan x="0" y="0">Shkodër</tspan></text>
  </g>
  <g class="district">
    <path id="tropoje" class="st0 city" data-city="Tropojë" d="M96.3,71.8c-4.6-2.1-11.4-5.8-13.3-7.3-1.6-1.3-2.2-1.4-7-1.7l-5.2-.3-1.9,1.6c-2,1.7-4.1,2.1-4.8,1.1-.2-.3-.3-2.5-.2-4.8,0-2.9-.1-4.9-.7-6.5-.4-1.3-.7-3.5-.7-4.9,0-1.9-.1-2.9-1-4-1.3-1.9-1.3-2.3,0-4.5.6-1,1.5-2.3,1.9-3,.5-.8,1.6-1.5,3-1.9,1.2-.4,2.5-1,2.7-1.5.8-1.4,2.4-2.1,6-2.3,3.4-.2,3.4-.3,4.2-2,.9-1.9,3.7-4,4.8-3.6.4.2,1.1,1,1.6,1.8.6.9,2.3,2.3,4.1,3.3,2.9,1.6,3.2,1.9,4.5,5,.8,1.8,1.9,4,2.4,4.8.8,1.1,1,1.9.7,3.4-.3,1.6,0,2.2.9,3.5.9,1.2,1.2,2.2,1.2,3.8,0,3.3.8,4.6,2.9,4.9,3.3.5,5.6.5,6.8-.2,1.4-.7,2.1-.2,1.5,1.3-.2.6-1,1.2-1.9,1.4-2.1.5-3.8,2-5.1,4.6-.6,1.3-1.5,2.6-2,3-1.2,1-2.2,3.2-2.2,4.8s-.2,1.5-.4,1.5c-.2,0-1.7-.6-3.3-1.3h0Z"/>
    <text class="st4" data-city="Tropojë" transform="translate(68 52.7)"><tspan x="0" y="0">Tropojë</tspan></text>
  </g>
  <g class="district">
    <path id="pogradec" class="st0 city" data-city="Pogradec" d="M134.3,253.3c0-.4-1.4-1.3-3-1.9-4-1.6-5.2-1.9-6-1.2-.9.7-.7.9-2.6-3-.9-1.7-2.3-4-3.2-5-2.8-3.1-3-3.9-1.3-6,1-1.3,1.5-2.6,1.7-4.3.2-2.4.3-2.4,2.4-3.2,3-1,4.9-2.1,6.5-3.8,1.9-2,3.3-1.9,4.9.2,2.1,2.7,3.1,2.2,4.2-2,.5-2,.8-4.2.6-5.2-.3-2.3.2-2.3,1.3,0,.7,1.6.7,1.8,0,3.1-.7,1.3-.7,1.7,0,5.2.5,2.1.8,5.6.8,7.8,0,3.2.2,4.1,1,5,1.3,1.4,4.3,2.2,7.2,1.8,1.3-.2,3.9,0,5.6.2,2.4.4,3.4.4,3.9,0,.5-.4.9,0,2,2.2,1.4,2.9,1.2,3.6-1.1,3.7-1.6,0-5.5,2.7-5.8,4.1-.4,1.5-.4,1.5-2.1.3-.7-.5-2-1.3-2.9-1.7-1.6-.8-1.7-.8-3.5.4-1.4.9-2.3,1.2-3.3,1-1.2-.2-1.5,0-2.3,1.5-.8,1.6-1.1,1.7-3,1.7s-2.1-.2-2.2-.8h0Z"/>
    <text class="st3" data-city="Pogradec" transform="translate(122.3 243.6)"><tspan x="0" y="0">Pogradec</tspan></text>
  </g>
  <g class="district">
    <path id="path3064" class="st0" d="M100.9,263.4c-.5-1.3-.9-1.5-2.8-1.6-2.1-.1-2.3-.2-2.7-1.8-.5-1.9-1.1-2.4-2.7-2.4-1.7,0-4.5-3-4.5-4.8s-1.5-3.5-3.8-3.5h-1.9v-2.1c0-1.7.1-2.2.8-2.4,1.9-.5,3.4-6.2,2.2-8.5-1-1.9-.6-2.2,1.5-1.3,1.6.7,2,.7,4.3,0,2.3-.8,2.8-.8,6.3,0,7.6,1.5,7.8,1.5,10.1.2,1.1-.7,2.8-1.3,3.6-1.5,1.3-.3,1.6-.2,1.9.7.2.6.5,1,.8,1s.5.6.5,1.2c0,1.6,2,5.5,3.6,7,.7.7,2.1,2.7,3,4.6,2.1,4.2,2.3,6.8.6,9.9l-1.2,2.1h-3.1c-3.8,0-9.6,1.3-10.4,2.3-.3.4-.6,1.1-.6,1.5,0,.6-.6.8-2.5.9-2.4.1-2.5,0-3.1-1.3h0Z"/>
    <text class="st4" transform="translate(90.7 250.2)"><tspan x="0" y="0"></tspan></text>
  </g>
  <g class="district">
    <path id="kruje" class="st0 city" data-city="Krujë" d="M49.4,173c-.6-.7-1-1.4-1-1.6s-1.2-1-2.6-1.7c-1.9-1-3-1.3-4.1-1-1.3.3-1.6.1-2.1-1-.3-.7-1-1.9-1.5-2.7l-.9-1.4,1.6-1.4,1.6-1.4-.7-2.4c-.4-1.3-.7-2.7-.7-3.1-.1-1.1,3-1.2,8.4,0,2.7.6,5.1,1,5.5,1s1.8-.8,3.3-1.7c1.5-.9,2.9-1.7,3.3-1.7s1.2.9,2,2.1c.7,1.1,2.6,3.3,4.2,4.8l2.8,2.8-1.1,2.1c-1.5,2.8-2.3,3.4-4.1,3.1-1.2-.2-1.7,0-2.2.7-.4.5-1.5,1.1-2.5,1.3-1.3.3-2.3.9-3.6,2.5-2.1,2.6-3.9,2.9-5.5.9h0Z"/>
    <text class="st4" data-city="Krujë" transform="translate(43.6 165.3)"><tspan x="0" y="0">Krujë</tspan></text>
  </g>
  <g class="district">
    <path id="kavaje" class="st0 city" data-city="Kavajë" d="M25.8,219.8c.2-2.6,0-5.5-.4-7.7-.5-2.5-.5-3.5-.1-3.6.7-.2,6.9-12.8,6.9-13.9s.2-.8.4-.8c.7,0,3,2.3,3.4,3.6.4.9,1,1.3,3.3,1.7,3.1.6,4.1,1.2,5.8,3.5.9,1.2,1,1.8.7,2.6-.6,1.5,2.2,5.6,4.6,6.7,1,.5,1.7,1.1,1.7,1.3s-.9,1.1-1.9,1.7c-1.6,1-1.9,1.6-2.2,3.4l-.3,2.2-1.3-1c-1-.7-1.6-.9-2.8-.6-.8.2-2.3.2-3.4,0-1.6-.3-2.4-.1-4.4.9-1.9,1-3.1,1.3-5.5,1.2-2.9,0-3.1,0-4,1.4l-.9,1.4.3-4.2h0Z"/>
    <text class="st5" data-city="Kavajë" transform="translate(28.3 212.4)"><tspan x="0" y="0">Kavajë</tspan></text>
  </g>
  <g class="district">
    <path id="lushnje" class="st0 city" data-city="Lushnjë" d="M42.5,254.4c-3-2-3.1-2.2-4.3-5.9l-1.2-3.9-5.3-.5-5.3-.5,3-1.6,3-1.6v-3.7c0-5.6-2.2-9.1-4.2-6.6-.6.8-.7.8-.7-.5,0-.8-.2-1.8-.5-2.3-.4-.7-.3-1.4.3-2.6.8-1.6.9-1.6,3.7-1.7,1.9,0,3.7-.5,5.2-1.2,1.8-.9,3-1.1,5.7-1h3.4c0,0,1.5,2.9,1.5,2.9,1.5,2.8,4.1,5,6.2,5,.9,0,2.1-1,2.5-2s.8-.2,2.2.7l2,1.3-.8,1.7c-.7,1.5-.8,2.4-.3,8.1.3,3.6.3,6.8.1,7.2-.2.4-1.1.9-1.8,1.1-1.2.2-1.5.6-1.8,2.3l-.3,2h-2.3c-2,0-2.5.2-4.1,1.9-1,1-1.8,2.1-1.8,2.4,0,1.2-1,.9-3.9-1.1h0Z"/>
    <text class="st1" data-city="Lushnjë" transform="translate(34.2 238.7)"><tspan x="0" y="0">Lushnjë</tspan></text>
  </g>
  <g class="district">
    <path id="elbasan" class="st0 city" data-city="Elbasan" d="M65.9,244.4c-.9-.2-2.5-.5-3.4-.7l-1.7-.3-.5-5.5c-.5-5.4-.5-5.5.7-7.5.9-1.5,1.6-2.1,2.5-2.2.9-.1,1.4-.5,1.8-1.6.3-.8.9-2.1,1.5-2.9,1.1-1.6,1.3-5.9.4-8.8-.6-1.9-2.5-3.7-3.9-3.7s-.9-.5-1.1-1.2c-.2-1,0-1.2,1.7-1.7,1.1-.3,2.4-.9,3-1.3.6-.4,2.1-1,3.4-1.4,3.5-1.1,8.2-5,9-7.7.5-1.7.9-2.1,1.6-1.9,4.5.8,4.9.7,5.9-1,.9-1.5,1.2-1.7,4-2,1.6-.2,3.2-.2,3.5,0,1.3.8,2,3.5,2.2,8,.1,2.6.6,5.9,1,7.3.8,2.5.8,2.6,0,3.2-.5.3-.8.9-.8,1.3,0,1,2.9,4.3,3.8,4.3s2.1,1.2,3.6,2.7c1.5,1.5,3.8,3.3,5.1,4,2.2,1.2,2.3,1.4,2.4,3.2,0,1.1.3,2.4.6,3,.5,1,.4,1.1-1.2,1.6-1,.3-2.5,1-3.4,1.5-1.8,1.1-4.2,1-10.3-.4-2.9-.7-3.4-.7-5.7.1-2.4.8-2.7.8-4.2,0-1.5-.7-1.8-.7-2.7,0-1.2.8-1.3,2.1-.3,4.1.6,1.2.6,1.6-.1,3.6l-.8,2.2h-4.8c-3.8,0-5.2.2-6.7,1-2,1-3.1,1.1-5.8.5h0Z"/>
    <text class="st2" data-city="Elbasan" transform="translate(69.1 223.2)"><tspan x="0" y="0">Elbasan</tspan></text>
  </g>
  <g class="district">
    <path id="path3048" class="st0" d="M115.5,233.8c-.6-.7-1.1-1.8-1.1-2.3s-.3-1.4-.7-2-.7-1.8-.7-2.9c0-2.2-.6-2.9-3.4-4.3-.9-.5-3.2-2.2-4.9-3.9-1.8-1.7-3.6-3.1-4-3.1s-1.1-.5-1.5-1.1c-.7-1-.7-1.1,0-1.7.7-.5.8-.8.2-2.7-.3-1.2-.9-4.7-1.1-7.9-.4-4.5-.8-6.3-1.7-8.1l-1.2-2.3h-2.7c-1.5,0-2.7-.2-2.7-.5,0-1.2,4.6-3.6,7.8-4.1,1.2-.2,1.9-.6,2.3-1.4.7-1.5,3.4-4.6,4.6-5.2.6-.3,1.3-.3,2.4.3,1.9,1,3.6.6,6.6-1.5,2.8-2,3.6-2.1,3.6-.5s1.9,3.2,5,3.2,3.5.5,3,2.3c-.4,1.5,2.6,14,4,16.8.7,1.4,2.1,3.7,3.1,5,2.1,2.8,2.4,3.5,1.5,5-.5.9-.4,1.4.3,3,.5,1,1.3,2.1,1.7,2.5.9.8,1,4.2.1,7l-.6,1.8-1-1.4c-1.8-2.6-4-2.6-6.8,0-1.2,1.1-3.6,2.6-5.5,3.3-3.6,1.5-4.5,2.5-4.5,5.4,0,2.5-1,3.2-2.4,1.5h0Z"/>
    <text class="st1" transform="translate(102 205.6)"><tspan x="0" y="0"></tspan></text>
  </g>
  <g class="district">
    <path id="path3046" class="st0" d="M98.4,181.4c-.7-.4-2.3-.7-3.5-.7-2,0-2.4-.2-3-1.4-.4-.8-.7-2.5-.6-4.1v-2.8c0,0,2.7-1.6,2.7-1.6,3.4-2,3.8-2.8,3.1-4.9-.6-1.8-.4-3.9.6-5.2.3-.4.9-1.5,1.2-2.5.7-2,2-2.7,6.6-3.6l2.9-.5v-2.2c.1,0,.3-2.2.3-2.2l3.7-.3c4.7-.4,4.4-.4,6.5,0,1.7.3,1.8.3,1.3,1.8-.3,1.2-.2,1.8.5,3,.7,1.1,1,2.4,1,4.5s.1,3.1,1.7,4.6,2,2.7,2.5,4.4c.7,2.1,1.3,3.1,2.7,4.2,1,.8,2.1,1.9,2.3,2.4.6,1.2-.2,4.2-1.7,6l-1.1,1.3-2-1c-1.4-.7-2.5-.9-3.7-.7-2,.3-3.2-.4-3.2-2s-.4-1.4-.9-1.9c-1.1-1-3.3-.5-5.8,1.5-2.4,1.9-3.2,2.1-4.3,1.3-1.6-1.2-3.6-.8-6.1,1.2-1.3,1.1-2.4,1.9-2.5,1.9,0,0-.7-.3-1.4-.7h0Z"/>
    <text class="st1" transform="translate(100.9 169)"><tspan x="0" y="0"></tspan></text>
  </g>
  <g class="district">
    <path id="tirane" class="st0 city" data-city="Tiranë" d="M51.9,210.6c-2.5-1.3-4.1-3.7-3.9-5.9.2-3-3.7-6.6-8.2-7.5-1.3-.3-1.9-.7-2-1.4-.2-1.2,1.5-3.4,3.2-4.2,1.7-.8,2.7-4.5,2.8-9.8,0-3.5,0-3.9-1.2-4.9-1-.8-1.3-1.7-1.6-3.6-.3-2.4-.2-2.6.8-3,1.4-.5,5,1.7,6.3,3.8.6,1.1,1.4,1.5,2.8,1.8,2.3.4,3.5-.1,5.2-2.4.9-1.1,2-1.9,3.3-2.2,1.1-.3,2.3-.8,2.6-1,.3-.3.8-.3,1.1-.2.3.2,1.4-.2,2.5-.8,1.4-.8,2.3-1.8,3.2-3.7.7-1.4,1.4-2.6,1.7-2.6.5,0,2.8,2.4,2.8,3s.6,1.1,1.3,2,1.6,2.4,1.8,3.3c.4,1.5.9,1.9,3.3,3.1,1.5.7,2.8,1.6,2.8,1.9,0,.3.2,1.4.5,2.4.8,3,3.4,3,4.1-.1.5-2.2,1.8-1.8,3.2,1,1.1,2.4,1.2,2.4,3.3,2.4s5.7,1.2,5.4,2c-.1.3-1.3.8-2.6,1.1-3,.7-7.4,3.5-7.8,5-.2.6-.8,1.4-1.5,1.7s-1.5,1.2-1.8,1.8c-.4.8-.9,1.1-1.5,1-4.8-.8-5.1-.7-6.2,2.5-.8,2.2-5.1,6-7.7,6.7-1.1.3-3,1.1-4.3,1.7s-3.1,1.2-3.9,1.2c-1.5,0-1.5,0-1.5,2.2s0,2.2-1.6,2.2-2.3.1-3,.2c-.9.2-2.1-.2-3.5-.9h0Z"/>
    <text class="st6" data-city="Tiranë" transform="translate(50 189.8)"><tspan x="0" y="0">Tiranë</tspan></text>
  </g>
  <g class="district">
    <path id="path3036" class="st0" d="M84.6,178c-.7-3-1.3-3.7-3.9-4.9-2.4-1.1-2.7-1.3-3-3.1-.2-1.2-.7-2.2-1.2-2.4-.5-.3-1.5-1.5-2.2-2.7-.8-1.3-2-2.6-3.1-3.1-5.6-2.9-8.9-6.9-8.9-10.8s-.3-2.5-1-3.1c-.8-.7-.9-1.3-.7-3.2.3-2.5-.4-5.5-1.6-6.9-.6-.7-.6-1-.1-1.6.9-1.1,1.9-.9,2.7.7.7,1.4.8,1.4,4.5,1.4,2.1,0,4.4.2,5.1.5,1.5.6,2.9,0,3.4-1.1.4-1,3.2-1.7,4.4-1.1,1.5.8,3.2,0,4.1-1.8.6-1.3,1.3-1.8,2.6-2.2,1-.3,2.9-1.4,4.4-2.4s2.9-2,3.2-2c.6,0,1.1,2.4,1.2,5.4,0,.9.4,2.8.9,4.1l.9,2.4-1.4,2.9c-1.8,3.8-1.8,5,.3,7.4,1.9,2.2,2,2.7,1,3.5-.8.7-1,2.6-.2,3.9.4.7.3,1.3-.2,2.3-.7,1.3-.9,4.2-.7,6.9.1,1-.3,1.4-2.3,2.5-2.9,1.6-3.8,2.7-3.5,4.2.2,1.2,0,1.2-2.2,1.7-1,.2-1.4.7-1.8,2.1l-.5,1.8-.3-1.5h0Z"/>
    <text class="st2" transform="translate(72.9 153.2)"><tspan x="0" y="0"></tspan></text>
  </g>
  <g class="district">
    <path id="tepelene" class="st0 city" data-city="Tepelenë" d="M71.4,332.4c-5.4-1-5.7-1.2-6.7-2.8-1.1-1.8-2.4-7-2-8.2.2-.7-.7-1.9-3.7-4.9-2.2-2.2-3.9-4.1-3.9-4.2s.9-.9,1.9-1.5c2.3-1.4,2.8-2.9,1.8-5.2-.7-1.6-.7-1.8.8-4.2,1.7-2.7,7.5-8.3,9.9-9.5,1.5-.8,1.7-.8,3.2,0,2.1,1.1,6.5,2.2,8.8,2.3,1.4,0,1.9.3,2.1,1.1.1.6.8,1.3,1.5,1.6l1.2.6-1.4,1.4-1.4,1.4,1.1,5.3c.9,4.5,1.3,5.5,2.7,7,1.3,1.4,4.7,7,4.7,7.8s-.6.5-1.4.8c-2.4,1-2.6,1.6-1,3.8,1.8,2.4,1.6,2.5-4.4,2.9-5.1.3-6.5,1-7.5,3.5-.4,1.1-1.1,1.9-1.4,1.9-.3,0-2.6-.4-5-.9h0Z"/>
    <text class="st1" data-city="Tepelenë" transform="translate(58.9 315.4)"><tspan x="0" y="0">Tepelenë</tspan></text>
  </g>
  <g class="district">
    <path id="gjirokaster" class="st0 city" data-city="Gjirokastër" d="M114.7,383c-.5-.4-1.8-1-2.8-1.3-1.7-.5-1.8-.6-1.8-2.6s-1.6-4.7-3.4-5.3c-.5-.2-1-.6-1-1s-.9-1.7-1.9-2.9c-1.2-1.4-1.9-2.7-1.9-3.6s-.6-1.7-3.8-3.6c-4-2.5-6-4.3-10.7-10.2l-3-3.7-3.3-.5c-2.6-.4-3.5-.3-4.7.2-.8.4-1.6.5-1.8.3-.2-.2-1-2.1-1.8-4.1-.8-2.1-2-4.5-2.6-5.3-1.5-2-2.9-5.8-2.3-5.8s2.6.4,5.1.8c2.8.5,4.8.6,5.1.3.2-.2.9-1.4,1.5-2.6l1.1-2.2,4.3-.3c2.4-.2,5-.6,5.8-.9.8-.3,2.1-.5,2.8-.5.7,0,2.5-.4,3.9-1s3-.9,3.4-1c.4,0,2.7,1.4,5.1,3.1,2.9,2.1,4.6,3.1,5.2,2.9.7-.2.9,0,.9.9,0,2.9.9,4,4.8,6.2,3.2,1.8,4,2.5,5.1,4.6.9,1.6,1.2,2.5.8,2.6-.3.1-1.5.9-2.6,1.7-1.4,1.1-2.1,2-2.2,3,0,.8-.5,1.9-.9,2.4-.4.5-.7,1.3-.7,1.8,0,.9-2.1,1.4-5.7,1.4-2.7,0-3.1,1.2-1.4,4.1.8,1.4,1.3,2.9,1.3,4.3s.3,2.6,1.1,3.6c.6.8,2.3,3.1,3.6,5.1,2.1,3.1,2.5,4.1,2.5,5.9s-.3,2.4-.9,3c-1.1,1-1,1-2.3,0h0Z"/>
    <text class="st4" data-city="Gjirokastër" transform="translate(77.4 344.6)"><tspan x="0" y="0">Gjirokastër</tspan></text>
  </g>
  <g class="district">
    <path id="permet" class="st0 city" data-city="Përmet" d="M123.8,343.8c-1.9-3.4-2.3-3.8-5.8-5.7-3.7-2.1-3.7-2.1-4-4.3-.3-2.8-.7-3.4-2.5-3.4s-2.6-.9-5-2.7c-4.9-3.6-5.7-4-7.1-3-.6.4-1.6.8-2.2.8s-1.5.3-2.1.6c-.8.5-1.2.4-2.7-1.1l-1.7-1.7,1.7-.9c.9-.5,1.7-1.2,1.7-1.5,0-1.5-3.3-7.3-5.6-9.9-.7-.8-1.4-2.7-2-5.7l-.9-4.5,1.3-1.4c1-1,1.3-1.7,1.1-2.6-.5-2,.3-2.6,2.4-1.9,1.9.6,4.4,3.4,6.1,6.7.7,1.3,1.4,2.1,2.2,2.3.7.2,1.9,1.3,2.7,2.5.8,1.2,2.1,2.5,2.8,2.9,1.2.6,1.6.5,4.4-1l3.1-1.7-.3-1.9c-.3-1.8-.2-1.9,1.5-3,1.6-1,2.2-1.1,5.6-.9,3.5.2,3.8.3,4.1,1.4.2.6.2,1.5,0,2-.4,1.1,1.1,5.4,2.2,6.2.8.5.9,1,.6,2.6-.4,2.3.6,9.1,1.5,10.6.3.6.9,2.6,1.2,4.6.5,3.1.5,3.7-.2,4.4-1.6,1.8-1,3.1,2.6,5.3,1.9,1.2,3.7,2.6,4.1,3.2,2.2,3.1,3.1,4.8,2.9,5.2-.1.2-1.4.6-2.7.9-2.1.5-2.7.4-4.3-.4-1.8-.9-1.9-.9-3.3,0l-1.5.9-2.1-3.6h0Z"/>
    <text class="st4" data-city="Përmet" transform="translate(97.1 319.6)"><tspan x="0" y="0">Përmet</tspan></text>
  </g>
  <g class="district">
    <path id="kolonje" class="st0 city" data-city="Kolonjë" d="M138.5,342.9c-.8-.9-1.8-2.2-2.2-2.9s-2.4-2.2-4.3-3.5l-3.4-2.3,1-1.1c1-1.1,1-1.2.3-5.4-.4-2.4-1.1-5-1.6-5.8-.6-1.1-.8-2.7-.9-6.7,0-4.8-.1-5.4-1.1-6.2-1.4-1.2-2.1-2.9-1.9-5.6,0-1.2.2-2.2.2-2.2s1.7.4,3.7,1c3.3.9,3.6.9,4,.2.3-.5,1-1.5,1.7-2.3l1.2-1.4,2.7.6c2.7.6,2.8.6,4.6-.9,1-.8,2.3-1.9,2.8-2.5.8-.9,1.5-1,5-1s4.1.2,4.1.6c0,.3.2,3.5.5,7.1l.5,6.5-1.7,2.1c-.9,1.1-1.7,2.6-1.7,3.2s-.5,1.6-1.1,2.2c-3.2,3.2-3.4,3.9-3.1,8l.3,3.9-1.7,1.9c-1.6,1.8-1.7,2.1-1.8,5.2,0,3.2-.6,7.7-1,8.1-.1,0-1,.3-2,.5-1.6.3-1.9.2-3.2-1.4h0Z"/>
    <text class="st1" data-city="Kolonjë" transform="translate(128.7 313.4)"><tspan x="0" y="0">Kolonjë</tspan></text>
  </g>
  <g class="district">
    <path id="path3076" class="st0" d="M54.9,301.1c-.8-.6-.9-.9-.3-3.7.7-3.7.4-4.9-1.4-5.2-1.2-.2-1.3-.4-1-1.4.3-.9.2-1.4-.9-2.4-.7-.7-1.8-1.9-2.4-2.7-1.1-1.4-1.1-1.5-.4-2.9.9-1.8,1-3,0-4.2-.5-.7-.5-1.1-.1-1.8.4-.6.3-1.1-.2-1.7-1.7-2-1.6-2,4.3-2,6.1,0,9.1.5,9.6,1.6.2.4,0,1.4-.6,2.2-.8,1.4-.8,1.5.2,2.3.7.6,1.1,1.7,1.4,3.7.4,3.2,1.7,4.9,4,5.4,2.8.6,2.9.7,1.4,1.9-3.1,2.3-8.4,7.4-9.7,9.4-1.5,2.2-2.4,2.6-3.9,1.5h0Z"/>
    <text class="st3" transform="translate(44.3 286.1)"><tspan x="0" y="0"></tspan></text>
  </g>
  <g class="district">
    <path id="vlore" class="st0 city" data-city="Vlorë" d="M58.6,349.2c-.6-.7-1.5-1.2-2-1.2-1,0-1.6-.7-2.3-2.7-.3-1.1-1-1.7-2.4-2.2-1.1-.4-2.3-1-2.6-1.3-.4-.3-1.9-1-3.5-1.6-1.5-.6-4.4-2.2-6.4-3.6-2-1.4-4.8-3.1-6.3-3.8-4.4-2-6.9-4-10-8-1.6-2.1-3.5-4.4-4.4-5.2-1.1-1-1.6-2-1.8-3.6-.4-2.8-1.6-5.3-4.7-9.4-2.2-3-2.4-3.4-1.7-4.1.7-.7.9-.7,2.2,0,2.4,1.3,4.4,4,5.5,7.5,1.3,4.4,2.5,5.9,4.6,5.9s4-2.1,4.4-5.7c.2-1.5.5-4.3.7-6s.2-3.6,0-4.1c-.2-.5-2.1-2.8-4.3-5.2-3.8-4.1-4.4-5.4-1.5-3.2,2.2,1.6,2.8,1,3.2-3.2.2-2,.2-4,0-4.4-.4-1-4-2.6-5.8-2.7-.8,0-1.7.3-2,.8-.5.7-.7.4-1.7-1.8-.6-1.4-1.8-3.5-2.6-4.5-1.4-1.8-1.5-1.9-.6-2.6,1.5-1.1,3.7-.8,5.8.8,2.2,1.7,2.6,1.7,3.8.6.8-.8,1-.8,1.4,0,.2.4,1,.9,1.6,1.1.7.2,1.5.9,1.8,1.6.4.9,1.1,1.4,2,1.5.8,0,1.8.8,2.6,1.8.7.9,1.7,1.7,2.2,1.7s.9.2.9.4c-.2,1.1.3,1.6,2.1,2.2,1.1.4,2.9.9,3.8,1s3.3,1,5.1,2c1.8.9,3.6,1.7,4,1.7.7,0,.8.7,0,2-.7,1.3.2,2.4,2.1,2.4h1.5l-.4,2.3c-.7,4.5-.6,5.1,1.2,6.3,2,1.3,3.4,3.4,3.4,4.8,0,.6-.8,1.6-2.2,2.5-3,2.1-2.9,3.6.6,6.1,2.4,1.7,4.6,4.7,4.2,5.7-.2.5,0,1.4.4,2,.4.6.9,1.9,1.1,2.9.2,1,1.4,3.6,2.7,5.8s2.2,4.2,2.1,4.4c-.1.2-.9.4-1.7.4-2.2,0-3,2.3-2.6,7.2.5,5.6-1,7.5-3.7,4.7h0Z"/>
    <text class="st6" data-city="Vlorë" transform="translate(29.5 314.4)"><tspan x="0" y="0">Vlorë</tspan></text>
  </g>
  <g class="district">
    <path id="durres" class="st0 city" data-city="Durrës" d="M34.1,192.4c-1-.7-2.6-2.2-3.6-3.4-1.7-2-2.7-2.5-6.6-3.3-1.6-.3-1.8-.9-1.9-5.6-.1-3.3,0-3.7.8-3.8,1.6-.3,2.6-1.5,2.9-3.5.2-1.4.7-2.1,1.9-2.9,1.1-.7,2-1.9,2.8-3.8,2.5-5.6,2.2-7.6-1.3-9.7-2.6-1.6-3.5-3.4-1.3-2.8.7.2,2.8.4,4.6.4,1.8,0,3.5.2,3.7.5.3.3.9,1.6,1.4,3l.9,2.5-1.8,1.4-1.8,1.4,1.8,3.6c1.1,2.3,2,4.9,2.4,7.2.4,2.7.8,3.8,1.7,4.5,1.6,1.4,1.9,4.3.8,8.2-.7,2.3-1.2,3.3-2.1,3.7-.6.3-1.6,1.3-2.1,2.1-.5.8-1.1,1.5-1.2,1.5-.1,0-1.1-.6-2.1-1.3h0Z"/>
    <text class="st3" data-city="Durrës" transform="translate(25.2 182)"><tspan x="0" y="0">Durrës</tspan></text>
  </g>
  <g class="district">
    <path id="path3070" class="st0" d="M156.3,297.2v-2.1l4.6-3.3c5.4-3.8,5.7-4.7,2.3-6.4,0,0,0-.9.3-1.8.4-1.3.3-2.2-.2-3.3-.5-1.3-.5-2,0-4.2.4-1.4,1.1-3.2,1.7-4s1.5-2.5,2.1-3.9c1.1-2.4,1.3-2.6,4-3.4,4.4-1.4,5.2-1.2,7.2,1.1,1,1.1,1.9,2.7,2.2,3.6.5,1.9-.8,13.9-1.5,14.2-1.2.5-6.2,6.1-6.2,7,0,1.4-2.3,5.2-3.1,5.2s-1.4-.3-2.3-.7c-.9-.4-2.7-.8-4-.9q-2.4-.2-3.5,1.9c-1.9,3.7-3.6,4.1-3.6.8h0Z"/>
    <text class="st3" transform="translate(165.1 278)"><tspan x="0" y="0"></tspan></text>
  </g>
  <g class="district">
    <path id="fier" class="st0 city" data-city="Fier" d="M44.5,285.2c-.9-.5-2.8-1-4.1-1.2-3.4-.5-3.7-.7-3.7-2.3s-.2-1.4-1.4-1.4-1.9-.5-2.8-1.5c-.8-.8-1.7-1.5-2-1.5s-1.4-.7-2.3-1.6c-.9-.9-2.5-2.2-3.5-2.9l-1.8-1.3-1.1,1.1-1.1,1.1-1.1-1c-1.9-1.7-3.3-2.2-5.4-1.9-1.9.3-1.9.3-.9-.4,2.5-1.8,3.2-3.8,3.4-10.3.3-5.9.3-6.1,1.5-6.9,2.1-1.3,2.5-2.1,2.2-4-.2-1.3,0-2.2.5-3.1,1.1-1.7.6-3.5-1.2-4.4-1.6-.8-1.9-1.7-.6-1.7s1.2-.3,1.7-.8c1.3-1.2,1.9-.4,1.9,2.3s.1,2.5,1.6,3.2c1,.5,3.3.9,6.4,1.1l4.9.3,1.3,3.6c1.2,3.5,1.4,3.8,4.5,6,2.5,1.8,3.6,2.3,4.8,2.2,1.2-.1,1.6-.4,1.7-1.2,0-.6.5-1.2,1-1.3s1.1-.8,1.4-1.5c.8-1.8,1.5-1.4,1.5.8s.3,2.4,1.1,3.3c.6.7,1.5,2.7,2,4.6.7,2.7,1.3,3.8,2.8,5.2,1,1,1.9,2.2,1.9,2.7,0,.8-.6.9-7.4.9s-7.4,0-7.6.8c0,.5.3,1.5.9,2.3.6.9.9,1.9.8,2.6-.2.7,0,1.6.7,2.3.9,1.2.9,1.2,0,3.1-.5,1.1-.8,2.3-.7,2.8.4,1.1.4,1.1-1.7,0h0Z"/>
    <text class="st6" data-city="Fier" transform="translate(26.3 266.7)"><tspan x="0" y="0">Fier</tspan></text>
  </g>
  <g class="district">
    <path id="berat" class="st0 city" data-city="Berat" d="M85.3,294c0-1.3-.8-1.8-3.4-1.8-1.2,0-2.8-.2-3.6-.4s-2-.4-2.6-.6c-.6-.1-2-1.1-3.2-2.1-1.2-1.1-2.8-2-3.8-2.2-2.8-.5-3.4-1.2-3.8-4.6-.2-1.7-.8-3.5-1.2-4-.5-.6-.6-1-.3-1.2.9-.6.5-3.1-.7-4.6-.7-.8-1.2-1.9-1.2-2.5s-.8-1.8-1.9-2.8c-1.5-1.4-2.1-2.6-3.2-5.9-.7-2.3-1.6-4.3-2-4.5-.4-.2-.7-1.1-.7-2,0-1.3.2-1.7,1.1-1.8.8-.1,1.2-.6,1.5-2.2.4-1.8.6-2.1,2.5-2.6,2.5-.7,3.1-.4,3.1,1.5s.6,2.1,2.9,4.4c1.6,1.6,3.7,3.2,4.6,3.6.9.4,1.8.9,2,1.2.7,1.1,2.2.4,3.6-1.5,1.7-2.4,1.8-3.6.4-4.3-1-.5-1-.6.4-2,1.1-1.2,1.4-1.9,1.4-3.8s0-2.4,1.5-2.4,1.6.2,1.8,1.2c.2.7,0,1.8-.4,2.6-.9,1.7-.6,2,1.9,2,3.6,0,4.2.4,4.2,2.5s.3,2.2,1.5,3.2c.8.7,1.5,1.6,1.5,1.9s1,.7,2.2.9c2.4.4,2.7,1,1.5,3.2-.9,1.5-.9,3.4-.1,7.8.7,4.3.4,5-2.8,5.4-6.2.9-6.5,1.1-4.3,3.8.9,1.1,1.6,2.8,2.2,5.9.8,3.9.9,4.5.2,5.2-.4.4-.9,1.6-1.2,2.5-.5,1.9-1.6,2.6-1.6,1.1h0Z"/>
    <text class="st4" data-city="Berat" transform="translate(66.1 273.1)"><tspan x="0" y="0">Berat</tspan></text>
  </g>
  <g class="district">
    <path id="skrapar" class="st0 city" data-city="Skrapar" d="M103.8,306.6c-.8-.8-1.5-1.9-1.7-2.4-.2-.5-1-1.3-1.9-1.6-1-.4-2-1.3-2.5-2.3-1.5-2.9-5-6.6-6.5-7-1.9-.4-2.2-1.1-1.2-2.2.8-.9.8-1.1,0-4-.4-1.7-.9-3.9-1.1-5s-.8-2.4-1.3-3l-1-1.1,1.9-.3c4.1-.7,4.6-.8,5.5-2,1.2-1.5,1.2-2.5.2-6.7-.4-1.8-.6-3.8-.4-4.5.3-1.1.5-1.2,1.8-1,.8.2,1.9.3,2.5.3s1.3.5,1.6,1.2c.5,1.1.8,1.2,4.4,1.2h3.9l1.2,2.7c.7,1.5,2.3,4.4,3.7,6.4,1.3,2,2.4,3.9,2.4,4.3,0,1,1.5,2.1,3.8,2.7,2.2.7,2.3.7,1.6,3.6-.3,1.2-.2,2.8.1,4.5.5,2.2.4,2.9-.2,4.2-.5,1.1-.6,1.9-.3,2.8.2.6.3,1.3.2,1.4-.3.3-2.3.3-5,0-1.1,0-2.3.4-4,1.5-2.4,1.6-2.5,1.7-2.2,3.4.3,1.8.2,1.9-2,3.1l-2.3,1.3-1.4-1.5h0Z"/>
    <text class="st4" data-city="Skrapar" transform="translate(91.8 288.1)"><tspan x="0" y="0">Skrapar</tspan></text>
  </g>
  <g class="district">
    <path id="korce" class="st0 city" data-city="Korçë" d="M126.5,299.9c-3.5-1-5.1-2.7-4.2-4.4.3-.6.5-2.7.4-5.3,0-2.3,0-5.1.3-6.2l.4-2-2.6-.9c-3-1-3.8-1.5-3.8-2.5s-1-2.1-2.2-3.9c-2-2.8-6.3-11.2-5.9-11.6.6-.6,8-1.6,10-1.4l2.5.3,1.4-2.2c.8-1.2,1.7-3.1,2-4.1.3-1,1-2.4,1.5-3l.8-1.1,2.8,1.1c1.7.7,2.9,1.4,3.1,2,.3,1.1,1.7,1.5,4.5,1.3,1.8-.1,2.3-.4,3.1-1.7.7-1.2,1.2-1.5,2-1.4.6.1,1.8-.3,2.8-1,1.7-1.1,1.9-1.2,3.2-.5.8.4,2.1,1.3,2.9,2,2,1.7,3.1,1.4,3.6-.9.3-1.4.9-2.1,2.5-3,1.1-.7,2.7-1.2,3.5-1.2,1.6,0,2.6-.8,2.6-1.9,0-.4-.8-2.4-1.7-4.4-1.5-3.2-1.6-3.7-1-4.4.6-.6,1-.6,2.9.4,1.4.7,3.1,1.1,4.8,1.1s3,.3,3.5.7c.9.7.8.7-.6.4-1.3-.3-1.6-.1-2.1,1-.6,1.3-.5,1.5,1.7,4.5.3.4.2.9-.4,1.4-.5.5-.8,1.6-.8,2.6s-.3,2.2-1.5,3.2c-.9.9-1.5,1.9-1.5,2.7,0,2.6,2.8,3.9,3.9,1.8.5-1,.6-1,1.7.9,1.9,3.1,1.7,3.7-2,4.7-3.6,1-3.7,1.2-4.9,4.2-.5,1.2-1.5,3.1-2.2,4.1-1.7,2.5-2.8,7.4-2,9.3.4.9.5,1.8,0,3.2-.5,2,0,3.9,1,3.9s0,.8-3.4,3.2l-3.4,2.3h-4.8c0,0-4.8-.2-4.8-.2l-2.9,2.5c-3,2.6-3.5,2.7-7.4,1.6-.8-.2-1.5.1-3.1,1.7-2.2,2.2-2.4,2.3-6.5,1.1h0Z"/>
    <text class="st6" data-city="Korçë" transform="translate(130 276)"><tspan x="0" y="0">Korçë</tspan></text>
  </g>
  <g class="district">
    <path id="path3086" class="st0" d="M98.2,373.6c-.7-1-1.7-2.1-2.2-2.2-1.7-.5-3.9.2-4.8,1.7-.6,1.1-1,1.3-2.1,1.1-.7-.1-1.7,0-2.3.3-1.5.8-2.7-.1-5.5-4.3-2.1-3.2-2.4-3.9-2.4-6.2s-.4-3.6-4.7-8.7c-1.9-2.2-2.7-3.6-3.1-5.5-.9-4.1-.6-5,.7-2.1,1.5,3.2,2.6,3.9,4.9,2.8,1.6-.8,4.9-.7,6.4.2.3.2,2.4,2.6,4.8,5.4,3.4,4.1,4.9,5.5,8.1,7.5,3.2,2,3.9,2.7,4.3,4.1.3.9,1.1,2.5,2,3.6s1.5,2.1,1.5,2.4c0,1-1.5,2-2.9,2s-1.7-.4-2.6-1.9h0Z"/>
    <text class="st3" transform="translate(81.7 368.6)"><tspan x="0" y="0"></tspan></text>
  </g>
  <g class="district">
    <path id="path3054" class="st0" d="M50.4,225.8c-1.9-1.2-2.5-3-1.4-4.3.4-.5.8-1.5.8-2.3,0-1.1.6-1.9,2.6-3.7l2.6-2.3h4.4c4.2,0,4.4,0,5.2,1.3.5.7.9,2.5,1,4.1.2,2.3,0,3.1-.8,4.3-.6.8-1.2,2-1.5,2.7-.6,1.7-2.6,1.7-5.4,0-2.7-1.5-3.7-1.5-4.4,0-.7,1.5-1.1,1.5-3.2.2h0Z"/>
    <text class="st3" transform="translate(51.9 221.3)"><tspan x="0" y="0"></tspan></text>
  </g>
  <g class="district">
    <path id="path3062" class="st0" d="M70.6,256.3c-1-.6-2.9-2.2-4.3-3.5-1.9-1.9-2.4-2.7-2.4-3.9s-.3-1.7-1.5-2.4c-2.3-1.2-1.4-1.4,2.8-.5,3.5.7,3.9.7,6.1,0,2.7-1,3.9-.6,4.2,1.5.1.9-.3,1.8-1.3,3-1.8,2-1.9,2.8-.4,3.7,1,.7,1,.7.2,2-1,1.5-.9,1.5-3.3.1h0Z"/>
    <text class="st3" transform="translate(61.1 251.2)"><tspan x="0" y="0"></tspan></text>
  </g>
</svg>