<?xml version="1.0" encoding="UTF-8"?>
<svg id="Layer_1" xmlns="http://www.w3.org/2000/svg" version="1.1" xmlns:dc="http://purl.org/dc/elements/1.1/" xmlns:mapsvg="http://mapsvg.com" xmlns:rdf="http://www.w3.org/1999/02/22-rdf-syntax-ns#" xmlns:svg="http://www.w3.org/2000/svg" viewBox="0 0 612.6 697">
  <!-- Generator: Adobe Illustrator 29.8.2, SVG Export Plug-In . SVG Version: 2.1.1 Build 3)  -->
  <defs>
    <style>
      .st10 {
        fill: #feeac9;
      }

      .st10, .st11, .st12, .st13, .st14, .st15, .st16 {
        stroke-miterlimit: 10;
      }

      .st10, .st13, .st14, .st15, .st16 {
        stroke: #fff;
        stroke-width: 4px;
      }

      .st11, .st12 {
        stroke: #fd7979;
        stroke-width: 3px;
      }

      .st11, .st15 {
        fill: #fd7979;
      }

      .st12 {
        fill: #fff;
      }

      .st13 {
        fill: #fdacac;
      }

      .st14 {
        fill: #9a3f3f;
      }

      .st16 {
        fill: #ffcdc9;
      }
    </style>
  </defs>
  <path id="XK-PR" class="st10" d="M252.1,318.5v-.4c-.1,0,1.2-3.6,1.2-3.6v-2.2l-2.2-3.3.6-3.9,2.5-2.5,1.4-5.5,1.7-1.9,3.9-1.1,3.9-2.2,5,.3,1.6-3.3-1.9-4.1-.5-2.8,1.4-4.1h5l.5-3,2.8-1.9h5l3.6,2.5.3,3.3,3.3,1.1,5.8-4.1v-2.8l1.1-4.4,5.2-.3,3-.8,3.9-2.5h3l1.6,4.1,3,2.5,1.9,3.9,4.4,5.2,3.6-.3,6.4-6.1,3.3-3.6,4.4-3.6,3.9-2.2,3.3-2.8,3-1.6-1.1-5,.8-2.2,3-.6,1.1-9.1-2.2-1.7-2.2-1.1.3-3,5-4.1,2.5-3,3.6-3,2.5-.6v-2.2l5.8-.3,1.1-5.2-1.4-5.5-3.3-2.8-2.5-2.8-3.6-.8-.8-3.3-.5-11.6-3-4.4-.8-5.8-2.2-3.3v-6.1l3.9-4.1.6-8.6,2.8-7.7-.3-6.9-6.1-16.3-2.2-5.2-2.5-1.1-4.1-1.4-1.9-3.6.8-5-1.9-1.7-3.9-1.4-1.4-6.2-3.6-4.4.5-5v-2.2l1.6-3.9-2.5-3.3-1.7-3.3-2.2.6-3.6,2.5-3.3-4.1-1.9-3.9-.6-2.8h0l7.7-2.6,2.2-2.2,1.5-1.1,1-.3,2.8.5,7.9,4.2,2.5.8,1.8-.3,8.4-4.6,4.3-2.8,1.5-.4,1.7.2,1.6.8,4.3,4.2,2.2,3.3,1.5,3.6,3.6,11.2.5.2.7-.2,5-5.6,1.9-.9,1.6-.4,1.6,1,1.6,1.7.8,2.5.8,3.9,1,7.6.4,9.7v8.1c0,0-.8,11.7-.8,11.7l1.1,14.1.6.4,1-.4,5.8-11.1,1.6-1.5,1.8-1.6,2.3-.7,3,.4,3,1.9,1.8,1.7,5.1,15.1v2.4c-.1,0-4.9,12.2-4.9,12.2l-2.7,8.4.3,1.7,1.1,2.1,8-1.1,7.5-.4,16.4,4.1,9.1,9,6.1,12.1,2.3,1,8.2-3.6,2.5,3.6-.4,7.9-.5,4.4-3.4,9.9-6.4,9.3-.3,8.3,1.6,4.2,13.1,1.2h.9c0-.1,1.2.2,1.2.2l9.9.5,4.2,3.9,10.8,4h0l.4,4.3-1.7,2.2-.5,2.2-1.4,3.3-4.1,1.4v3.9l-1.1,4.1-4.4.3-2.8-1.1h-2.5l-1.1-1.7-2.5-1.9-2.8-.5-2.5,2.8-2.8.3-1.1,1.6,2.8,3,3,2.8v3.3l3.6,1.7,3,.5,1.9,3.3,4.1,1.1,1.4,3.6-1.9,1.4.5,1.9,2.5,3.6-3.3,1.4-.8,3v2.8l3.3,3.6,3.9,1.7v3l1.1,3.3,5.2,3.9,2.8,6.9-5.2,1.9-1.7,2.5-4.1-2.5-2.5-1.1-3,1.9-2.5-3.3h-5l-2.5,3.3-2.8,3,1.1,4.7v3.6l-4.4,2.5-4.4-.8-2.2-1.4-1.4-1.9-.6-2.5-2.5-.8-3.3-.5-1.4-2.5-4.7,1.7-4.4,2.2-3.9-1.4-2.2-2.8-4.7-.3-5.2,3.3-1.9,2.2-2.2,5.8,2.8,4.4,3.6,3.3-2.5,3.6.5,4.7.8,1.6,4.7,2.2-.3,2.8-2.5,6.6-4.7-.3-2.2-1.1h-2.5l-1.4,2.2,1.9,3.6-1.1,3.3.8,2.8-.8,2.4h0s-2.5.8-2.5.8l-1.4,2.8-2.2-.3-1.9-4.4-3-2.8-4.1.5-3.6-2.8-6.9.3-4.1,1.9-2.8.5-3.6-1.1-2.5,1.1-3.6,2.8-3-.3-.5-3.6-1.9-3.6h-4.4l-6.4-.8-1.7-2.5-2.2-.8-10.2,4.7-4.1-1.7-2.2-1.4-3.3-.3-5,.8-5.5-4.4-1.1,3-6.9,1.4-1.4-4.4-2.2-1.4-3.9-.3-2.8,1.7-4.1,3-1.1,3-6.4.5-3.8.8h0v-.2h0l-1.7-4.7-.3-3-6.1-1.9-5.8,4.1-2.8-2.2,3.6-4.7-1.4-3-.5-2.8,5.5-.6.3-6.6-1.9-.8-1.4-4.1-2.2.5-2.5,6.1h-6.6l-2.5,2.2-4.7.6-5.2,5.5-1.7-3.6.3-2.2,3.3-3.9,1.1-4.1-.5-3,3-2.8.5-6.9-5-3.9-1.4-1.4-1.9-.3v-2.8l4.1-4.1.8-5-5.5-3-6.6,1h0v-.2s-1.5.2-1.5.2Z"/>
  <path id="XK-KM" class="st15" d="M320.3,73.9l.6,2.8,1.9,3.9,3.3,4.1,3.6-2.5,2.2-.6,1.7,3.3,2.5,3.3-1.6,3.9v2.2l-.5,5,3.6,4.4,1.4,6.2,3.9,1.4,1.9,1.7-.8,5,1.9,3.6,4.1,1.4,2.5,1.1,2.2,5.2,6.1,16.3.3,6.9-2.8,7.7-.6,8.6-3.9,4.1v6.1l2.2,3.3.8,5.8,3,4.4.5,11.6.8,3.3,3.6.8,2.5,2.8,3.3,2.8,1.4,5.5-1.1,5.2-5.8.3v2.2l-2.5.6-3.6,3-2.5,3-5,4.1-.3,3,2.2,1.1,2.2,1.7-1.1,9.1-3,.6-.8,2.2,1.1,5-3,1.6-3.3,2.8-3.9,2.2-4.4,3.6-3.3,3.6-6.4,6.1-3.6.3-4.4-5.2-1.9-3.9-3-2.5-1.6-4.1h-3l-3.9,2.5-3,.8-5.2.3-1.1,4.4v2.8l-5.8,4.1-3.3-1.1-.3-3.3-3.6-2.5h-5l-2.8,1.9-.5,3h-5l-1.4,4.1.5,2.8,1.9,4.1-1.6,3.3-5-.3-3.9,2.2-3.9,1.1-1.7,1.9-1.4,5.5-2.5,2.5-.6,3.9,2.2,3.3v2.2l-1.4,3.6v.4h.1-1.2c0,.1-3.3,1.8-3.3,1.8l-2.2-.8-1.4-7.5-5.2-3.9-2.8-1.1-5.5-.5-1.6-8.3,6.1-4.4-1.7-5-2.8-1.6,2.2-2.5-3.9-2.8-.8-1.6-2.5,1.1-.8,3.9-3,3-5.5.3-2.8-3.3-4.7-8-.8-4.4-1.7-1.4-3.9-1.1-.6-3.3,1.9-4.1,2.2-.8,1.4.5,3.6-4.1,1.6-4.7.3-4.1-4.1-3.6-1.4-5.5,1.6-3.9,2.8-5v-8l1.7-2.8,1.9-4.1.6-8.3h-7.4l.3-6.4-3-4.4-3-1.6-1.1-3.6-3-3-5.8-.6-1.4-4.1-4.1,1.1-2.8,2.2-4.1,1.1-5.5.6-4.1,1.1h-3.1l3-6.3.2-2.9-10.3-12.8-1.9-3.8-1.1-3.4-.6-5.5,1.6-4.3,2.4-4,3.1-2.8,2.4-1,1.5-1,4.1-2,4.8-4.4,3.2-3.4,7.1-3.7,10.7-2.8,2.6-2,2.5.5,3,1.7,2.8,2.6,1.7.2.5-.4-.6-5.9,20.1-2.9,1.3-3.7-.4-10.2-4.1-8.8-1.4-8.9.9-4.8-.7-6.9-.8-.6h-.9l-3.4,1.5-1.2.2-1.3-.8-1.4-2.3-1.5-4.5v-2.3c-.1,0,.2-1.6.2-1.6l1.9-4.3.4-1.7v-1.6c.1,0-.3-3.5-.3-3.5l-1.1-2.2-1.7-1.9-12.1-11.1-2.5-4.3,1-3.1,16.6-4.1,10.2-4.9,5.1-3.7,10.5-6.7,2.4-.9,6.1-1.6,1.8-1.3,8.7-8,2.9-1.4,3.6-.4,9.1.3,9.1,5.8,4.4,7.4,9.9,18,4.1,6.1.4,1.9-.6,2.8-.5,1.1h-2.1c0,0-10.2-4.2-10.2-4.2l-2.6-.3-3.4,1-3.6,3.2,1.2,8.9,1.1,2.2,2.1,3,3.2,3.5,3.4,2.2,9.2,2.1,6.8,4.6,10,4.2Z"/>
  <path id="XK-DA" class="st16" d="M153.9,482.8l-1.3-1.8-3.4-2.2-.2-1.8-.5-1.3-3.2-2.4-2.5-3.1-3.9-1.4-2.2-1.4-5.1-.5-.3-.2-.6-1.8h-2.3c0,0-2.1-.9-2.1-.9l-1.8-.3-1.8-2.1-1.3-3.4-.7-.6-1.3-.3-3.8-2.2-1.6-.6-2.8-.3-2.5-1.4h-2.1c0-.1-.1-.3-.1-.3l.5-3-1.4-1.5-1.4-2.2-1.7-.7-1.3-1h-4.1c0,.1-.6.6-.6.6l-1.4,2-2.6.8-2,2.3-.9-.2-.7-.8-2.5-1.3-1.5-1.7h-1.1c0,0-4.5,1.5-4.5,1.5l-5.8.9-.3-.2-.8-1.6-2.4-.2-1.5-1.2-.2-1.1,1.3-1.8v-1.6c-.1,0-.9-2-.9-2l-2.3-2.8-.3-1.3,1.1-1.3.8-.5h.6l.2-.4.6-4.1v-3.6c-.1,0-1.8-1.9-1.8-1.9l.3-1.4-.5-1.7-1.2-.6-1.1-1.6-4.1-3.7-3.9-2.7-.5-1,2.2-4.5,2.7-1.5.9-.8.5-1-.3-3.2-.9-1.3-1.2-3.8-.7-.8-2.1-1-2-3.2-4.1-2.7-.5-.6-.2-1.9.5-.8,1.1-1.1.3-1.2-2.4-3.3-2.2-1.2-.6-.9-.9-3.5-.2-2.2-3.5-3.5-.8-1.1v-.9c-.1,0,.3-2.1.3-2.1l-.2-1-.5-.8-3.2-1.7-.7-1.3-.5-.4-4.9-1.9-2-1.2-3.5-1.2-.4-.5-.2-1.6h-2.7l-4.3-2.4-.8-.7-1.3-3.3-1.9-2.2-.5-2.3-2.7-1.8-2.1-.3,4.9-12.3.4-2.9-.4-2.5-1.7-4.7-.4-4.6.7-3.3,1.9-2.9,1.7-1.5,4-2.1,4.5-5.1,3.1-4.5,1.5-1.7h0l6,4.3,7.5.3,5.5,2.2h6.3l3.3,1.1-2.5,3.6-2.8,3.3.8,3.6,2.8.8,4.1,6.9,2.5.8,5.5-.5,4.7,3.3,11.9,4.4,2.8.5,2.5-.5,4.4-2.5,1.4-3.6,3,.5,2.2,2.8,2.2,1.1,2.5,2.8,2.2,3.3-3.3,1.4,1.4,2.8,2.2,2.5,3.9.5.8,2.5-2.5,2.5-1.4,1.9,3,2.2,11-.5,3.6-1.9,2.8-1.9,5.5,1.4,2.5,1.1h5.8l6.6-3,7.2,1.1,2.8,3,3,1.4,5.2-1.9,1.9.3,2.2,2.8-1.6,3.9,2.2,2.8v3l3.9,6.1,2.8-1.1h0l3-.3h0l3.6,1.9,2.2,6.1,2.5,1.7,5.5.3,1.4,4.7.3,5.5,3.3.5h10.2l5.2.8,3.3,3.3,3.6,1.7.8,3.3,6.1,1.1,1.6.8-1.1,5.8,2.8,2.5,3.3.3,1.4,2.5-4.1,4.1,2.8,3,3,3.9-.3,4.7-1.1,6.1,1.9,6.1-2.8,2.8.6,1.9.6,5.2-3,1.9-1.7,4.1v3.3l-3.9,3.3-2.5-.8-1.4-3.3-.6-2.8-2.2-3.6h-5l-2.2,2.2-1.7,4.7-1.7,2.8-2.5,3-1.9,1.4-.8,3.6-3-1.6h-3.3v-4.4l-3.6-.5h-4.7l-3.9,1.1-1.1,2.8-1.7,2.2-1.1-3.3-2.2-2.8-.6,2.5-.8,6.9-5.5,1.1-1.4,2.2-3,3.6-6.1,1.4-.3,4.1-3.6,2.2-6.9,1.4-2,3.3Z"/>
  <path id="XK-GN" class="st14" d="M425.6,387.3l.8-2.4-.8-2.8,1.1-3.3-1.9-3.6,1.4-2.2h2.5l2.2,1.1,4.7.3,2.5-6.6.3-2.8-4.7-2.2-.8-1.6-.5-4.7,2.5-3.6-3.6-3.3-2.8-4.4,2.2-5.8,1.9-2.2,5.2-3.3,4.7.3,2.2,2.8,3.9,1.4,4.4-2.2,4.7-1.7,1.4,2.5,3.3.5,2.5.8.6,2.5,1.4,1.9,2.2,1.4,4.4.8,4.4-2.5v-3.6l-1.1-4.7,2.8-3,2.5-3.3h5l2.5,3.3,3-1.9,2.5,1.1,4.1,2.5,1.7-2.5,5.2-1.9-2.8-6.9-5.2-3.9-1.1-3.3v-3l-3.9-1.7-3.3-3.6v-2.8l.8-3,3.3-1.4-2.5-3.6-.5-1.9,1.9-1.4-1.4-3.6-4.1-1.1-1.9-3.3-3-.5-3.6-1.7v-3.3l-3-2.8-2.8-3,1.1-1.6,2.8-.3,2.5-2.8,2.8.5,2.5,1.9,1.1,1.7h2.5l2.8,1.1,4.4-.3,1.1-4.1v-3.9l4.1-1.4,1.4-3.3.5-2.2,1.7-2.2-.4-4.3h0l.5.2,17.3-.3,13.5,3.2,11.3,7.3,13.3,23.4,8.5,7.3,7.1-2.9,2.4-4.5,9.1-9.8,1.7-1.2,1.4-.6,2.2-.4,3.4.6,2.7,1.6,5.5,4,2.2,2.9,1.2,4.5-.4,6,.7,5.4,2.8,4.2,2.1,3.9-2.9,2.9-10.9,5-9.1,15.8-2.2,16.5-4.7,14.2-6.7,8-17.8,9-9.9,9.1-2.5,7.4,2.8,6.3-3.7,17.6-10.3,7.5-5.4,10-.6,8.9,3.7,8.1,6.8,3.3v5s-1.4,3.8-1.4,3.8l1,11.6-24.5,2.1-8.5,2-2.4-.3-2.8-2.1-7.2-3.9-3.4-.4-5.1.4-1.3.3-1.1,1.2-.2,4-.4,1.5-1.1,2-3,2.3-12.1.8-3.7,1.4-1.1,1h0l-1.4-1.4-1.7-3.6-3.9-1.9-4.7,1.4-2.5-.3-2.2-3.9-3.3-.8-3.9,1.9-1.9-3h-2.2l-1.4-3-5.5-9.4-2.8-.5-.5-7.5,1.9-2.8.5-3.6,3.6-.3.6-4.1.8-2.8.3-2.5-8,1.9-2.5-3.9-4.4-.6,1.7-3.9v-4.1l1.9-1.7h3.6l1.9-3,2.8-1.4,3-.3,4.7,3.9v-3.3l2.5-2.5-2.5-3.3-3.6-3.3.8-3.9,1.4-3.3,1.7-6.6-6.6-5-1.4-4.4h0l-1.6-4.4Z"/>
  <path id="XK-PE" class="st13" d="M180.8,360.5h-.8c0,0-2.8,1.2-2.8,1.2l-3.9-6.1v-3l-2.2-2.8,1.6-3.9-2.2-2.8-1.9-.3-5.2,1.9-3-1.4-2.8-3-7.2-1.1-6.6,3h-5.8l-2.5-1.1-5.5-1.4-2.8,1.9-3.6,1.9-11,.5-3-2.2,1.4-1.9,2.5-2.5-.8-2.5-3.9-.5-2.2-2.5-1.4-2.8,3.3-1.4-2.2-3.3-2.5-2.8-2.2-1.1-2.2-2.8-3-.5-1.4,3.6-4.4,2.5-2.5.5-2.8-.5-11.9-4.4-4.7-3.3-5.5.5-2.5-.8-4.1-6.9-2.8-.8-.8-3.6,2.8-3.3,2.5-3.6-3.3-1.1h-6.3l-5.5-2.2-7.5-.3-6-4.3h0l2.7-3.5-.3-1.3-3.5-2.3-2.2-2.1-1.2-1.5-2.5-4.6-2.1-3-2.8-1.5h-2.1c0,0-1.8-.6-1.8-.6l-1.1-.8-1.4-2.1-1.5-1.3-3.3-1-.7-.8-1.1-2.7-.7-.9-2.2-7.6-1.4-2.5-.3-1.4v-1.1c0,0,1.7-2.3,1.7-2.3l1.4-1.5,1.4-2.2.5-1.3.3-1.8v-1.9c0,0,1.1-2.4,1.1-2.4l.6-.5.9-.5h1.2c0,.1,4.3,1.9,4.3,1.9l2.4.5,1.2.8,2.2.4,3.5,1.4,4,2,3.9.6,3.1,1.7,3.6,1.2,3.2.7,2.6-.5,4.4.4h7.9s5.5.5,5.5.5l4.8,1.7h4.1c0,0,3.6-1.6,3.6-1.6l8.4-11.8,1.2-1.1,2.2-2.7v-.9c.1,0-.2-1.2-.2-1.2l-1.7-3.1-.9-3.6.2-1.3.7-1.1,3.5-3.5,4.5-2.4,2.2-.8,1.4-1.3,1.8-2.3,1.4-1.2,1.5-.4,5.5,1.6,2.3.2.9.4,3.1.2,11.2-2,24.6-5.1h1s10-1.5,10-1.5l.8-.7,2.9-1.3,1.8-1.3,3.1-5h3.1l4.1-1.1,5.5-.6,4.1-1.1,2.8-2.2,4.1-1.1,1.4,4.1,5.8.6,3,3,1.1,3.6,3,1.6,3,4.4-.3,6.4h7.4l-.6,8.3-1.9,4.1-1.7,2.8v8l-2.8,5-1.6,3.9,1.4,5.5,4.1,3.6-.3,4.1-1.6,4.7-3.6,4.1-1.4-.5-2.2.8-1.9,4.1.6,3.3,3.9,1.1,1.7,1.4.8,4.4,4.7,8,2.8,3.3,5.5-.3,3-3,.8-3.9,2.5-1.1.8,1.6,3.9,2.8-2.2,2.5,2.8,1.6,1.7,5-6.1,4.4,1.6,8.3,5.5.5,2.8,1.1,5.2,3.9,1.4,7.5,2.2.8,3.3-1.7h0l2.8-.3-.3,4.1h0l-2.2,3.3-.6,3.6h-7.7l-3.3-.5-2.2-2.8-8.6,3.9-4.4,8-1.9,2.8-.6,5.2-1.9,1.9-1.4,3-3.3,1.7.3,3.6-5-.3-5.5.8-5,2.2-7.4-1.6h-4.4l-5.5.8-1.9,2.4Z"/>
  <path id="XK-UR" class="st15" d="M460.5,488.3l-2,1.7-3.2,4.4-4.9,5.5-7.8,13.9-8.5,26.4-4,5.2-2.2,2.2-2.7.8-4.2.7-3.1-1.9-3.5-.4-3.1,1.2-2.2.3-1.2-.2-1.4-1.3-1-2.1-.4-3.1-1.2-3.8-4.2-7.5-9.2-9.4-1.4-5.1-.7-6.7-1.6-3.5-2.6-3.1-1.6-1.4-2.1-1h-2.2c0,0-6.8-1.2-6.8-1.2l-1.8.5-1.5,1.2-2.6,3-9.1,5.1-2.9,5.2-2.4,2.6-6.9,5.1-2.4.8-2.9.7-3.6,2.3-4.3,3.4h0l-2.8-7.3-3.3-7.2-3-3.3-6.1-1.1-4.7-3.3-11,.3-8.6-1.4-3.6-1.4-.5-4.4,2.5-.8,2.2-3-.6-2.8-1.1-1.9.3-2.8,3.6-1.6,6.4,3.6,2.8-3,1.4-3,3.6-2.8,4.1-1.1,1.9-5.2.6-3.9,3.3-.8,2.8,2.8,2.8-3.3,4.4-.8,1.9-.8-2.5-2.8-1.6-5.5,3-1.9.8-2.8-2.2-3v-3.3l-2.8-.5v-4.4l2.2-2.8.5-2.8-3.3-2.5v-5l-2.8-3.6-4.1-3.9h-5l-2.5-1.9-.3-3,3.6-1.7,5.5,2.8,1.7-3.3-2.2-2.5-2.5-.8-1.9-2.2v-2.8l3.6-.3,1.1-4.1,4.1-.3,1.1-1.7-3-2.8-2.2-1.1-2.2-3.3.5-3.9-3-1.1-4.1-.5-4.4-1.1-1.6-1.7h-3.6l-.5-1.9h0l-.5-4.2h0l3.8-.8,6.4-.5,1.1-3,4.1-3,2.8-1.7,3.9.3,2.2,1.4,1.4,4.4,6.9-1.4,1.1-3,5.5,4.4,5-.8,3.3.3,2.2,1.4,4.1,1.7,10.2-4.7,2.2.8,1.7,2.5,6.4.8h4.4l1.9,3.6.5,3.6,3,.3,3.6-2.8,2.5-1.1,3.6,1.1,2.8-.5,4.1-1.9,6.9-.3,3.6,2.8,4.1-.5,3,2.8,1.9,4.4,2.2.3,1.4-2.8,2.5-.8h0l1.6,4.4h0l1.4,4.4,6.6,5-1.7,6.6-1.4,3.3-.8,3.9,3.6,3.3,2.5,3.3-2.5,2.5v3.3l-4.7-3.9-3,.3-2.8,1.4-1.9,3h-3.6l-1.9,1.7v4.1l-1.7,3.9,4.4.6,2.5,3.9,8-1.9-.3,2.5-.8,2.8-.6,4.1-3.6.3-.5,3.6-1.9,2.8.5,7.5,2.8.5,5.5,9.4,1.4,3h2.2l1.9,3,3.9-1.9,3.3.8,2.2,3.9,2.5.3,4.7-1.4,3.9,1.9,1.7,3.6,1.4,1.4Z"/>
  <path id="XK-PZ" class="st15" d="M331.2,529l-4.7,3.6-2.3.6-7.1.8-6.1,2.7-3.6,3.4-6.4,8.3-2.4,2.5-1.9,1.2-1.1.3h-4.8c0,.1-5.3-.4-5.3-.4l-1.1.2-2.6,1.2-1.9,1.6-3,1.6-5.3,1.3-6.8.4-1.1.3-1.2.7-1.4,1.3-1.1,2.3-2.5,2.7-9.4,15.2-1,2.3-.2,1,.7,6.2-.2,5.7.6,9.8.8,2.5,3.2,5,.6,3.1v1.6c0,0-1.1,3.4-1.1,3.4l-.2,2.8v1.8c.1,0,.6,1.5.6,1.5l.9,1.6,3.7,5.2v1.4c.1,0-12.2,12-12.2,12l-2.5,4.1-1.2,1.4-12.1,7.8-5.6,2.8-5.2,3.4-1.7,2.1-.8,4.4-.4.8-6.3,8.4-1.7,1.8-.8,1.3-1.8,5.7-1.9,1.9-2.9,2.2-1.2.7-2.5-.5-2.3-1.4h-.5s-3.4,1.9-3.4,1.9l-1.4.3-3.9-.5-1.5-.8-.4-.6.3-3.7-.3-1.2-1.3-2.8-2.7-9.5.5-2.6-.4-2.4.7-2.5.2-1.7-1.2-6.2v-4.4c0,0,.6-1.1.6-1.1l1.8-.3,1.4-1.7.7-.4,6.8-.6.4-.3v-3.4c-.1,0-1.9-2.7-1.9-2.7l-4.2-11.7,2.4-.9.8-.5,1.5-2.9.9-1,3.4-1.5,4.3-3,1.6-1.4,1-6.3,1-2.2.3-1.3-.7-4.5v-2l-.9-1.3-2-1.6-1.5-3.2-1.9-6.9-1.4-5.9-1.1-1-.6-1.3-1-9.9-5.8-6.8-1-.9-1.4-.3-4.5-9.4-1-1.1v-1.1c.1,0,3.7-6,3.7-6v-.7l-.8-1.1-.8-1.8v-1.3c-.1,0,0-1.2,0-1.2l1.9-3.9v-.7c.1,0,0-1.2,0-1.2l-3.8-7.9v-1.1c0,0,.6-1.1.6-1.1v-.8s-2.5-2.8-2.5-2.8l-2.7-3.8v-.4s.7-1,.7-1v-.5s-.9-2-.9-2l-.4-1.4-1.8-2.9-1.5-3.4-1.7-9.1-1.1-3.5-1.9-2-1.1-1.8-5.1-4.6v-1.8c0,0-.7-2.7-.7-2.7l-.8-1-1.7-1.1h0l2.1-3.3,6.9-1.4,3.6-2.2.3-4.1,6.1-1.4,3-3.6,1.4-2.2,5.5-1.1.8-6.9.6-2.5,2.2,2.8,1.1,3.3,1.7-2.2,1.1-2.8,3.9-1.1h4.7l3.6.5v4.4h3.3l3,1.6.8-3.6,1.9-1.4,2.5-3,1.7-2.8,1.7-4.7,2.2-2.2h5l2.2,3.6.6,2.8,1.4,3.3,2.5.8,3.9-3.3v-3.3l1.7-4.1,3-1.9-.6-5.2-.6-1.9,2.8-2.8-1.9-6.1,1.1-6.1.3-4.7-3-3.9-2.8-3,4.1-4.1-1.4-2.5-3.3-.3-2.8-2.5,1.1-5.8-1.6-.8-6.1-1.1-.8-3.3-3.6-1.7-3.3-3.3-5.2-.8h-10.2l-3.3-.5-.3-5.5-1.4-4.7-5.5-.3-2.5-1.7-2.2-6.1-3.6-1.9h0l-2.2.2h0l1.9-2.4,5.5-.8h4.4l7.4,1.6,5-2.2,5.5-.8,5,.3-.3-3.6,3.3-1.7,1.4-3,1.9-1.9.6-5.2,1.9-2.8,4.4-8,8.6-3.9,2.2,2.8,3.3.5h7.7l.6-3.6,2.2-3.3h0l.3-3.9h0l6.7-1,5.5,3-.8,5-4.1,4.1v2.8l1.9.3,1.4,1.4,5,3.9-.5,6.9-3,2.8.5,3-1.1,4.1-3.3,3.9-.3,2.2,1.7,3.6,5.2-5.5,4.7-.6,2.5-2.2h6.6l2.5-6.1,2.2-.5,1.4,4.1,1.9.8-.3,6.6-5.5.6.5,2.8,1.4,3-3.6,4.7,2.8,2.2,5.8-4.1,6.1,1.9.3,3,1.7,4.7h0l.5,4.4h0l.5,1.9h3.6l1.6,1.7,4.4,1.1,4.1.5,3,1.1-.5,3.9,2.2,3.3,2.2,1.1,3,2.8-1.1,1.7-4.1.3-1.1,4.1-3.6.3v2.8l1.9,2.2,2.5.8,2.2,2.5-1.7,3.3-5.5-2.8-3.6,1.7.3,3,2.5,1.9h5l4.1,3.9,2.8,3.6v5l3.3,2.5-.5,2.8-2.2,2.8v4.4l2.8.5v3.3l2.2,3-.8,2.8-3,1.9,1.6,5.5,2.5,2.8-1.9.8-4.4.8-2.8,3.3-2.8-2.8-3.3.8-.6,3.9-1.9,5.2-4.1,1.1-3.6,2.8-1.4,3-2.8,3-6.4-3.6-3.6,1.6-.3,2.8,1.1,1.9.6,2.8-2.2,3-2.5.8.5,4.4,3.6,1.4,8.6,1.4,11-.3,4.7,3.3,6.1,1.1,3,3.3,3.3,7.2,2.8,7.3Z"/>
  <g class="location-dot">
    <path class="st12" d="M114.1,364.5c10.3-1,18.5,7.5,16.8,17.8s-5.9,11.6-8.4,15.6-4.3,6.7-6.5,10c-.2,0-.3-.2-.4-.3-1.1-1.2-2.9-4.5-3.9-6.1-2.9-4.5-6.2-9.5-8.8-14.2-5.2-9.5,0-21.8,11.1-22.9ZM114.7,372.9c-7.9,1.1-6.9,14.1,1.9,13.3,8.6-.8,7.6-14.6-1.9-13.3Z"/>
    <path class="st11" d="M114.7,372.9c9.5-1.3,10.5,12.4,1.9,13.3-8.9.9-9.8-12.2-1.9-13.3Z"/>
  </g>
  <g class="location-dot">
    <path class="st12" d="M484.8,382.6c10.3-1,18.5,7.5,16.8,17.8s-5.9,11.6-8.4,15.6-4.3,6.7-6.5,10c-.2,0-.3-.2-.4-.3-1.1-1.2-2.9-4.5-3.9-6.1-2.9-4.5-6.2-9.5-8.8-14.2-5.2-9.5,0-21.8,11.1-22.9ZM485.5,391.1c-7.9,1.1-6.9,14.1,1.9,13.3,8.6-.8,7.6-14.6-1.9-13.3Z"/>
    <path class="st11" d="M485.5,391.1c9.5-1.3,10.5,12.4,1.9,13.3-8.9.9-9.8-12.2-1.9-13.3Z"/>
  </g>
  <g class="location-dot">
    <path class="st12" d="M385.2,229.6c10.3-1,18.5,7.5,16.8,17.8s-5.9,11.6-8.4,15.6-4.3,6.7-6.5,10c-.2,0-.3-.2-.4-.3-1.1-1.2-2.9-4.5-3.9-6.1-2.9-4.5-6.2-9.5-8.8-14.2-5.2-9.5,0-21.8,11.1-22.9ZM385.9,238.1c-7.9,1.1-6.9,14.1,1.9,13.3,8.6-.8,7.6-14.6-1.9-13.3Z"/>
    <path class="st11" d="M385.9,238.1c9.5-1.3,10.5,12.4,1.9,13.3-8.9.9-9.8-12.2-1.9-13.3Z"/>
  </g>
</svg>