<?xml version="1.0" encoding="UTF-8"?>
<svg id="Layer_1" data-name="Layer 1" xmlns="http://www.w3.org/2000/svg" viewBox="0 0 248.26 542.36">
  <defs>
    <style>
      .cls-1 {
        fill: #9b3f3f;
      }

      .cls-2 {
        fill: #fbccc9;
      }

      .cls-3 {
        fill: #fdeac9;
      }

      .cls-4 {
        fill: #f37879;
      }
    </style>
  </defs>
  <path class="cls-1" d="M195.02,285.35c1.7,1.07,7.24,29.9,10.16,32.34.66.55,7.54,2.72,8.33,2.6l5.96-6.93c2.24.54,5.28,3.41,7.33,3.6,1.92.17,3.61-1.7,5.38-1.2.88.25,5.05,3.55,5.47,4.46.84,1.85.94,15.09.49,17.47-.64,3.36-4.91,4.05-4.98,7.52,6.8-.67,4.56,2.9,5.92,5.55,2.17,4.21,8.95,7.89,9.17,11.94.08,1.54-1.98,17.81-2.52,18.58-.72,1.03-3.7.71-5.61,2.39-2.69,2.36-7.02,11.88-9.03,15.48l-11.45-3.79c-1.73.16-1.85,5.82-3.47,7.35-1.38,1.31-4.7,1.21-5.54,2.46-1.89,2.81,1.06,7.89.37,11.3-.9,4.46-10.51,13.66-11.38,17.66-.43,1.95,2.67,5.03,2.29,7.42-.42,2.62-5.62,5.85-5.81,8.22-.18,2.19,2,3.41,2.04,4.94.05,1.93-2.92,6.71-.99,10.49-7.43,2.71-12.7-.82-15.75-7.71-1.17-2.64-.95-5.49-2.02-7.98-1.94-4.52-8.31-15.35-9.01-19.03-.82-4.27,1.72-8.97.77-13.74-.51-2.59-2.8-3.05-3.72-5.27-1.36-3.31-.75-8.14-1.52-11.48-2.45-10.63-6.59-14.35,1.26-24.75-2.91-.42-9.37-.36-11.58-1.93-.91-.64-10.43-18.5-10.4-19.61.03-1.03,3.71-5.98,4.64-6.3,3.78-1.31,11.64,1.73,13.22.71l4.68-14.9c-3.09-7.46-13.79-21.08-8.05-28.97.48-.66,13.95-5.89,15.09-6,3.51-.35,6.95,2.33,9.91,3.97,2.96-.17.23-14.12,2.64-16.84h7.72Z"/>
  <path class="cls-3" d="M84.37,78.99c2.68,1.57,17.32-4.35,22.2-3.77,6.7.8,18.72,11.13,26.59,11.99l-7.94,20.36c.99,3.27,12.02,1.05,11.5,7.64l-20.52,8.51c-6.18,7.77-5.37,22.25-18.85,16.29l-4.79-15.89c-9.97,3.2-20.78,2.86-23.4,15.07-2.28-.5-2.81-4.21-4.65-4.84-2.52-.86-6.56.31-9.63-.37-2.6-.58-5.63-4-8.27-4.74-2.02-.57-1.18.42-1.47,1.4-.42,1.43-.87,7.46-2.47,7.53l-9.02-5.74-5.47,5.26c1.64,1.73,7.39,6.87,5.52,9.53s-7.69-.98-10.07-.62c-1.3.2-4.61,5.03-5.98,2.62-1.66-4.91,2.98-8.16-3.49-10.54l3-2.51v-1.96c-3.63-.25-3.14-3.1-3-6.02h4.02c-1.45-2.14.68-4.41.6-5.46-.07-.85-1.46-1.87-1.55-3.07-.57-7.78,2.35-10.78,4.01-17.79-2.36-2.47-16.16-11.56-15.92-14.01.14-1.48,10.2-15.38,12.03-18,1.43-2.05,5.65-5.99,6.36-7.73.86-2.1-.05-2.76,1.88-7.03,3.4-7.49,2.97-3.71,6.34-7.16,1.43-1.46,1.43-5.93,2.79-7.72,1.17-1.54,3.38-1.27,4.53-2.73,1.9-2.41,3.13-9.55,4.88-11.86,1.3-1.72,4.27-1.9,4.84-2.67,1.71-2.34.95-11.27,6.75-15.75,1.65-1.28,3.66-.81,4.99-2.01,1.96-1.78.88-6.6,6.78-4.84,4.03,1.2,1.89,9.98,5.71,13.27-12.35,7.11,4.37,15.43,5.79,20.25,1.29,4.34-.17,14.42.21,19.79s1.01,14.83,2.01,19.99c.14.74,2.92,5.15,3.19,5.31Z"/>
  <path class="cls-4" d="M149.17,251.2c3.2.48,6.7-3.1,9.55-2.94,2.48.13,3.2,3.53,6,3.97,3.04.48,6.28-1.56,9.45-1.03l2.14,14.42c3.65.95,8.26,7.86,8.57,11.21.14,1.46-.89,3.14-.75,4.83.52,6.1,1.92,11.16.03,17.55-3.3-.35-5.36-3.02-9.03-2.57-1.51.19-13.24,4.5-14.69,5.34-3.11,1.81-4.57,9.41-4.09,12.52.57,3.75,9.48,14.46,9.79,19.27.2,3.11-2.86,8.15-3.46,11.45-8.58,2.64-14.52-2.46-19.23,8-6.87.24-10.74,1.22-14.22-5.51-10.13,4.99-10.23-10.5-13.22-12.35-1.62-1-6.94,1.01-8.41-1.1l-.45-13.06-21.97,12.61c-8.66-1.29-4.19-9.5-5.02-14.07-.49-2.71-3.22-3.29-3.8-5.24-1.04-3.48.88-12.19-.64-14.36-8.25-1.86-12.54,1.13-16.54-8.44,6.79-1.42,5.42-9.27,8.48-12.49,3.31-3.5,13.36-.68,16.22-1.74,1.66-.61,14.86-11.33,16.81-13.23,2.18-2.13,7.31-9.98,8.47-10.58,2.18-1.13,6.03,2.39,8.96,1.09s11.06-12.1,15.1-14.97c1.31-.93,11.76-6.33,12.62-6.41,1.69-.15,5.13,3.73,5.34,5.39.29,2.26-2.59,11.89-2.02,12.44Z"/>
  <path class="cls-4" d="M114.18,398.2l5.62-3.92c1.16-.2,7,5.63,7.79,7,.96,1.67,1.25,5.16,1.8,5.71s3.46.65,5.31,2.2c1.57,1.32,5.52,9.02,6.06,9.1,7.63-3.97,17.17-4.11,16.55-14.94l7.86-1.14c.34,2.88-.6,6.59.21,9.3.58,1.95,3.25,2.49,3.78,5.22.9,4.67-.83,10.41.49,15.51s7.94,19.91,10.32,25.68c1.08,2.62,7.36,8.49,7.16,9.66-.81,4.64-9.66-.26-12.58-.35-3.38-.1-5.13,5.02-11.35.97l-4.5,12.02-11.51,1.99c-1.14.97,3.24,5.62,3.57,6.96.4,1.64-.77,2.97-.09,4.97,2.67,7.93,16.61,14.61,5.04,24.82-3.16-1.88-7.54-2.91-9.98-5.79-.85-1.01-8.84-14.08-9.09-14.91-.89-3.08.21-6.41-.97-9.03-.64-1.42-21.97-19.54-23.74-20.26-4.16-1.71-8.6.08-12.79-1.21-1.6-1.07-2.41-9.08-4.49-11.51s-8.2-3.06-9.23-4.27c-1.4-1.64-3.75-18.18-5.49-22-.95-2.09-8.67-9.3-8.67-10.26l6.86-8.13-3.91-4.87c1.66-1.67,3.75-1.66,5.55-3.43,4.95-4.87,2.22-12.71,12.87-11.01,2.61.42,4.49,2.64,6.86,2.65,3.13.01,7.89-2.13,11.27-2.38l3.45,5.67Z"/>
  <path class="cls-4" d="M137.62,116.9l-20.18,7.36-10.75,18.3-9.59-1.07-5.57-15.62c-.87-.14-15.49,3.97-16.34,4.62-2.16,1.63-4.07,8.37-6.56,10.45-1.91.88-3.62-5.59-5.2-6.01-2.4-.64-6.41.42-9.56-.21-2.85-.57-4.58-3.09-6.25-3.76-2.9-1.16-1.51,8.5-4,8.99l-8.53-5.55c-2.1-1.11-3.47,1.75-4.89,3.04,1.06,1.5,5.48,5.84,5.71,7.12.27,1.56-1.49,3.63-.59,5.2.95,1.67,12.18,6.82,12.6,7.42.67.94.45,3.91,1.25,5.25-10.73,1.64-2.8,7.55-3.07,12.93-.15,3.11-3.13,7.62-2.96,11.07l6.08-.07.93,5.58-2.91-.93-3.09,5.41c10.67,8.4,25.47,6.31,37.03,1.01l.84-1.05c-1.43-3.99-.79-9.96-2.11-13.68-.9-2.53-7.06-7.15-5.62-9.62l6.23-4.06c3.88,5.54,5.48,2.54,9.04,3.02,2.85.38,6.32,2.32,9.04,1.94,2.61-.36,3.28-3.24,5.25-3.82,2.36-.7,6.93.43,8.15-.35.7-.45.31-3.55,2.87-4.64,2.24-.95,12.43-1.43,13.17-2.31,1.91-4.94-3.34-8.17-2.73-12.13.64-4.14,3.14-8.13,7.84-6.77-.68-5.16-.63-6.64,1.93-9.41.46-.5.89-1.04,1.24-1.62,1.58-2.6,4.51-3.64,4.88-6.42.39-2.88.05-9.27-3.58-9.6Z"/>
  <path class="cls-2" d="M139.97,146.64c-.08.03-.32.5-1.25.35-7.04-1.11-8.65-6.31-12.43,4.65,3.24,4.33,4.35,6.95,2.28,12.43-3.79,1.45-9.68.95-13.19,2.55-2.21,1.01-1.66,3.9-3.21,4.85-2.03,1.24-5.8-.06-8.33.67-1.82.53-2.74,3.23-4.39,3.65-1.73.43-5.66-1.41-7.91-1.74-4.31-.65-7.87,1.29-11.03-3.03-8.84,3.78-.55,7.05.98,12.09,1.41,4.64.35,10.56,2.78,15.22,5.9,11.33,14.06,10.84,20.58,16.92,2.48,2.32,6.27,12,8.3,13.26l8.31-2.45,11.33,11.72,13.87-6.57,6.32,6.42-1.83,11.3c.8.88,6.13-2.64,7.5-2.63,2.53.02,4.47,4.1,6.11,4.41,1.69.32,5.95-1.66,8.38-.77l-3-8.48c1.88-2.86,2.88.25,4.5,1.46l.51-.45c.86-2.1,4.1-4.58,4.58-6.48.43-1.67-.74-3.12-.57-4.5.19-1.57,1.98-2.64,1.82-3.86-.57-4.38-6.32-4.65-7.62-5.91-2.95-2.83-1.23-12.75-8.21-13.26,2.62-8.7,8.36-7.29,14.99-11.53.42-.56-5.53-10.87-5.84-12.73-.56-3.32,1.64-4.47,1.82-6.8.19-2.52-1.84-4.66-1.85-6.94-.04-5.72,5.85-9.49,6.67-12.21.94-3.14-.23-7.9.2-11.29-10.59-.69-18.78,10.07-28.56,5.06-1.89-2.61,2.57-15.28-5.42-11.56-.98.46-1.73,1.35-2.67,2.33-1.03,1.08-1.11,1.78-3.16,2.67l-.83.35h0s0,0,0,0l-.53.84Z"/>
  <path class="cls-4" d="M184.35,112.25c-1.29-2.38-5.69-5.51-5.97-6.91-.45-2.3,2.26-7.72,1.72-11.8-.58-4.38-9.49-20.79-13.03-23.03-1.83-1.16-5.39-1.09-7.84-2.16-3.41-1.49-5.76-5.57-8.39-6.67-3.39-1.42-9.6,1.52-13.55.13-2.05-6.07,3.07-8.33-4.08-13.49,4.2-5.29-1.25-5.39-3.29-9.65-1.41-2.93-1.22-7.59-2.89-10.11-1.55-2.34-6.36-3.38-8.83-5.17-1.2-.87-1.51-2.92-3.1-3.9-5.78-3.53-11.97,2.46-12.04,8.39-2.73.9-7.2-2.13-9.3-1.71-1.36.27-2.28,2.52-3.69,3.22-4.67,2.33-9.19,1.18-9.93,8.04-.8,7.34.86,26.2,2.23,33.79.35,1.92,2.19,6.08,4.24,6.35,3.89.51,14.99-4.64,19.81-4.42l28.29,13.78-7.58,21.02c10.58-1,17.5,12.11,14.8,21.3-.62,2.1-3.45,3.35-4.8,4.71-1.42,3.17-2.51,6.45-2.97,9.92l4.83,2,1.13-.46c3.71-4.24,6.62-9.44,12.89-6.35l.08,11.22c6.19,4.76,11.52-.93,17.24-2.63,3.53-1.05,10.52-1.35,13.13-2.86,3.72-2.16-.13-5.98.61-9.14.25-1.08,2.7-1.12,3.54-2.69,2.53-4.73-.84-16.23-3.28-20.71Z"/>
  <path class="cls-2" d="M8.16,363.2c3.18-2.97,7.85-7.22,8.78-11.72,1.94-9.43-1.12-12.91,3.94-23.02.61-1.21,2.21-1.24,2.32-1.93.4-2.52-2.39-6.87-.61-9.4.97-1.39,4.05-.52,5.58-1.42,2.15-1.27,5-8.09,2.92-10.94-1.4-1.94-4.72-.93-3.92-3.05l6.96-7.01,6.54,1.54c2.77-.26,2.69-4.09,5.18-4.86,3-.92,7.58.3,10.86-.26l1.3.24,4.31,8.68,11.76,1.24c.96,1.04.65,11.94,1.29,14.21.55,1.93,3.53,2.97,3.65,6.15.07,1.73-1.13,4.36-1.03,6.38l-7.83,1.17c-2.27,2.16,3.35,22.74,5.24,26.27,1.45,2.71,6.02,5.41,6.61,7.46.71,2.48-.85,5.17-.92,7.77-.22,8.14,8,11.05,9.02,18.93-1.5,2.11-4.03,1.16-6.01,3-2.7,2.52-5.24,14.52-11.98,12.01-7.43-2.76-.57-11.57-1.96-13.45l-4.99.99.97-6.96c-6.71-2.22-17.81-4.4-23.7-7.8-3.75-2.17-4.27-7.43-7.29-9.71-.82-.62-10.86-4.52-11.48-4.52h-15.5Z"/>
  <path class="cls-4" d="M106.16,336.21l8.85.16c1.3,2.43,4.74,12.02,6.81,12.68,2.01.64,4.68-.34,6.69.31,1.83.59,2.02,3.94,4.34,4.66,3.18.98,7.78-.48,11.15.35l10.35,20.64,9.8,1.2c.93.82-3.86,7.31-3.9,9.48-.04,2.55,5.2,14.22,3.9,15.51l-7.9.11c.27,12.54-7.05,10.16-15.09,15.89-1.12-2.24-4.46-9.01-5.92-10.34-1.32-1.21-3.38-.23-4.61-1.63-.75-.86-.89-3.41-2.02-4.98-.79-1.09-7.53-7.87-8.1-7.96l-4.86,3.91c-4.68-9.1-9.81-2.19-16.9-3s-6.67-5.69-9.39-9.69c-1.56-2.3-6.22-7.3-6.81-9.26-1.11-3.67,1.89-8.72,1.36-11.42-.35-1.77-6.33-5.72-7.82-9.05-3.02-6.73-4.42-16.25-3.94-23.57,7.35-1.53,6.84,1.87,11.49,5.72l21.02-11.69c2.43.14,1.25,9.8,1.49,11.98Z"/>
  <path class="cls-1" d="M103.87,216.51c2.63,2.45,6.79,13.04,9.27,14.26,3,0,4.83-3.52,7.99-2.1.62.28,9.29,8.94,9.6,9.54.75,1.45.22,1.47-.5,2.52-.77,1.12-11.31,11.61-12.09,11.97-3.51,1.63-6.69-1.68-9.98-.02-1.16.58-6.3,8.43-8.47,10.55-1.76,1.72-14.15,11.86-15.57,12.43-4.3,1.73-14.41-.75-17,1l-5.12,12.38c-1.7,1.02-14.2.46-17.16,1.35-2.28.68-2.86,4.4-4.14,4.6-1.1.17-3.94-2.41-6.82-1.63-2.27.62-5.1,5.91-7.71,6.85.85-4.69,2.97-10.87,3.02-15.55.04-3.2-2.4-7.05-2.12-8.81.15-.91,2.62-1.04,3.55-2.66,1.08-1.87,1.06-5.26,2.32-7.69.99-1.9,3.17-3.15,3.69-4.3.88-1.96.22-5.58.56-5.95,1.55-1.68,10.98-.9,12.93,1.95.57-3.08,3.9-6.13,4.6-9,.87-3.58-2.54-8.39-2.58-12.5-.02-1.84,1.38-12.32,2.26-13.24.75-.79,5.9-2.82,6.72-2.24.06,5.31,3.46,9.16,9.05,7.59,2.37-.67,5.1-4.7,7.71-5.37s5.51.53,7.84-1.16c1.79-1.29,5.59-10.88,6.9-10.98,2.77,2.12,8.92,4.06,11.22,6.21Z"/>
  <path class="cls-4" d="M64.31,226.06l-3.64-8.83-8.01,4.97c-.9,4.8-1.86,9.6-1.52,14.55.5,7.39,4.83,11.82-2.47,18.44-3.54-4.47-6.95-1.93-11.49-.98-.29-1.68-.7-3.44-1.6-4.92-3.65-6-5.85-.21-8.41-1.51-5.24-2.67-1.08-13.38-5.01-17.56l5.84-.16c1.34-2.48,1.66-4.53-.83-6.36,5.82-2.78,9.83-5.92,10.06-12.97.3-9.41-10.3-3.35-9.07-14.52,3.02.45,5.63,2.54,8.74,2.76,2.21.15,3.94-1.06,6.5-.59,3.9.7,8.29,5.3,13.23,5.85,3.51.39,10.17-.56,13.75-1.3s8.02-3.31,10.54-3.57c3.72-.39,8.15,7.29,9.88,10.34,0,.67-4.55,8.87-5.18,9.48-2.44,2.38-6.52,1.49-9.42,2.58-3.75,1.42-5.86,6.65-11.91,4.3Z"/>
  <g>
    <path class="cls-4" d="M64.14,386.24l-.97,6.96h5c.89,2.28-2.13,6.61-1.5,8.04.94,2.11,9.13,7.85,9.43,9.61l-6.91,8.86c0,.71,8.11,8.54,9.2,10.78,2.18,4.5,3.93,19.8,6.04,22.46,1.3,1.64,7.52,2.07,9.2,4.29,1.47,1.95,3.3,11.93,4.7,12.79,3.97.97,10.23-.96,13.82.69,1.8.82,21.42,17.78,21.82,19.18.62,2.17-.02,4.73.66,7.34,1.67,6.35,9.67,14.11,11.25,22.62.43,2.34-1.66,5.08,2.13,7.85-4.75,3.55-5.94,6.23-8.33,11.47l-4.49-2.98-1.12,5.88c-1.06.91-11.92-.75-13.91-1.37-3.94-1.23-10.54-7.6-13.95-6.05-1.27.58-3.09,4.4-5.59.54-1.54-2.38,1.65-4.51,1.54-6.51-.07-1.47-2-2.54-1.84-3.82.17-1.36,3.34-3.7,3.66-5.4s-1.05-3.47-.68-5.54c.55-3.02,5.3-5.64,1.69-10.56-2.82.46-12.08-3.65-13.55-5.44-3.58-4.36,2.07-3.58,2.56-7.04-.09-.95-8.6-16.08-9.35-16.68-2.47-2.01-6.31-.17-8.92-2.07s-.9-4.35-1.74-5.76c-.36-.6-10.48-4.84-12.5-6-6.81-3.91-26.11-14.49-31.02-18.48-.89-.72-12.47-13.81-12.84-14.71-1.14-2.83,1.62-6.3-3.03-12.91-1.77-2.52-9.36-7.32-6.81-10.15,5.26-5.84,13.13,5.08,15.26,9.69,1.09,2.36,1.2,4.79,2.01,6.99.42,1.13-.58,1.66,1.56,1.39,1.53-.2,5.98-2.2,6.44-3.66.15-2.72-1.03-4.98-.99-7.82.12-7.26,4.64-7.63-2.43-14.5-2.26-2.2-8.85-5.45-9.97-8.03-1.06-2.42-.26-5.55-1.28-8.72-.9-2.79-10.83-13.71-9.23-15.26,7.39-.48,17.72.54,24.28,4.21,3.71,2.08,4.36,8,7.77,10.23,3.14,2.06,22.13,6.67,22.93,7.58Z"/>
    <path class="cls-4" d="M.17,383.2l7.86,6.7c.51,1.62-1.01,6.97-2.39,7.29-6.63-2.46-5.7-8.12-5.47-14Z"/>
  </g>
</svg>